G04 EAGLE Gerber RS-274X export*
G75*
%MOMM*%
%FSLAX34Y34*%
%LPD*%
%INBottom Copper*%
%IPPOS*%
%AMOC8*
5,1,8,0,0,1.08239X$1,22.5*%
G01*
%ADD10R,1.524000X1.524000*%
%ADD11C,1.524000*%
%ADD12C,2.476500*%
%ADD13C,2.000000*%
%ADD14R,2.000000X2.000000*%
%ADD15C,1.700000*%
%ADD16C,4.216000*%
%ADD17C,4.114800*%
%ADD18C,2.380000*%
%ADD19C,2.540000*%
%ADD20C,1.050000*%
%ADD21R,1.730000X1.900000*%
%ADD22P,1.649562X8X202.500000*%
%ADD23C,0.454000*%
%ADD24C,0.304800*%
%ADD25C,0.604000*%
%ADD26C,0.508000*%
%ADD27C,0.152400*%
%ADD28C,0.203200*%
%ADD29C,0.254000*%

G36*
X1221748Y4144D02*
X1221748Y4144D01*
X1221823Y4157D01*
X1221833Y4163D01*
X1221843Y4166D01*
X1221872Y4189D01*
X1221943Y4238D01*
X1225824Y8118D01*
X1225864Y8183D01*
X1225908Y8245D01*
X1225910Y8257D01*
X1225915Y8265D01*
X1225919Y8302D01*
X1225935Y8387D01*
X1225935Y865555D01*
X1225924Y865605D01*
X1225922Y865656D01*
X1225904Y865688D01*
X1225896Y865724D01*
X1225863Y865763D01*
X1225839Y865808D01*
X1225809Y865829D01*
X1225786Y865857D01*
X1225739Y865878D01*
X1225697Y865908D01*
X1225655Y865916D01*
X1225627Y865928D01*
X1225597Y865927D01*
X1225555Y865935D01*
X625306Y865935D01*
X625293Y865932D01*
X625280Y865934D01*
X625210Y865913D01*
X625137Y865896D01*
X625127Y865887D01*
X625115Y865884D01*
X625061Y865833D01*
X625004Y865786D01*
X624998Y865774D01*
X624989Y865765D01*
X624963Y865695D01*
X624933Y865627D01*
X624933Y865614D01*
X624929Y865602D01*
X624936Y865528D01*
X624939Y865454D01*
X624945Y865443D01*
X624947Y865430D01*
X624987Y865367D01*
X625022Y865302D01*
X625033Y865295D01*
X625040Y865284D01*
X625132Y865223D01*
X625225Y864998D01*
X625240Y864976D01*
X625248Y864950D01*
X625304Y864888D01*
X625326Y864857D01*
X625335Y864852D01*
X625345Y864842D01*
X625530Y864700D01*
X625608Y864106D01*
X625621Y864071D01*
X625622Y864069D01*
X625623Y864045D01*
X625630Y864030D01*
X625634Y864010D01*
X625638Y864000D01*
X625659Y863970D01*
X625663Y863959D01*
X625668Y863944D01*
X625678Y863933D01*
X625687Y863915D01*
X625694Y863906D01*
X625723Y863883D01*
X625739Y863859D01*
X625747Y863855D01*
X625764Y863836D01*
X626239Y863471D01*
X626270Y863240D01*
X626279Y863214D01*
X626280Y863187D01*
X626317Y863113D01*
X626331Y863078D01*
X626339Y863070D01*
X626345Y863058D01*
X626487Y862872D01*
X626445Y862550D01*
X626446Y862536D01*
X626442Y862522D01*
X626455Y862450D01*
X626462Y862377D01*
X626469Y862365D01*
X626472Y862351D01*
X626553Y862231D01*
X626554Y862230D01*
X626635Y862149D01*
X626635Y861669D01*
X626635Y861668D01*
X626635Y861666D01*
X626664Y861524D01*
X626939Y860859D01*
X626708Y860301D01*
X626703Y860274D01*
X626691Y860251D01*
X626686Y860168D01*
X626680Y860130D01*
X626683Y860120D01*
X626682Y860106D01*
X626854Y858798D01*
X626840Y858779D01*
X626840Y858778D01*
X626713Y858614D01*
X626692Y858567D01*
X626662Y858525D01*
X626654Y858484D01*
X626642Y858456D01*
X626643Y858425D01*
X626635Y858383D01*
X626635Y849917D01*
X626646Y849867D01*
X626649Y849816D01*
X626667Y849778D01*
X626674Y849749D01*
X626694Y849725D01*
X626713Y849686D01*
X626854Y849502D01*
X626682Y848194D01*
X626685Y848167D01*
X626679Y848141D01*
X626696Y848059D01*
X626699Y848022D01*
X626705Y848012D01*
X626708Y847999D01*
X626939Y847441D01*
X626664Y846776D01*
X626663Y846774D01*
X626662Y846773D01*
X626635Y846631D01*
X626635Y846151D01*
X626553Y846069D01*
X626546Y846057D01*
X626534Y846049D01*
X626500Y845984D01*
X626462Y845922D01*
X626460Y845908D01*
X626454Y845895D01*
X626445Y845750D01*
X626487Y845428D01*
X626345Y845242D01*
X626334Y845218D01*
X626315Y845198D01*
X626289Y845119D01*
X626273Y845084D01*
X626274Y845073D01*
X626270Y845060D01*
X626239Y844829D01*
X625764Y844464D01*
X625740Y844435D01*
X625739Y844434D01*
X625718Y844421D01*
X625709Y844408D01*
X625693Y844393D01*
X625687Y844385D01*
X625672Y844352D01*
X625664Y844342D01*
X625654Y844331D01*
X625649Y844317D01*
X625638Y844300D01*
X625634Y844290D01*
X625628Y844253D01*
X625616Y844227D01*
X625616Y844218D01*
X625608Y844194D01*
X625530Y843600D01*
X625345Y843458D01*
X625327Y843437D01*
X625305Y843423D01*
X625259Y843353D01*
X625235Y843324D01*
X625232Y843313D01*
X625225Y843302D01*
X625135Y843086D01*
X624582Y842857D01*
X624551Y842835D01*
X624549Y842833D01*
X624525Y842826D01*
X624514Y842816D01*
X624497Y842808D01*
X624488Y842801D01*
X624465Y842772D01*
X624454Y842765D01*
X624441Y842757D01*
X624433Y842744D01*
X624417Y842730D01*
X624410Y842721D01*
X624396Y842689D01*
X624378Y842667D01*
X624376Y842658D01*
X624361Y842636D01*
X624132Y842083D01*
X623916Y841993D01*
X623894Y841978D01*
X623868Y841970D01*
X623806Y841914D01*
X623775Y841892D01*
X623770Y841883D01*
X623760Y841873D01*
X623618Y841688D01*
X623024Y841610D01*
X622989Y841597D01*
X622987Y841596D01*
X622963Y841595D01*
X622948Y841588D01*
X622928Y841584D01*
X622918Y841580D01*
X622888Y841559D01*
X622877Y841555D01*
X622862Y841550D01*
X622851Y841540D01*
X622833Y841531D01*
X622824Y841524D01*
X622801Y841495D01*
X622777Y841479D01*
X622773Y841471D01*
X622754Y841454D01*
X622389Y840979D01*
X622158Y840948D01*
X622132Y840939D01*
X622105Y840938D01*
X622031Y840901D01*
X621996Y840887D01*
X621988Y840879D01*
X621976Y840873D01*
X621790Y840731D01*
X621468Y840773D01*
X621454Y840772D01*
X621440Y840776D01*
X621368Y840763D01*
X621295Y840756D01*
X621283Y840749D01*
X621269Y840746D01*
X621149Y840665D01*
X621148Y840664D01*
X621067Y840583D01*
X620587Y840583D01*
X620586Y840583D01*
X620584Y840583D01*
X620442Y840554D01*
X619777Y840279D01*
X619219Y840510D01*
X619192Y840514D01*
X619169Y840527D01*
X619086Y840532D01*
X619048Y840538D01*
X619038Y840535D01*
X619024Y840536D01*
X617716Y840364D01*
X617532Y840505D01*
X617485Y840526D01*
X617443Y840556D01*
X617402Y840564D01*
X617374Y840576D01*
X617343Y840575D01*
X617301Y840583D01*
X600429Y840583D01*
X600419Y840585D01*
X600114Y840585D01*
X597733Y842966D01*
X597733Y865356D01*
X597745Y865381D01*
X597777Y865433D01*
X597780Y865459D01*
X597790Y865483D01*
X597788Y865544D01*
X597794Y865606D01*
X597785Y865630D01*
X597784Y865656D01*
X597754Y865710D01*
X597732Y865768D01*
X597713Y865785D01*
X597701Y865808D01*
X597650Y865843D01*
X597605Y865885D01*
X597580Y865893D01*
X597559Y865908D01*
X597475Y865924D01*
X597439Y865935D01*
X597429Y865933D01*
X597417Y865935D01*
X554219Y865935D01*
X554194Y865929D01*
X554168Y865932D01*
X554111Y865910D01*
X554050Y865896D01*
X554030Y865879D01*
X554006Y865870D01*
X553964Y865825D01*
X553917Y865786D01*
X553906Y865762D01*
X553889Y865743D01*
X553871Y865684D01*
X553846Y865627D01*
X553847Y865602D01*
X553839Y865577D01*
X553850Y865516D01*
X553852Y865454D01*
X553865Y865432D01*
X553869Y865406D01*
X553903Y865357D01*
X553903Y842966D01*
X551522Y840585D01*
X551217Y840585D01*
X551208Y840583D01*
X534335Y840583D01*
X534285Y840572D01*
X534234Y840569D01*
X534196Y840551D01*
X534167Y840544D01*
X534143Y840524D01*
X534104Y840505D01*
X533920Y840364D01*
X532612Y840536D01*
X532585Y840533D01*
X532559Y840539D01*
X532477Y840522D01*
X532440Y840519D01*
X532430Y840513D01*
X532417Y840510D01*
X531859Y840279D01*
X531194Y840554D01*
X531192Y840555D01*
X531191Y840556D01*
X531049Y840583D01*
X530569Y840583D01*
X530487Y840665D01*
X530475Y840672D01*
X530467Y840684D01*
X530402Y840718D01*
X530340Y840756D01*
X530326Y840758D01*
X530313Y840764D01*
X530168Y840773D01*
X529846Y840731D01*
X529660Y840873D01*
X529636Y840884D01*
X529616Y840903D01*
X529537Y840929D01*
X529502Y840945D01*
X529491Y840944D01*
X529478Y840948D01*
X529247Y840979D01*
X528882Y841454D01*
X528853Y841478D01*
X528852Y841479D01*
X528839Y841500D01*
X528826Y841508D01*
X528812Y841524D01*
X528803Y841531D01*
X528770Y841546D01*
X528761Y841553D01*
X528749Y841564D01*
X528735Y841569D01*
X528718Y841580D01*
X528708Y841584D01*
X528671Y841590D01*
X528645Y841602D01*
X528637Y841602D01*
X528612Y841610D01*
X528018Y841688D01*
X527876Y841873D01*
X527855Y841891D01*
X527841Y841913D01*
X527771Y841959D01*
X527742Y841983D01*
X527731Y841986D01*
X527720Y841993D01*
X527504Y842083D01*
X527275Y842636D01*
X527253Y842667D01*
X527251Y842669D01*
X527244Y842693D01*
X527234Y842704D01*
X527226Y842721D01*
X527219Y842730D01*
X527190Y842753D01*
X527183Y842764D01*
X527175Y842777D01*
X527162Y842785D01*
X527148Y842801D01*
X527139Y842808D01*
X527107Y842822D01*
X527085Y842840D01*
X527076Y842842D01*
X527054Y842857D01*
X526501Y843086D01*
X526411Y843302D01*
X526396Y843324D01*
X526388Y843350D01*
X526332Y843412D01*
X526310Y843443D01*
X526301Y843448D01*
X526291Y843458D01*
X526106Y843600D01*
X526028Y844194D01*
X526015Y844229D01*
X526014Y844231D01*
X526013Y844255D01*
X526006Y844270D01*
X526002Y844290D01*
X525998Y844300D01*
X525977Y844330D01*
X525973Y844341D01*
X525968Y844356D01*
X525958Y844367D01*
X525949Y844385D01*
X525942Y844394D01*
X525913Y844417D01*
X525897Y844441D01*
X525889Y844445D01*
X525872Y844464D01*
X525397Y844829D01*
X525366Y845060D01*
X525357Y845086D01*
X525356Y845113D01*
X525319Y845187D01*
X525305Y845222D01*
X525297Y845230D01*
X525291Y845242D01*
X525149Y845428D01*
X525191Y845750D01*
X525190Y845764D01*
X525194Y845778D01*
X525181Y845850D01*
X525174Y845923D01*
X525167Y845935D01*
X525164Y845949D01*
X525083Y846069D01*
X525082Y846070D01*
X525001Y846151D01*
X525001Y846631D01*
X525001Y846632D01*
X525001Y846634D01*
X524972Y846776D01*
X524697Y847441D01*
X524928Y847999D01*
X524932Y848026D01*
X524945Y848049D01*
X524950Y848132D01*
X524956Y848170D01*
X524953Y848180D01*
X524954Y848194D01*
X524782Y849502D01*
X524835Y849572D01*
X524923Y849686D01*
X524944Y849733D01*
X524974Y849775D01*
X524982Y849816D01*
X524994Y849844D01*
X524993Y849875D01*
X525001Y849917D01*
X525001Y858383D01*
X524990Y858433D01*
X524987Y858484D01*
X524969Y858522D01*
X524962Y858551D01*
X524942Y858575D01*
X524923Y858614D01*
X524782Y858798D01*
X524954Y860106D01*
X524951Y860133D01*
X524957Y860159D01*
X524940Y860241D01*
X524937Y860278D01*
X524931Y860288D01*
X524928Y860301D01*
X524697Y860859D01*
X524972Y861524D01*
X524973Y861526D01*
X524974Y861527D01*
X525001Y861669D01*
X525001Y862149D01*
X525083Y862231D01*
X525091Y862243D01*
X525102Y862251D01*
X525136Y862316D01*
X525174Y862378D01*
X525176Y862392D01*
X525182Y862405D01*
X525191Y862550D01*
X525149Y862872D01*
X525291Y863058D01*
X525302Y863082D01*
X525320Y863102D01*
X525347Y863181D01*
X525362Y863216D01*
X525362Y863227D01*
X525366Y863240D01*
X525397Y863471D01*
X525872Y863836D01*
X525896Y863865D01*
X525897Y863866D01*
X525918Y863880D01*
X525927Y863893D01*
X525942Y863906D01*
X525949Y863915D01*
X525964Y863948D01*
X525972Y863958D01*
X525982Y863969D01*
X525987Y863984D01*
X525998Y864001D01*
X526002Y864011D01*
X526008Y864047D01*
X526020Y864073D01*
X526020Y864081D01*
X526028Y864106D01*
X526106Y864700D01*
X526291Y864842D01*
X526309Y864863D01*
X526331Y864877D01*
X526377Y864947D01*
X526401Y864976D01*
X526404Y864987D01*
X526411Y864998D01*
X526502Y865217D01*
X526556Y865261D01*
X526616Y865305D01*
X526622Y865316D01*
X526632Y865324D01*
X526663Y865392D01*
X526698Y865458D01*
X526698Y865471D01*
X526703Y865483D01*
X526701Y865557D01*
X526703Y865631D01*
X526697Y865643D01*
X526697Y865656D01*
X526661Y865721D01*
X526630Y865788D01*
X526620Y865796D01*
X526614Y865808D01*
X526554Y865851D01*
X526496Y865897D01*
X526483Y865900D01*
X526472Y865908D01*
X526330Y865935D01*
X4445Y865935D01*
X4395Y865924D01*
X4344Y865922D01*
X4312Y865904D01*
X4276Y865896D01*
X4237Y865863D01*
X4192Y865839D01*
X4171Y865809D01*
X4143Y865786D01*
X4122Y865739D01*
X4092Y865697D01*
X4084Y865655D01*
X4072Y865627D01*
X4073Y865597D01*
X4065Y865555D01*
X4065Y4506D01*
X4076Y4457D01*
X4078Y4406D01*
X4096Y4374D01*
X4104Y4338D01*
X4137Y4298D01*
X4161Y4254D01*
X4191Y4232D01*
X4214Y4204D01*
X4261Y4183D01*
X4303Y4154D01*
X4345Y4146D01*
X4373Y4133D01*
X4403Y4134D01*
X4445Y4126D01*
X1221674Y4126D01*
X1221748Y4144D01*
G37*
%LPC*%
G36*
X829031Y350317D02*
X829031Y350317D01*
X826702Y351281D01*
X824920Y353063D01*
X823956Y355391D01*
X823956Y355643D01*
X823939Y355717D01*
X823926Y355792D01*
X823919Y355802D01*
X823917Y355812D01*
X823893Y355841D01*
X823845Y355912D01*
X812839Y366918D01*
X812774Y366958D01*
X812712Y367002D01*
X812700Y367004D01*
X812692Y367009D01*
X812655Y367013D01*
X812570Y367029D01*
X743385Y367029D01*
X740298Y370117D01*
X740179Y370236D01*
X740114Y370276D01*
X740052Y370320D01*
X740040Y370322D01*
X740032Y370327D01*
X739994Y370331D01*
X739910Y370347D01*
X739658Y370347D01*
X737330Y371312D01*
X735548Y373094D01*
X734583Y375422D01*
X734583Y377063D01*
X734572Y377113D01*
X734570Y377164D01*
X734552Y377196D01*
X734544Y377232D01*
X734511Y377271D01*
X734487Y377316D01*
X734457Y377337D01*
X734434Y377365D01*
X734387Y377386D01*
X734345Y377416D01*
X734303Y377424D01*
X734275Y377436D01*
X734245Y377435D01*
X734203Y377443D01*
X733020Y377443D01*
X732946Y377426D01*
X732871Y377413D01*
X732861Y377406D01*
X732851Y377404D01*
X732822Y377380D01*
X732751Y377332D01*
X732609Y377189D01*
X728399Y377189D01*
X728257Y377332D01*
X728192Y377372D01*
X728130Y377416D01*
X728118Y377418D01*
X728110Y377423D01*
X728073Y377427D01*
X727988Y377443D01*
X694915Y377443D01*
X694841Y377426D01*
X694767Y377413D01*
X694757Y377406D01*
X694747Y377404D01*
X694718Y377380D01*
X694647Y377332D01*
X694468Y377154D01*
X692140Y376189D01*
X689620Y376189D01*
X687292Y377154D01*
X685510Y378936D01*
X684545Y381264D01*
X684545Y383784D01*
X685096Y385113D01*
X685106Y385176D01*
X685124Y385237D01*
X685120Y385261D01*
X685124Y385284D01*
X685105Y385345D01*
X685095Y385408D01*
X685079Y385430D01*
X685073Y385450D01*
X685047Y385477D01*
X685013Y385528D01*
X684442Y386099D01*
X684388Y386133D01*
X684339Y386173D01*
X684316Y386178D01*
X684295Y386190D01*
X684232Y386197D01*
X684170Y386210D01*
X684143Y386205D01*
X684123Y386207D01*
X684087Y386194D01*
X684028Y386182D01*
X681980Y385333D01*
X679460Y385333D01*
X677132Y386298D01*
X675350Y388080D01*
X674385Y390408D01*
X674385Y390814D01*
X674371Y390876D01*
X674364Y390939D01*
X674351Y390959D01*
X674346Y390982D01*
X674305Y391032D01*
X674271Y391085D01*
X674249Y391100D01*
X674236Y391116D01*
X674201Y391132D01*
X674151Y391165D01*
X671798Y392140D01*
X670016Y393922D01*
X669176Y395948D01*
X669154Y395979D01*
X669140Y396015D01*
X669104Y396049D01*
X669075Y396089D01*
X669041Y396107D01*
X669013Y396133D01*
X668966Y396147D01*
X668922Y396170D01*
X668884Y396171D01*
X668847Y396182D01*
X668798Y396174D01*
X668749Y396175D01*
X668714Y396159D01*
X668676Y396153D01*
X668626Y396119D01*
X668592Y396103D01*
X668578Y396087D01*
X668556Y396072D01*
X634677Y362193D01*
X632250Y361187D01*
X504400Y361187D01*
X501973Y362193D01*
X500061Y364104D01*
X492753Y371412D01*
X492752Y371413D01*
X492751Y371415D01*
X492630Y371495D01*
X491541Y371946D01*
X489548Y373939D01*
X488469Y376543D01*
X488469Y379361D01*
X489548Y381965D01*
X491541Y383958D01*
X494145Y385037D01*
X496963Y385037D01*
X499053Y384171D01*
X499103Y384163D01*
X499151Y384145D01*
X499188Y384149D01*
X499224Y384143D01*
X499273Y384158D01*
X499323Y384163D01*
X499354Y384183D01*
X499389Y384194D01*
X499427Y384229D01*
X499470Y384256D01*
X499493Y384292D01*
X499515Y384313D01*
X499526Y384341D01*
X499550Y384377D01*
X499708Y384759D01*
X501701Y386752D01*
X504305Y387831D01*
X507123Y387831D01*
X507283Y387764D01*
X507334Y387756D01*
X507382Y387738D01*
X507418Y387742D01*
X507454Y387736D01*
X507503Y387751D01*
X507554Y387757D01*
X507585Y387776D01*
X507620Y387787D01*
X507657Y387822D01*
X507700Y387849D01*
X507724Y387885D01*
X507746Y387906D01*
X507757Y387935D01*
X507780Y387970D01*
X508344Y389331D01*
X510337Y391324D01*
X512374Y392168D01*
X512436Y392212D01*
X512500Y392253D01*
X512507Y392263D01*
X512515Y392269D01*
X512532Y392302D01*
X512580Y392374D01*
X513424Y394411D01*
X515417Y396404D01*
X516506Y396855D01*
X516507Y396856D01*
X516509Y396857D01*
X516629Y396938D01*
X518349Y398658D01*
X520261Y400569D01*
X522688Y401575D01*
X576184Y401575D01*
X576222Y401584D01*
X576260Y401582D01*
X576305Y401603D01*
X576353Y401614D01*
X576382Y401639D01*
X576417Y401655D01*
X576448Y401693D01*
X576486Y401724D01*
X576502Y401760D01*
X576526Y401789D01*
X576537Y401837D01*
X576557Y401883D01*
X576556Y401921D01*
X576564Y401959D01*
X576552Y402018D01*
X576551Y402056D01*
X576541Y402074D01*
X576535Y402101D01*
X575960Y403489D01*
X575960Y406009D01*
X576677Y407740D01*
X576678Y407742D01*
X576679Y407743D01*
X576706Y407886D01*
X576706Y415446D01*
X597125Y435865D01*
X601540Y435865D01*
X601565Y435871D01*
X601590Y435868D01*
X601648Y435890D01*
X601708Y435904D01*
X601728Y435921D01*
X601752Y435930D01*
X601794Y435975D01*
X601842Y436014D01*
X601853Y436038D01*
X601870Y436057D01*
X601888Y436116D01*
X601913Y436173D01*
X601912Y436198D01*
X601919Y436223D01*
X601909Y436284D01*
X601906Y436346D01*
X601894Y436368D01*
X601890Y436394D01*
X601841Y436465D01*
X601824Y436498D01*
X601815Y436504D01*
X601808Y436514D01*
X589870Y448452D01*
X589806Y448492D01*
X589744Y448536D01*
X589732Y448538D01*
X589723Y448543D01*
X589686Y448547D01*
X589602Y448563D01*
X544665Y448563D01*
X544663Y448563D01*
X544661Y448563D01*
X544519Y448534D01*
X542788Y447817D01*
X540467Y447817D01*
X540442Y447811D01*
X540417Y447814D01*
X540359Y447792D01*
X540299Y447778D01*
X540279Y447761D01*
X540255Y447752D01*
X540213Y447707D01*
X540165Y447668D01*
X540154Y447644D01*
X540137Y447625D01*
X540119Y447566D01*
X540094Y447509D01*
X540095Y447484D01*
X540088Y447459D01*
X540098Y447398D01*
X540101Y447336D01*
X540113Y447314D01*
X540117Y447288D01*
X540166Y447217D01*
X540183Y447184D01*
X540192Y447178D01*
X540199Y447168D01*
X540802Y446564D01*
X541519Y444833D01*
X541520Y444832D01*
X541521Y444830D01*
X541602Y444710D01*
X542970Y443342D01*
X546355Y439957D01*
X546355Y428333D01*
X546355Y428331D01*
X546355Y428329D01*
X546384Y428187D01*
X547101Y426456D01*
X547101Y423936D01*
X546136Y421608D01*
X544354Y419826D01*
X542026Y418861D01*
X539506Y418861D01*
X537178Y419826D01*
X535396Y421608D01*
X534431Y423936D01*
X534431Y426456D01*
X535148Y428187D01*
X535149Y428189D01*
X535150Y428190D01*
X535177Y428333D01*
X535177Y435170D01*
X535160Y435244D01*
X535147Y435318D01*
X535140Y435328D01*
X535138Y435338D01*
X535114Y435367D01*
X535066Y435438D01*
X533698Y436806D01*
X533697Y436807D01*
X533696Y436809D01*
X533575Y436889D01*
X531844Y437606D01*
X530062Y439388D01*
X529097Y441716D01*
X529097Y444236D01*
X530062Y446564D01*
X531411Y447914D01*
X531425Y447936D01*
X531445Y447952D01*
X531470Y448009D01*
X531503Y448061D01*
X531505Y448087D01*
X531516Y448111D01*
X531514Y448172D01*
X531519Y448234D01*
X531510Y448258D01*
X531509Y448284D01*
X531480Y448338D01*
X531458Y448396D01*
X531439Y448413D01*
X531427Y448436D01*
X531376Y448471D01*
X531331Y448513D01*
X531306Y448521D01*
X531285Y448536D01*
X531200Y448552D01*
X531165Y448563D01*
X531155Y448561D01*
X531143Y448563D01*
X515298Y448563D01*
X515224Y448546D01*
X515150Y448533D01*
X515139Y448526D01*
X515130Y448524D01*
X515101Y448500D01*
X515030Y448452D01*
X501000Y434422D01*
X497615Y431037D01*
X473935Y431037D01*
X467613Y437359D01*
X467613Y437892D01*
X467613Y437893D01*
X467613Y437895D01*
X467584Y438037D01*
X466747Y440058D01*
X466747Y442578D01*
X467712Y444906D01*
X469494Y446688D01*
X471822Y447653D01*
X474342Y447653D01*
X476670Y446688D01*
X478452Y444906D01*
X479426Y442556D01*
X479428Y442545D01*
X479430Y442494D01*
X479448Y442462D01*
X479456Y442426D01*
X479489Y442387D01*
X479513Y442342D01*
X479543Y442321D01*
X479566Y442293D01*
X479613Y442272D01*
X479655Y442242D01*
X479697Y442234D01*
X479725Y442222D01*
X479755Y442223D01*
X479797Y442215D01*
X492828Y442215D01*
X492902Y442232D01*
X492976Y442245D01*
X492987Y442252D01*
X492996Y442254D01*
X493025Y442278D01*
X493096Y442326D01*
X497009Y446239D01*
X497030Y446272D01*
X497058Y446298D01*
X497075Y446345D01*
X497101Y446386D01*
X497105Y446425D01*
X497118Y446461D01*
X497113Y446510D01*
X497117Y446559D01*
X497104Y446595D01*
X497100Y446633D01*
X497073Y446675D01*
X497056Y446721D01*
X497028Y446747D01*
X497007Y446779D01*
X496956Y446813D01*
X496929Y446838D01*
X496909Y446844D01*
X496886Y446859D01*
X496538Y447004D01*
X494756Y448786D01*
X493791Y451114D01*
X493791Y453634D01*
X494756Y455962D01*
X496538Y457744D01*
X498269Y458461D01*
X498270Y458462D01*
X498272Y458463D01*
X498392Y458544D01*
X502300Y462452D01*
X505685Y465837D01*
X528739Y465837D01*
X528741Y465837D01*
X528743Y465837D01*
X528885Y465866D01*
X530616Y466583D01*
X533136Y466583D01*
X535464Y465618D01*
X537246Y463836D01*
X538211Y461508D01*
X538211Y460204D01*
X538220Y460166D01*
X538218Y460128D01*
X538239Y460083D01*
X538250Y460035D01*
X538275Y460005D01*
X538291Y459970D01*
X538329Y459939D01*
X538360Y459901D01*
X538396Y459886D01*
X538425Y459861D01*
X538473Y459851D01*
X538519Y459830D01*
X538557Y459832D01*
X538595Y459823D01*
X538654Y459836D01*
X538692Y459837D01*
X538710Y459847D01*
X538736Y459852D01*
X540268Y460487D01*
X542788Y460487D01*
X544519Y459770D01*
X544521Y459769D01*
X544522Y459768D01*
X544665Y459741D01*
X594389Y459741D01*
X597774Y456356D01*
X611296Y442834D01*
X611360Y442794D01*
X611422Y442750D01*
X611434Y442748D01*
X611443Y442743D01*
X611480Y442739D01*
X611564Y442723D01*
X687489Y442723D01*
X687491Y442723D01*
X687493Y442723D01*
X687635Y442752D01*
X689366Y443469D01*
X691886Y443469D01*
X692639Y443157D01*
X692677Y443150D01*
X692713Y443135D01*
X692762Y443137D01*
X692810Y443129D01*
X692847Y443140D01*
X692886Y443141D01*
X692929Y443165D01*
X692976Y443179D01*
X693004Y443206D01*
X693038Y443224D01*
X693066Y443264D01*
X693102Y443298D01*
X693116Y443334D01*
X693138Y443366D01*
X693149Y443425D01*
X693162Y443461D01*
X693160Y443481D01*
X693165Y443508D01*
X693165Y477803D01*
X693148Y477877D01*
X693135Y477951D01*
X693128Y477961D01*
X693126Y477971D01*
X693102Y478000D01*
X693054Y478071D01*
X692876Y478250D01*
X691911Y480578D01*
X691911Y483098D01*
X692876Y485426D01*
X694658Y487208D01*
X696986Y488173D01*
X699506Y488173D01*
X701834Y487208D01*
X702177Y486865D01*
X702210Y486845D01*
X702237Y486817D01*
X702283Y486800D01*
X702325Y486774D01*
X702363Y486770D01*
X702399Y486757D01*
X702448Y486762D01*
X702497Y486757D01*
X702533Y486771D01*
X702571Y486775D01*
X702613Y486801D01*
X702659Y486819D01*
X702685Y486847D01*
X702718Y486868D01*
X702751Y486918D01*
X702768Y486937D01*
X704564Y488732D01*
X706892Y489697D01*
X709412Y489697D01*
X711740Y488732D01*
X713522Y486950D01*
X713560Y486859D01*
X713590Y486817D01*
X713611Y486771D01*
X713640Y486748D01*
X713661Y486718D01*
X713707Y486694D01*
X713746Y486662D01*
X713782Y486654D01*
X713814Y486636D01*
X713865Y486635D01*
X713915Y486624D01*
X713957Y486632D01*
X713988Y486631D01*
X714015Y486644D01*
X714057Y486653D01*
X715274Y487157D01*
X717794Y487157D01*
X720122Y486192D01*
X721904Y484410D01*
X722869Y482082D01*
X722869Y479562D01*
X721904Y477234D01*
X721726Y477055D01*
X721700Y477014D01*
X721693Y477008D01*
X721684Y476987D01*
X721642Y476929D01*
X721640Y476917D01*
X721635Y476908D01*
X721631Y476871D01*
X721631Y476870D01*
X721622Y476849D01*
X721623Y476827D01*
X721615Y476787D01*
X721615Y449666D01*
X721624Y449628D01*
X721622Y449590D01*
X721643Y449545D01*
X721654Y449497D01*
X721679Y449467D01*
X721695Y449432D01*
X721733Y449401D01*
X721764Y449363D01*
X721800Y449347D01*
X721829Y449323D01*
X721878Y449312D01*
X721923Y449292D01*
X721961Y449294D01*
X721999Y449285D01*
X722058Y449297D01*
X722096Y449299D01*
X722114Y449309D01*
X722123Y449311D01*
X724652Y449311D01*
X726980Y448346D01*
X728762Y446564D01*
X729727Y444236D01*
X729727Y441716D01*
X728762Y439388D01*
X728584Y439209D01*
X728544Y439145D01*
X728500Y439083D01*
X728498Y439071D01*
X728493Y439062D01*
X728489Y439025D01*
X728473Y438941D01*
X728473Y410689D01*
X728490Y410615D01*
X728503Y410541D01*
X728510Y410531D01*
X728512Y410521D01*
X728536Y410492D01*
X728584Y410421D01*
X728762Y410242D01*
X729727Y407914D01*
X729727Y406781D01*
X729738Y406731D01*
X729740Y406680D01*
X729758Y406648D01*
X729766Y406612D01*
X729799Y406573D01*
X729823Y406528D01*
X729853Y406507D01*
X729876Y406479D01*
X729923Y406458D01*
X729965Y406428D01*
X730007Y406420D01*
X730035Y406408D01*
X730065Y406409D01*
X730107Y406401D01*
X759533Y406401D01*
X765787Y400146D01*
X765852Y400106D01*
X765914Y400062D01*
X765926Y400060D01*
X765934Y400055D01*
X765971Y400051D01*
X766056Y400035D01*
X766308Y400035D01*
X768636Y399070D01*
X770238Y397469D01*
X770281Y397442D01*
X770319Y397407D01*
X770354Y397397D01*
X770385Y397377D01*
X770436Y397373D01*
X770485Y397358D01*
X770521Y397364D01*
X770558Y397361D01*
X770605Y397379D01*
X770655Y397388D01*
X770691Y397412D01*
X770719Y397423D01*
X770740Y397445D01*
X770776Y397469D01*
X775085Y401779D01*
X775092Y401790D01*
X775103Y401797D01*
X775138Y401863D01*
X775177Y401926D01*
X775178Y401939D01*
X775184Y401950D01*
X775186Y402024D01*
X775193Y402098D01*
X775189Y402110D01*
X775189Y402123D01*
X775158Y402191D01*
X775132Y402260D01*
X775122Y402269D01*
X775117Y402281D01*
X775059Y402327D01*
X775005Y402378D01*
X774992Y402382D01*
X774982Y402390D01*
X774910Y402406D01*
X774838Y402427D01*
X774826Y402425D01*
X774813Y402428D01*
X774671Y402399D01*
X774585Y402363D01*
X771767Y402363D01*
X769163Y403442D01*
X767170Y405435D01*
X766091Y408039D01*
X766091Y410857D01*
X766542Y411946D01*
X766543Y411948D01*
X766544Y411949D01*
X766571Y412092D01*
X766571Y423716D01*
X767577Y426143D01*
X780585Y439151D01*
X780612Y439194D01*
X780646Y439232D01*
X780657Y439267D01*
X780676Y439298D01*
X780681Y439349D01*
X780695Y439398D01*
X780689Y439434D01*
X780693Y439471D01*
X780674Y439518D01*
X780666Y439569D01*
X780642Y439604D01*
X780631Y439633D01*
X780608Y439654D01*
X780585Y439689D01*
X768085Y452189D01*
X767079Y454616D01*
X767079Y466240D01*
X767079Y466242D01*
X767079Y466244D01*
X767050Y466386D01*
X766599Y467475D01*
X766599Y470293D01*
X767678Y472897D01*
X769671Y474890D01*
X772275Y475969D01*
X775093Y475969D01*
X777697Y474890D01*
X779690Y472897D01*
X780769Y470293D01*
X780769Y467475D01*
X780318Y466386D01*
X780317Y466384D01*
X780316Y466383D01*
X780289Y466240D01*
X780289Y458823D01*
X780306Y458749D01*
X780319Y458675D01*
X780326Y458664D01*
X780328Y458655D01*
X780352Y458626D01*
X780400Y458554D01*
X792995Y445960D01*
X792996Y445959D01*
X792997Y445957D01*
X793118Y445877D01*
X794207Y445426D01*
X796200Y443433D01*
X797279Y440829D01*
X797279Y438011D01*
X796200Y435407D01*
X794207Y433414D01*
X793118Y432963D01*
X793117Y432962D01*
X793115Y432961D01*
X792995Y432880D01*
X779892Y419778D01*
X779852Y419713D01*
X779808Y419651D01*
X779806Y419639D01*
X779801Y419630D01*
X779797Y419593D01*
X779781Y419509D01*
X779781Y412092D01*
X779781Y412090D01*
X779781Y412088D01*
X779810Y411946D01*
X780261Y410857D01*
X780261Y408039D01*
X780225Y407953D01*
X780223Y407940D01*
X780216Y407929D01*
X780209Y407855D01*
X780197Y407782D01*
X780201Y407770D01*
X780200Y407757D01*
X780226Y407687D01*
X780248Y407616D01*
X780257Y407607D01*
X780261Y407595D01*
X780316Y407544D01*
X780367Y407490D01*
X780379Y407486D01*
X780388Y407477D01*
X780460Y407456D01*
X780529Y407430D01*
X780542Y407432D01*
X780555Y407428D01*
X780628Y407441D01*
X780702Y407448D01*
X780713Y407455D01*
X780725Y407458D01*
X780845Y407539D01*
X786819Y413513D01*
X807652Y413513D01*
X807690Y413522D01*
X807728Y413520D01*
X807773Y413541D01*
X807821Y413552D01*
X807851Y413577D01*
X807886Y413593D01*
X807917Y413631D01*
X807955Y413662D01*
X807971Y413698D01*
X807995Y413727D01*
X808006Y413775D01*
X808026Y413821D01*
X808024Y413859D01*
X808033Y413897D01*
X808021Y413956D01*
X808019Y413994D01*
X808009Y414012D01*
X808004Y414039D01*
X807481Y415300D01*
X807481Y417820D01*
X808446Y420148D01*
X810228Y421930D01*
X812556Y422895D01*
X812808Y422895D01*
X812882Y422912D01*
X812957Y422925D01*
X812967Y422932D01*
X812977Y422934D01*
X813006Y422958D01*
X813077Y423006D01*
X823551Y433481D01*
X823578Y433524D01*
X823613Y433561D01*
X823623Y433597D01*
X823643Y433628D01*
X823648Y433679D01*
X823662Y433728D01*
X823656Y433764D01*
X823659Y433800D01*
X823641Y433848D01*
X823632Y433898D01*
X823609Y433934D01*
X823598Y433962D01*
X823575Y433983D01*
X823551Y434018D01*
X822956Y434614D01*
X821991Y436942D01*
X821991Y439247D01*
X821974Y439321D01*
X821961Y439396D01*
X821954Y439406D01*
X821952Y439416D01*
X821928Y439445D01*
X821880Y439516D01*
X809497Y451899D01*
X809497Y468851D01*
X814736Y474090D01*
X814776Y474155D01*
X814820Y474217D01*
X814822Y474229D01*
X814827Y474237D01*
X814831Y474274D01*
X814847Y474359D01*
X814847Y474970D01*
X815812Y477298D01*
X817594Y479080D01*
X819922Y480045D01*
X822442Y480045D01*
X824770Y479080D01*
X826552Y477298D01*
X827517Y474970D01*
X827517Y472450D01*
X826552Y470122D01*
X825203Y468772D01*
X825189Y468750D01*
X825169Y468734D01*
X825144Y468677D01*
X825111Y468625D01*
X825109Y468599D01*
X825098Y468575D01*
X825100Y468514D01*
X825095Y468452D01*
X825104Y468428D01*
X825105Y468402D01*
X825134Y468348D01*
X825156Y468290D01*
X825175Y468273D01*
X825187Y468250D01*
X825238Y468215D01*
X825283Y468173D01*
X825308Y468165D01*
X825329Y468150D01*
X825414Y468134D01*
X825449Y468123D01*
X825459Y468125D01*
X825471Y468123D01*
X857379Y468123D01*
X857453Y468140D01*
X857528Y468153D01*
X857538Y468160D01*
X857548Y468162D01*
X857577Y468186D01*
X857648Y468234D01*
X876966Y487552D01*
X876976Y487568D01*
X876983Y487574D01*
X876992Y487594D01*
X877006Y487617D01*
X877050Y487679D01*
X877052Y487691D01*
X877057Y487699D01*
X877061Y487736D01*
X877077Y487821D01*
X877077Y488432D01*
X878042Y490760D01*
X879284Y492003D01*
X879311Y492046D01*
X879346Y492083D01*
X879356Y492119D01*
X879375Y492150D01*
X879380Y492201D01*
X879395Y492250D01*
X879388Y492286D01*
X879392Y492322D01*
X879374Y492370D01*
X879365Y492420D01*
X879341Y492456D01*
X879330Y492484D01*
X879308Y492505D01*
X879284Y492540D01*
X731602Y640222D01*
X731538Y640262D01*
X731476Y640306D01*
X731464Y640308D01*
X731455Y640313D01*
X731418Y640317D01*
X731334Y640333D01*
X711140Y640333D01*
X711138Y640333D01*
X711136Y640333D01*
X710994Y640304D01*
X708650Y639333D01*
X706130Y639333D01*
X703802Y640298D01*
X702020Y642080D01*
X701055Y644408D01*
X701055Y646928D01*
X701788Y648697D01*
X701794Y648735D01*
X701810Y648771D01*
X701808Y648820D01*
X701816Y648868D01*
X701805Y648905D01*
X701804Y648944D01*
X701780Y648987D01*
X701766Y649034D01*
X701739Y649062D01*
X701721Y649096D01*
X701680Y649124D01*
X701647Y649160D01*
X701611Y649173D01*
X701579Y649196D01*
X701520Y649207D01*
X701484Y649220D01*
X701463Y649218D01*
X701437Y649223D01*
X698081Y649223D01*
X698079Y649223D01*
X698077Y649223D01*
X697935Y649194D01*
X696204Y648477D01*
X693684Y648477D01*
X691356Y649442D01*
X689574Y651224D01*
X688609Y653552D01*
X688609Y656072D01*
X689574Y658400D01*
X691356Y660182D01*
X693684Y661147D01*
X696204Y661147D01*
X697935Y660430D01*
X697937Y660429D01*
X697938Y660428D01*
X698081Y660401D01*
X724222Y660401D01*
X724247Y660407D01*
X724272Y660404D01*
X724330Y660426D01*
X724390Y660440D01*
X724410Y660457D01*
X724434Y660466D01*
X724476Y660511D01*
X724524Y660550D01*
X724535Y660574D01*
X724552Y660593D01*
X724570Y660652D01*
X724595Y660709D01*
X724594Y660734D01*
X724601Y660759D01*
X724591Y660820D01*
X724588Y660882D01*
X724576Y660904D01*
X724572Y660930D01*
X724523Y661001D01*
X724506Y661034D01*
X724497Y661040D01*
X724490Y661050D01*
X721696Y663844D01*
X718311Y667229D01*
X718311Y679615D01*
X718311Y679617D01*
X718311Y679619D01*
X718282Y679761D01*
X717565Y681492D01*
X717565Y684012D01*
X718530Y686340D01*
X720312Y688122D01*
X722640Y689087D01*
X723251Y689087D01*
X723325Y689104D01*
X723400Y689117D01*
X723410Y689124D01*
X723420Y689126D01*
X723449Y689150D01*
X723520Y689198D01*
X732424Y698102D01*
X732464Y698167D01*
X732508Y698229D01*
X732510Y698241D01*
X732515Y698249D01*
X732519Y698286D01*
X732535Y698371D01*
X732535Y722089D01*
X742584Y732138D01*
X742624Y732203D01*
X742668Y732265D01*
X742670Y732277D01*
X742675Y732285D01*
X742679Y732322D01*
X742695Y732407D01*
X742695Y741948D01*
X749540Y748793D01*
X759220Y748793D01*
X766065Y741948D01*
X766065Y732268D01*
X759220Y725423D01*
X749679Y725423D01*
X749605Y725406D01*
X749530Y725393D01*
X749520Y725386D01*
X749510Y725384D01*
X749481Y725360D01*
X749410Y725312D01*
X742300Y718202D01*
X742260Y718137D01*
X742216Y718075D01*
X742214Y718063D01*
X742209Y718055D01*
X742205Y718018D01*
X742189Y717933D01*
X742189Y716959D01*
X742195Y716934D01*
X742192Y716909D01*
X742214Y716851D01*
X742228Y716791D01*
X742245Y716771D01*
X742254Y716747D01*
X742299Y716705D01*
X742338Y716657D01*
X742362Y716646D01*
X742381Y716629D01*
X742440Y716611D01*
X742497Y716586D01*
X742522Y716587D01*
X742547Y716580D01*
X742608Y716590D01*
X742670Y716593D01*
X742692Y716605D01*
X742718Y716609D01*
X742789Y716658D01*
X742822Y716675D01*
X742828Y716684D01*
X742838Y716691D01*
X749540Y723393D01*
X759220Y723393D01*
X766065Y716548D01*
X766065Y706868D01*
X759220Y700023D01*
X755521Y700023D01*
X755447Y700006D01*
X755372Y699993D01*
X755362Y699986D01*
X755352Y699984D01*
X755323Y699960D01*
X755252Y699912D01*
X734426Y679086D01*
X734386Y679021D01*
X734342Y678959D01*
X734340Y678947D01*
X734335Y678939D01*
X734331Y678902D01*
X734315Y678817D01*
X734315Y676527D01*
X734332Y676453D01*
X734345Y676378D01*
X734352Y676368D01*
X734354Y676358D01*
X734378Y676329D01*
X734426Y676258D01*
X868833Y541851D01*
X868887Y541818D01*
X868936Y541778D01*
X868959Y541773D01*
X868980Y541760D01*
X869043Y541754D01*
X869105Y541740D01*
X869131Y541745D01*
X869152Y541743D01*
X869188Y541757D01*
X869247Y541769D01*
X870468Y542275D01*
X872988Y542275D01*
X875316Y541310D01*
X877098Y539528D01*
X878063Y537200D01*
X878063Y535051D01*
X878074Y535001D01*
X878076Y534950D01*
X878094Y534918D01*
X878102Y534882D01*
X878135Y534843D01*
X878159Y534798D01*
X878189Y534777D01*
X878212Y534749D01*
X878259Y534728D01*
X878301Y534698D01*
X878343Y534690D01*
X878371Y534678D01*
X878401Y534679D01*
X878443Y534671D01*
X909993Y534671D01*
X909995Y534671D01*
X909997Y534671D01*
X910139Y534700D01*
X911870Y535417D01*
X914390Y535417D01*
X916718Y534452D01*
X918500Y532670D01*
X919465Y530342D01*
X919465Y527822D01*
X918500Y525494D01*
X916718Y523712D01*
X914390Y522747D01*
X911870Y522747D01*
X910139Y523464D01*
X910137Y523465D01*
X910136Y523466D01*
X909993Y523493D01*
X871660Y523493D01*
X871635Y523487D01*
X871610Y523490D01*
X871552Y523468D01*
X871492Y523454D01*
X871472Y523437D01*
X871448Y523428D01*
X871406Y523383D01*
X871358Y523344D01*
X871347Y523320D01*
X871330Y523301D01*
X871312Y523242D01*
X871287Y523185D01*
X871288Y523160D01*
X871281Y523135D01*
X871291Y523074D01*
X871294Y523012D01*
X871306Y522990D01*
X871310Y522964D01*
X871359Y522893D01*
X871376Y522860D01*
X871385Y522854D01*
X871392Y522844D01*
X898018Y496218D01*
X898040Y496204D01*
X898056Y496184D01*
X898113Y496159D01*
X898165Y496126D01*
X898191Y496124D01*
X898215Y496113D01*
X898276Y496115D01*
X898338Y496110D01*
X898362Y496119D01*
X898388Y496120D01*
X898442Y496149D01*
X898500Y496171D01*
X898517Y496190D01*
X898540Y496202D01*
X898575Y496253D01*
X898617Y496298D01*
X898625Y496323D01*
X898640Y496344D01*
X898656Y496429D01*
X898667Y496464D01*
X898665Y496474D01*
X898667Y496486D01*
X898667Y498846D01*
X899134Y499973D01*
X899144Y500036D01*
X899162Y500097D01*
X899158Y500120D01*
X899162Y500144D01*
X899144Y500205D01*
X899133Y500268D01*
X899118Y500290D01*
X899112Y500310D01*
X899086Y500337D01*
X899052Y500388D01*
X898362Y501078D01*
X897397Y503406D01*
X897397Y505926D01*
X898362Y508254D01*
X900144Y510036D01*
X902472Y511001D01*
X904992Y511001D01*
X907320Y510036D01*
X908991Y508366D01*
X909055Y508326D01*
X909117Y508282D01*
X909129Y508280D01*
X909138Y508275D01*
X909175Y508271D01*
X909259Y508255D01*
X923673Y508255D01*
X923747Y508272D01*
X923822Y508285D01*
X923832Y508292D01*
X923842Y508294D01*
X923871Y508318D01*
X923942Y508366D01*
X928766Y513190D01*
X928806Y513255D01*
X928850Y513317D01*
X928852Y513329D01*
X928857Y513337D01*
X928861Y513374D01*
X928877Y513459D01*
X928877Y518031D01*
X928868Y518068D01*
X928870Y518107D01*
X928849Y518152D01*
X928838Y518200D01*
X928813Y518229D01*
X928797Y518264D01*
X928759Y518295D01*
X928728Y518333D01*
X928692Y518349D01*
X928663Y518373D01*
X928614Y518384D01*
X928569Y518404D01*
X928531Y518403D01*
X928493Y518411D01*
X928434Y518399D01*
X928396Y518398D01*
X928378Y518388D01*
X928351Y518382D01*
X927852Y518175D01*
X925332Y518175D01*
X923004Y519140D01*
X921222Y520922D01*
X920257Y523250D01*
X920257Y525770D01*
X921222Y528098D01*
X923004Y529880D01*
X925332Y530845D01*
X925703Y530845D01*
X925753Y530856D01*
X925804Y530858D01*
X925836Y530876D01*
X925872Y530884D01*
X925911Y530917D01*
X925956Y530941D01*
X925977Y530971D01*
X926005Y530994D01*
X926026Y531041D01*
X926056Y531083D01*
X926064Y531125D01*
X926076Y531153D01*
X926075Y531183D01*
X926083Y531225D01*
X926083Y548015D01*
X934779Y556711D01*
X934806Y556755D01*
X934841Y556792D01*
X934851Y556827D01*
X934870Y556858D01*
X934875Y556909D01*
X934890Y556958D01*
X934883Y556994D01*
X934887Y557031D01*
X934869Y557079D01*
X934860Y557129D01*
X934836Y557164D01*
X934825Y557193D01*
X934803Y557214D01*
X934779Y557249D01*
X929385Y562643D01*
X929385Y581881D01*
X967882Y620378D01*
X967922Y620443D01*
X967966Y620505D01*
X967968Y620517D01*
X967973Y620525D01*
X967977Y620562D01*
X967993Y620647D01*
X967993Y625985D01*
X967976Y626059D01*
X967963Y626134D01*
X967956Y626144D01*
X967954Y626154D01*
X967930Y626183D01*
X967882Y626254D01*
X961788Y632348D01*
X961723Y632388D01*
X961661Y632432D01*
X961649Y632434D01*
X961641Y632439D01*
X961604Y632443D01*
X961519Y632459D01*
X953295Y632459D01*
X945717Y640037D01*
X945715Y640038D01*
X945714Y640039D01*
X945594Y640119D01*
X943324Y641060D01*
X941542Y642842D01*
X940577Y645170D01*
X940577Y647690D01*
X940610Y647770D01*
X940616Y647805D01*
X940622Y647817D01*
X940621Y647827D01*
X940636Y647868D01*
X940633Y647905D01*
X940639Y647941D01*
X940624Y647990D01*
X940618Y648041D01*
X940599Y648072D01*
X940588Y648107D01*
X940553Y648144D01*
X940526Y648187D01*
X940490Y648211D01*
X940469Y648233D01*
X940440Y648243D01*
X940405Y648267D01*
X940022Y648426D01*
X938240Y650208D01*
X937275Y652536D01*
X937275Y655056D01*
X938240Y657384D01*
X940022Y659166D01*
X942350Y660131D01*
X944870Y660131D01*
X947198Y659166D01*
X948980Y657384D01*
X949639Y655793D01*
X949676Y655742D01*
X949707Y655686D01*
X949726Y655672D01*
X949740Y655653D01*
X949797Y655623D01*
X949848Y655586D01*
X949875Y655581D01*
X949893Y655571D01*
X949931Y655570D01*
X949991Y655559D01*
X950693Y655559D01*
X960726Y645526D01*
X960791Y645486D01*
X960853Y645442D01*
X960865Y645440D01*
X960873Y645435D01*
X960910Y645431D01*
X960995Y645415D01*
X961799Y645415D01*
X961861Y645429D01*
X961924Y645436D01*
X961945Y645449D01*
X961968Y645454D01*
X962017Y645495D01*
X962071Y645529D01*
X962085Y645551D01*
X962102Y645564D01*
X962117Y645599D01*
X962151Y645649D01*
X962570Y646663D01*
X964352Y648445D01*
X964727Y648600D01*
X964778Y648637D01*
X964834Y648667D01*
X964848Y648687D01*
X964867Y648701D01*
X964897Y648757D01*
X964934Y648809D01*
X964939Y648836D01*
X964949Y648854D01*
X964950Y648892D01*
X964961Y648951D01*
X964961Y650992D01*
X965926Y653320D01*
X967708Y655102D01*
X970036Y656067D01*
X972556Y656067D01*
X974629Y655208D01*
X974679Y655200D01*
X974727Y655182D01*
X974763Y655186D01*
X974800Y655180D01*
X974848Y655195D01*
X974899Y655200D01*
X974930Y655220D01*
X974965Y655231D01*
X975002Y655266D01*
X975046Y655293D01*
X975069Y655329D01*
X975091Y655350D01*
X975102Y655378D01*
X975126Y655414D01*
X975324Y655892D01*
X976014Y656582D01*
X976047Y656636D01*
X976087Y656686D01*
X976092Y656709D01*
X976105Y656730D01*
X976111Y656793D01*
X976125Y656855D01*
X976120Y656881D01*
X976122Y656902D01*
X976108Y656937D01*
X976096Y656997D01*
X975629Y658124D01*
X975629Y660644D01*
X976594Y662972D01*
X978376Y664754D01*
X980704Y665719D01*
X983224Y665719D01*
X985552Y664754D01*
X987334Y662972D01*
X987542Y662472D01*
X987564Y662441D01*
X987578Y662405D01*
X987614Y662371D01*
X987643Y662331D01*
X987677Y662313D01*
X987705Y662287D01*
X987752Y662273D01*
X987796Y662250D01*
X987834Y662249D01*
X987871Y662238D01*
X987920Y662246D01*
X987969Y662245D01*
X988004Y662261D01*
X988042Y662267D01*
X988092Y662301D01*
X988126Y662317D01*
X988139Y662333D01*
X988162Y662348D01*
X989806Y663992D01*
X992134Y664957D01*
X994654Y664957D01*
X996702Y664108D01*
X996765Y664098D01*
X996826Y664080D01*
X996849Y664084D01*
X996873Y664080D01*
X996934Y664099D01*
X996996Y664110D01*
X997019Y664125D01*
X997039Y664131D01*
X997066Y664157D01*
X997116Y664191D01*
X997172Y664246D01*
X999500Y665211D01*
X1002020Y665211D01*
X1004348Y664246D01*
X1004555Y664040D01*
X1004598Y664013D01*
X1004636Y663978D01*
X1004671Y663968D01*
X1004702Y663948D01*
X1004753Y663943D01*
X1004802Y663929D01*
X1004838Y663935D01*
X1004875Y663932D01*
X1004922Y663950D01*
X1004973Y663958D01*
X1005008Y663982D01*
X1005037Y663993D01*
X1005057Y664016D01*
X1005093Y664040D01*
X1005300Y664246D01*
X1007628Y665211D01*
X1010148Y665211D01*
X1012476Y664246D01*
X1013318Y663405D01*
X1013361Y663378D01*
X1013399Y663343D01*
X1013434Y663333D01*
X1013465Y663313D01*
X1013516Y663308D01*
X1013565Y663294D01*
X1013601Y663300D01*
X1013638Y663297D01*
X1013685Y663315D01*
X1013736Y663323D01*
X1013771Y663347D01*
X1013800Y663358D01*
X1013821Y663381D01*
X1013856Y663405D01*
X1014190Y663738D01*
X1016518Y664703D01*
X1019038Y664703D01*
X1021366Y663738D01*
X1021881Y663224D01*
X1021892Y663217D01*
X1021899Y663206D01*
X1021965Y663172D01*
X1022028Y663132D01*
X1022041Y663131D01*
X1022052Y663125D01*
X1022127Y663123D01*
X1022200Y663116D01*
X1022213Y663120D01*
X1022226Y663120D01*
X1022293Y663151D01*
X1022362Y663178D01*
X1022371Y663187D01*
X1022383Y663192D01*
X1022430Y663250D01*
X1022480Y663305D01*
X1022484Y663317D01*
X1022492Y663327D01*
X1022508Y663399D01*
X1022529Y663471D01*
X1022527Y663484D01*
X1022530Y663496D01*
X1022501Y663638D01*
X1022365Y663966D01*
X1022365Y666486D01*
X1023330Y668814D01*
X1025112Y670596D01*
X1027440Y671561D01*
X1029960Y671561D01*
X1032288Y670596D01*
X1034070Y668814D01*
X1034902Y666806D01*
X1034925Y666775D01*
X1034938Y666739D01*
X1034975Y666705D01*
X1035003Y666665D01*
X1035037Y666647D01*
X1035065Y666621D01*
X1035113Y666607D01*
X1035156Y666584D01*
X1035195Y666583D01*
X1035232Y666572D01*
X1035280Y666580D01*
X1035329Y666579D01*
X1035364Y666595D01*
X1035402Y666601D01*
X1035453Y666635D01*
X1035487Y666651D01*
X1035500Y666667D01*
X1035522Y666682D01*
X1037494Y668654D01*
X1037534Y668719D01*
X1037578Y668781D01*
X1037580Y668793D01*
X1037585Y668801D01*
X1037589Y668838D01*
X1037605Y668923D01*
X1037605Y669534D01*
X1038570Y671862D01*
X1040352Y673644D01*
X1042680Y674609D01*
X1045200Y674609D01*
X1047528Y673644D01*
X1049310Y671862D01*
X1050275Y669534D01*
X1050275Y667014D01*
X1049310Y664686D01*
X1047528Y662904D01*
X1047506Y662894D01*
X1047495Y662887D01*
X1047482Y662884D01*
X1047425Y662837D01*
X1047365Y662793D01*
X1047359Y662782D01*
X1047349Y662774D01*
X1047318Y662706D01*
X1047284Y662640D01*
X1047283Y662627D01*
X1047278Y662615D01*
X1047281Y662541D01*
X1047279Y662467D01*
X1047284Y662455D01*
X1047284Y662442D01*
X1047320Y662377D01*
X1047351Y662310D01*
X1047361Y662302D01*
X1047367Y662290D01*
X1047428Y662247D01*
X1047486Y662201D01*
X1047498Y662198D01*
X1047509Y662190D01*
X1047651Y662163D01*
X1048502Y662163D01*
X1049843Y661607D01*
X1049845Y661607D01*
X1049846Y661606D01*
X1049873Y661601D01*
X1049891Y661591D01*
X1049930Y661590D01*
X1049988Y661578D01*
X1049989Y661578D01*
X1050001Y661581D01*
X1050014Y661579D01*
X1050039Y661587D01*
X1050065Y661586D01*
X1050111Y661607D01*
X1050157Y661618D01*
X1050167Y661626D01*
X1050180Y661630D01*
X1050199Y661647D01*
X1050222Y661658D01*
X1050254Y661697D01*
X1050291Y661728D01*
X1050296Y661739D01*
X1050306Y661749D01*
X1050315Y661773D01*
X1050331Y661793D01*
X1050342Y661842D01*
X1050362Y661886D01*
X1050361Y661899D01*
X1050366Y661911D01*
X1050363Y661937D01*
X1050369Y661962D01*
X1050357Y662022D01*
X1050355Y662059D01*
X1050349Y662071D01*
X1050348Y662084D01*
X1050342Y662092D01*
X1050340Y662104D01*
X1050305Y662188D01*
X1050305Y664708D01*
X1051270Y667036D01*
X1053052Y668818D01*
X1055380Y669783D01*
X1057900Y669783D01*
X1060228Y668818D01*
X1062010Y667036D01*
X1062292Y666356D01*
X1062314Y666325D01*
X1062328Y666289D01*
X1062364Y666256D01*
X1062393Y666215D01*
X1062427Y666197D01*
X1062455Y666171D01*
X1062503Y666157D01*
X1062546Y666134D01*
X1062584Y666133D01*
X1062621Y666122D01*
X1062670Y666131D01*
X1062719Y666129D01*
X1062754Y666145D01*
X1062792Y666152D01*
X1062842Y666186D01*
X1062877Y666202D01*
X1062890Y666218D01*
X1062912Y666233D01*
X1063720Y667040D01*
X1065815Y667908D01*
X1065857Y667938D01*
X1065903Y667959D01*
X1065926Y667988D01*
X1065956Y668009D01*
X1065980Y668055D01*
X1066012Y668094D01*
X1066020Y668130D01*
X1066037Y668162D01*
X1066039Y668213D01*
X1066050Y668263D01*
X1066042Y668305D01*
X1066042Y668336D01*
X1066030Y668363D01*
X1066021Y668405D01*
X1065545Y669554D01*
X1065545Y672074D01*
X1066510Y674402D01*
X1068292Y676184D01*
X1070620Y677149D01*
X1073140Y677149D01*
X1075468Y676184D01*
X1076973Y674679D01*
X1077027Y674646D01*
X1077077Y674606D01*
X1077100Y674601D01*
X1077121Y674588D01*
X1077184Y674582D01*
X1077246Y674568D01*
X1077272Y674573D01*
X1077293Y674571D01*
X1077328Y674585D01*
X1077388Y674597D01*
X1079027Y675276D01*
X1079078Y675313D01*
X1079134Y675343D01*
X1079148Y675363D01*
X1079167Y675377D01*
X1079197Y675433D01*
X1079234Y675485D01*
X1079239Y675511D01*
X1079249Y675530D01*
X1079250Y675565D01*
X1079254Y675575D01*
X1079254Y675589D01*
X1079261Y675627D01*
X1079261Y676900D01*
X1080226Y679228D01*
X1082008Y681010D01*
X1084336Y681975D01*
X1086856Y681975D01*
X1089184Y681010D01*
X1090966Y679228D01*
X1091931Y676900D01*
X1091931Y674380D01*
X1090966Y672052D01*
X1090534Y671619D01*
X1090494Y671555D01*
X1090450Y671493D01*
X1090448Y671481D01*
X1090443Y671472D01*
X1090439Y671435D01*
X1090423Y671351D01*
X1090423Y636395D01*
X1090429Y636370D01*
X1090426Y636344D01*
X1090448Y636286D01*
X1090462Y636226D01*
X1090479Y636206D01*
X1090488Y636182D01*
X1090533Y636140D01*
X1090572Y636092D01*
X1090596Y636082D01*
X1090615Y636064D01*
X1090674Y636047D01*
X1090731Y636021D01*
X1090756Y636022D01*
X1090781Y636015D01*
X1090842Y636026D01*
X1090904Y636028D01*
X1090926Y636040D01*
X1090952Y636045D01*
X1091023Y636093D01*
X1091056Y636111D01*
X1091062Y636119D01*
X1091072Y636126D01*
X1094628Y639682D01*
X1094668Y639747D01*
X1094712Y639809D01*
X1094714Y639821D01*
X1094719Y639829D01*
X1094723Y639866D01*
X1094739Y639951D01*
X1094739Y671351D01*
X1094722Y671425D01*
X1094709Y671499D01*
X1094702Y671510D01*
X1094700Y671519D01*
X1094676Y671548D01*
X1094628Y671619D01*
X1094196Y672052D01*
X1093231Y674380D01*
X1093231Y676900D01*
X1094196Y679228D01*
X1095978Y681010D01*
X1098306Y681975D01*
X1100826Y681975D01*
X1102768Y681170D01*
X1102818Y681162D01*
X1102866Y681145D01*
X1102902Y681148D01*
X1102939Y681142D01*
X1102987Y681157D01*
X1103038Y681163D01*
X1103069Y681182D01*
X1103104Y681193D01*
X1103141Y681228D01*
X1103184Y681255D01*
X1103208Y681291D01*
X1103230Y681312D01*
X1103241Y681341D01*
X1103264Y681376D01*
X1103848Y682784D01*
X1105630Y684566D01*
X1107958Y685531D01*
X1110478Y685531D01*
X1112806Y684566D01*
X1113775Y683598D01*
X1113818Y683571D01*
X1113856Y683536D01*
X1113891Y683526D01*
X1113922Y683506D01*
X1113973Y683501D01*
X1114022Y683487D01*
X1114058Y683493D01*
X1114095Y683490D01*
X1114142Y683508D01*
X1114193Y683516D01*
X1114228Y683540D01*
X1114257Y683551D01*
X1114278Y683574D01*
X1114313Y683598D01*
X1116044Y685328D01*
X1118372Y686293D01*
X1120892Y686293D01*
X1123220Y685328D01*
X1124620Y683929D01*
X1124674Y683895D01*
X1124723Y683855D01*
X1124747Y683850D01*
X1124767Y683837D01*
X1124831Y683831D01*
X1124893Y683817D01*
X1124919Y683823D01*
X1124940Y683821D01*
X1124975Y683834D01*
X1125035Y683846D01*
X1127262Y684769D01*
X1129782Y684769D01*
X1132110Y683804D01*
X1133510Y682405D01*
X1133564Y682371D01*
X1133613Y682331D01*
X1133637Y682326D01*
X1133657Y682313D01*
X1133721Y682307D01*
X1133783Y682293D01*
X1133809Y682299D01*
X1133830Y682297D01*
X1133865Y682310D01*
X1133925Y682322D01*
X1136152Y683245D01*
X1138672Y683245D01*
X1139821Y682769D01*
X1139871Y682761D01*
X1139919Y682743D01*
X1139955Y682747D01*
X1139992Y682741D01*
X1140041Y682756D01*
X1140091Y682761D01*
X1140122Y682781D01*
X1140157Y682791D01*
X1140195Y682826D01*
X1140238Y682854D01*
X1140261Y682889D01*
X1140283Y682910D01*
X1140294Y682939D01*
X1140318Y682975D01*
X1141186Y685070D01*
X1142968Y686852D01*
X1145296Y687817D01*
X1147816Y687817D01*
X1150144Y686852D01*
X1151926Y685070D01*
X1152891Y682742D01*
X1152891Y680222D01*
X1151926Y677894D01*
X1151494Y677461D01*
X1151454Y677397D01*
X1151410Y677335D01*
X1151408Y677323D01*
X1151403Y677314D01*
X1151399Y677277D01*
X1151394Y677251D01*
X1151390Y677241D01*
X1151390Y677231D01*
X1151383Y677193D01*
X1151383Y646463D01*
X1076294Y571374D01*
X1076254Y571309D01*
X1076210Y571247D01*
X1076208Y571235D01*
X1076203Y571227D01*
X1076199Y571190D01*
X1076193Y571159D01*
X1076190Y571151D01*
X1076190Y571143D01*
X1076183Y571105D01*
X1076183Y570494D01*
X1075218Y568166D01*
X1073436Y566384D01*
X1071108Y565419D01*
X1068588Y565419D01*
X1066260Y566384D01*
X1064478Y568166D01*
X1063722Y569989D01*
X1063715Y570000D01*
X1063712Y570013D01*
X1063665Y570070D01*
X1063621Y570130D01*
X1063610Y570136D01*
X1063602Y570146D01*
X1063534Y570177D01*
X1063468Y570211D01*
X1063455Y570212D01*
X1063443Y570217D01*
X1063369Y570214D01*
X1063295Y570216D01*
X1063283Y570211D01*
X1063270Y570211D01*
X1063205Y570175D01*
X1063138Y570144D01*
X1063129Y570134D01*
X1063118Y570128D01*
X1063076Y570067D01*
X1063029Y570009D01*
X1063026Y569997D01*
X1063018Y569986D01*
X1062991Y569844D01*
X1062991Y556485D01*
X1063008Y556411D01*
X1063021Y556337D01*
X1063028Y556327D01*
X1063030Y556317D01*
X1063054Y556288D01*
X1063102Y556217D01*
X1064804Y554514D01*
X1065769Y552186D01*
X1065769Y549666D01*
X1064804Y547338D01*
X1063022Y545556D01*
X1060694Y544591D01*
X1059561Y544591D01*
X1059511Y544580D01*
X1059460Y544578D01*
X1059428Y544560D01*
X1059392Y544552D01*
X1059353Y544519D01*
X1059308Y544495D01*
X1059287Y544465D01*
X1059259Y544442D01*
X1059238Y544395D01*
X1059208Y544353D01*
X1059200Y544311D01*
X1059188Y544283D01*
X1059189Y544253D01*
X1059181Y544211D01*
X1059181Y528037D01*
X1059198Y527963D01*
X1059211Y527889D01*
X1059218Y527879D01*
X1059220Y527869D01*
X1059244Y527840D01*
X1059292Y527769D01*
X1060867Y526193D01*
X1061832Y523865D01*
X1061832Y521345D01*
X1060867Y519017D01*
X1059848Y517998D01*
X1059821Y517954D01*
X1059787Y517917D01*
X1059776Y517882D01*
X1059757Y517850D01*
X1059752Y517800D01*
X1059737Y517751D01*
X1059744Y517714D01*
X1059740Y517678D01*
X1059758Y517630D01*
X1059767Y517580D01*
X1059791Y517545D01*
X1059802Y517516D01*
X1059824Y517495D01*
X1059848Y517460D01*
X1062946Y514362D01*
X1062947Y514361D01*
X1062948Y514360D01*
X1063069Y514280D01*
X1064038Y513878D01*
X1065820Y512096D01*
X1066785Y509768D01*
X1066785Y507248D01*
X1065820Y504920D01*
X1065182Y504282D01*
X1065155Y504238D01*
X1065121Y504201D01*
X1065110Y504166D01*
X1065091Y504134D01*
X1065086Y504084D01*
X1065071Y504035D01*
X1065078Y503998D01*
X1065074Y503962D01*
X1065092Y503914D01*
X1065101Y503864D01*
X1065125Y503829D01*
X1065136Y503800D01*
X1065158Y503779D01*
X1065182Y503744D01*
X1065402Y503524D01*
X1065467Y503484D01*
X1065529Y503440D01*
X1065541Y503438D01*
X1065549Y503433D01*
X1065586Y503429D01*
X1065671Y503413D01*
X1065774Y503413D01*
X1068102Y502448D01*
X1069884Y500666D01*
X1070849Y498338D01*
X1070849Y495818D01*
X1069884Y493490D01*
X1069789Y493394D01*
X1069776Y493373D01*
X1069758Y493358D01*
X1069757Y493358D01*
X1069755Y493356D01*
X1069730Y493299D01*
X1069697Y493247D01*
X1069695Y493221D01*
X1069684Y493197D01*
X1069686Y493136D01*
X1069681Y493074D01*
X1069690Y493050D01*
X1069691Y493024D01*
X1069720Y492970D01*
X1069742Y492912D01*
X1069761Y492895D01*
X1069773Y492872D01*
X1069824Y492837D01*
X1069869Y492795D01*
X1069894Y492787D01*
X1069915Y492772D01*
X1070000Y492756D01*
X1070035Y492745D01*
X1070045Y492747D01*
X1070057Y492745D01*
X1070092Y492745D01*
X1072420Y491780D01*
X1074202Y489998D01*
X1074958Y488175D01*
X1074965Y488164D01*
X1074968Y488151D01*
X1075015Y488094D01*
X1075059Y488034D01*
X1075070Y488028D01*
X1075078Y488018D01*
X1075146Y487987D01*
X1075212Y487953D01*
X1075225Y487952D01*
X1075237Y487947D01*
X1075311Y487950D01*
X1075385Y487948D01*
X1075397Y487953D01*
X1075410Y487953D01*
X1075475Y487989D01*
X1075542Y488020D01*
X1075551Y488030D01*
X1075562Y488036D01*
X1075604Y488097D01*
X1075651Y488155D01*
X1075654Y488167D01*
X1075662Y488178D01*
X1075689Y488320D01*
X1075689Y540795D01*
X1075672Y540869D01*
X1075659Y540943D01*
X1075652Y540953D01*
X1075650Y540963D01*
X1075626Y540992D01*
X1075578Y541063D01*
X1075146Y541496D01*
X1074181Y543824D01*
X1074181Y546344D01*
X1075146Y548672D01*
X1076928Y550454D01*
X1079256Y551419D01*
X1081776Y551419D01*
X1084104Y550454D01*
X1085886Y548672D01*
X1086851Y546344D01*
X1086851Y543824D01*
X1085886Y541496D01*
X1085454Y541063D01*
X1085414Y540999D01*
X1085370Y540937D01*
X1085368Y540925D01*
X1085363Y540916D01*
X1085359Y540879D01*
X1085343Y540795D01*
X1085343Y474759D01*
X1032860Y422276D01*
X1032850Y422259D01*
X1032840Y422252D01*
X1032829Y422226D01*
X1032820Y422211D01*
X1032776Y422149D01*
X1032774Y422137D01*
X1032769Y422129D01*
X1032765Y422092D01*
X1032749Y422007D01*
X1032749Y421396D01*
X1031784Y419068D01*
X1030002Y417286D01*
X1027674Y416321D01*
X1025154Y416321D01*
X1022826Y417286D01*
X1021044Y419068D01*
X1020079Y421396D01*
X1020079Y423916D01*
X1021044Y426244D01*
X1022826Y428026D01*
X1024364Y428664D01*
X1024385Y428679D01*
X1024410Y428686D01*
X1024455Y428729D01*
X1024505Y428765D01*
X1024517Y428788D01*
X1024536Y428805D01*
X1024558Y428863D01*
X1024587Y428918D01*
X1024587Y428943D01*
X1024596Y428968D01*
X1024590Y429029D01*
X1024592Y429091D01*
X1024581Y429114D01*
X1024578Y429140D01*
X1024545Y429192D01*
X1024519Y429248D01*
X1024499Y429265D01*
X1024485Y429286D01*
X1024413Y429334D01*
X1024385Y429357D01*
X1024375Y429360D01*
X1024364Y429366D01*
X1024096Y429478D01*
X1022314Y431260D01*
X1021349Y433588D01*
X1021349Y436108D01*
X1022314Y438436D01*
X1024096Y440218D01*
X1026424Y441183D01*
X1027797Y441183D01*
X1027871Y441200D01*
X1027946Y441213D01*
X1027956Y441220D01*
X1027966Y441222D01*
X1027995Y441246D01*
X1028066Y441294D01*
X1039256Y452484D01*
X1039296Y452549D01*
X1039340Y452611D01*
X1039342Y452623D01*
X1039347Y452631D01*
X1039351Y452668D01*
X1039367Y452753D01*
X1039367Y478311D01*
X1039355Y478363D01*
X1039354Y478399D01*
X1039345Y478415D01*
X1039337Y478459D01*
X1039330Y478469D01*
X1039328Y478479D01*
X1039304Y478508D01*
X1039256Y478579D01*
X1038824Y479012D01*
X1037859Y481340D01*
X1037859Y483860D01*
X1038824Y486188D01*
X1040606Y487970D01*
X1042934Y488935D01*
X1045454Y488935D01*
X1047782Y487970D01*
X1049564Y486188D01*
X1050529Y483860D01*
X1050529Y481340D01*
X1049564Y479012D01*
X1049132Y478579D01*
X1049103Y478532D01*
X1049099Y478529D01*
X1049094Y478517D01*
X1049092Y478515D01*
X1049048Y478453D01*
X1049046Y478441D01*
X1049041Y478432D01*
X1049037Y478395D01*
X1049036Y478389D01*
X1049028Y478370D01*
X1049028Y478350D01*
X1049021Y478311D01*
X1049021Y453007D01*
X1049027Y452982D01*
X1049024Y452956D01*
X1049046Y452898D01*
X1049060Y452838D01*
X1049077Y452818D01*
X1049086Y452794D01*
X1049131Y452752D01*
X1049170Y452704D01*
X1049194Y452694D01*
X1049213Y452676D01*
X1049272Y452659D01*
X1049329Y452633D01*
X1049354Y452634D01*
X1049379Y452627D01*
X1049440Y452638D01*
X1049502Y452640D01*
X1049524Y452652D01*
X1049550Y452657D01*
X1049621Y452705D01*
X1049654Y452723D01*
X1049660Y452731D01*
X1049670Y452738D01*
X1075578Y478646D01*
X1075618Y478711D01*
X1075662Y478773D01*
X1075664Y478785D01*
X1075669Y478793D01*
X1075673Y478830D01*
X1075689Y478915D01*
X1075689Y484500D01*
X1075686Y484512D01*
X1075688Y484525D01*
X1075667Y484596D01*
X1075650Y484669D01*
X1075642Y484679D01*
X1075638Y484691D01*
X1075587Y484745D01*
X1075540Y484802D01*
X1075528Y484808D01*
X1075519Y484817D01*
X1075449Y484843D01*
X1075381Y484873D01*
X1075369Y484873D01*
X1075356Y484877D01*
X1075282Y484869D01*
X1075208Y484867D01*
X1075197Y484860D01*
X1075184Y484859D01*
X1075121Y484819D01*
X1075056Y484784D01*
X1075049Y484773D01*
X1075038Y484766D01*
X1074958Y484645D01*
X1074202Y482822D01*
X1072420Y481040D01*
X1070092Y480075D01*
X1067572Y480075D01*
X1065244Y481040D01*
X1063462Y482822D01*
X1062497Y485150D01*
X1062497Y485253D01*
X1062480Y485327D01*
X1062467Y485402D01*
X1062460Y485412D01*
X1062458Y485422D01*
X1062434Y485451D01*
X1062386Y485522D01*
X1021079Y526829D01*
X1021079Y558689D01*
X1021068Y558739D01*
X1021066Y558790D01*
X1021048Y558822D01*
X1021040Y558858D01*
X1021007Y558897D01*
X1020983Y558942D01*
X1020953Y558963D01*
X1020930Y558991D01*
X1020883Y559012D01*
X1020841Y559042D01*
X1020799Y559050D01*
X1020771Y559062D01*
X1020741Y559061D01*
X1020699Y559069D01*
X1020328Y559069D01*
X1018000Y560034D01*
X1017567Y560466D01*
X1017503Y560506D01*
X1017441Y560550D01*
X1017429Y560552D01*
X1017420Y560557D01*
X1017383Y560561D01*
X1017299Y560577D01*
X1016541Y560577D01*
X1010411Y566707D01*
X1010411Y570119D01*
X1010400Y570169D01*
X1010398Y570220D01*
X1010380Y570252D01*
X1010372Y570288D01*
X1010339Y570327D01*
X1010315Y570372D01*
X1010285Y570393D01*
X1010262Y570421D01*
X1010215Y570442D01*
X1010173Y570472D01*
X1010131Y570480D01*
X1010103Y570492D01*
X1010073Y570491D01*
X1010031Y570499D01*
X1009777Y570499D01*
X1009727Y570488D01*
X1009676Y570486D01*
X1009644Y570468D01*
X1009608Y570460D01*
X1009569Y570427D01*
X1009524Y570403D01*
X1009503Y570373D01*
X1009475Y570350D01*
X1009454Y570303D01*
X1009424Y570261D01*
X1009416Y570219D01*
X1009404Y570191D01*
X1009405Y570161D01*
X1009397Y570119D01*
X1009397Y554007D01*
X1006458Y551068D01*
X993488Y538098D01*
X993474Y538076D01*
X993454Y538060D01*
X993429Y538003D01*
X993397Y537951D01*
X993394Y537925D01*
X993383Y537901D01*
X993386Y537840D01*
X993380Y537778D01*
X993389Y537754D01*
X993390Y537728D01*
X993420Y537674D01*
X993442Y537616D01*
X993461Y537599D01*
X993473Y537576D01*
X993523Y537541D01*
X993569Y537499D01*
X993593Y537491D01*
X993615Y537476D01*
X993699Y537460D01*
X993735Y537449D01*
X993745Y537451D01*
X993757Y537449D01*
X993892Y537449D01*
X995581Y536749D01*
X995643Y536739D01*
X995704Y536721D01*
X995728Y536725D01*
X995752Y536721D01*
X995812Y536740D01*
X995875Y536751D01*
X995897Y536766D01*
X995917Y536772D01*
X995945Y536798D01*
X995995Y536832D01*
X996156Y536992D01*
X998484Y537957D01*
X1001004Y537957D01*
X1003332Y536992D01*
X1005114Y535210D01*
X1006079Y532882D01*
X1006079Y530362D01*
X1005114Y528034D01*
X1003332Y526252D01*
X1001004Y525287D01*
X1000393Y525287D01*
X1000319Y525270D01*
X1000244Y525257D01*
X1000234Y525250D01*
X1000224Y525248D01*
X1000195Y525224D01*
X1000124Y525176D01*
X969868Y494920D01*
X969851Y494893D01*
X969835Y494879D01*
X969817Y494839D01*
X969784Y494793D01*
X969782Y494781D01*
X969777Y494773D01*
X969774Y494744D01*
X969764Y494721D01*
X969765Y494693D01*
X969757Y494651D01*
X969757Y480031D01*
X969774Y479957D01*
X969787Y479883D01*
X969794Y479873D01*
X969796Y479863D01*
X969820Y479834D01*
X969868Y479763D01*
X970300Y479330D01*
X971265Y477002D01*
X971265Y474482D01*
X970300Y472154D01*
X968518Y470372D01*
X966190Y469407D01*
X963670Y469407D01*
X961342Y470372D01*
X959560Y472154D01*
X958595Y474482D01*
X958595Y475377D01*
X958584Y475427D01*
X958582Y475478D01*
X958564Y475510D01*
X958556Y475546D01*
X958523Y475585D01*
X958499Y475630D01*
X958469Y475651D01*
X958446Y475679D01*
X958399Y475700D01*
X958357Y475730D01*
X958315Y475738D01*
X958287Y475750D01*
X958257Y475749D01*
X958215Y475757D01*
X956828Y475757D01*
X954479Y476730D01*
X954429Y476738D01*
X954381Y476756D01*
X954344Y476752D01*
X954308Y476758D01*
X954259Y476743D01*
X954209Y476738D01*
X954178Y476718D01*
X954142Y476708D01*
X954105Y476673D01*
X954062Y476645D01*
X954039Y476610D01*
X954016Y476589D01*
X954006Y476560D01*
X953982Y476524D01*
X953171Y474567D01*
X951389Y472785D01*
X949061Y471820D01*
X946541Y471820D01*
X944213Y472785D01*
X943445Y473553D01*
X943401Y473580D01*
X943364Y473614D01*
X943329Y473625D01*
X943297Y473644D01*
X943247Y473649D01*
X943198Y473664D01*
X943161Y473657D01*
X943125Y473661D01*
X943077Y473643D01*
X943027Y473634D01*
X942992Y473610D01*
X942963Y473599D01*
X942942Y473577D01*
X942907Y473553D01*
X942446Y473092D01*
X940118Y472128D01*
X940044Y472128D01*
X940019Y472122D01*
X939993Y472124D01*
X939936Y472102D01*
X939875Y472088D01*
X939855Y472072D01*
X939831Y472063D01*
X939789Y472017D01*
X939742Y471978D01*
X939731Y471954D01*
X939714Y471935D01*
X939696Y471876D01*
X939671Y471820D01*
X939672Y471794D01*
X939664Y471769D01*
X939675Y471708D01*
X939677Y471647D01*
X939690Y471624D01*
X939694Y471599D01*
X939742Y471527D01*
X939760Y471494D01*
X939768Y471489D01*
X939775Y471478D01*
X960584Y450670D01*
X960585Y450669D01*
X960586Y450667D01*
X960707Y450587D01*
X962438Y449870D01*
X964220Y448088D01*
X965185Y445760D01*
X965185Y443240D01*
X964220Y440912D01*
X962438Y439130D01*
X960794Y438449D01*
X960743Y438412D01*
X960687Y438381D01*
X960673Y438362D01*
X960653Y438348D01*
X960623Y438291D01*
X960587Y438240D01*
X960582Y438213D01*
X960572Y438195D01*
X960571Y438157D01*
X960559Y438097D01*
X960559Y437599D01*
X959595Y435270D01*
X957813Y433488D01*
X955485Y432524D01*
X952965Y432524D01*
X950636Y433488D01*
X948854Y435270D01*
X948137Y437001D01*
X948136Y437003D01*
X948136Y437005D01*
X948084Y437081D01*
X948072Y437104D01*
X948067Y437108D01*
X948055Y437125D01*
X934847Y450333D01*
X934836Y450339D01*
X934828Y450350D01*
X934763Y450385D01*
X934700Y450424D01*
X934687Y450425D01*
X934675Y450431D01*
X934601Y450434D01*
X934527Y450441D01*
X934515Y450436D01*
X934502Y450436D01*
X934435Y450405D01*
X934365Y450379D01*
X934357Y450369D01*
X934345Y450364D01*
X934298Y450306D01*
X934248Y450252D01*
X934244Y450239D01*
X934236Y450229D01*
X934220Y450157D01*
X934199Y450086D01*
X934201Y450073D01*
X934198Y450060D01*
X934227Y449918D01*
X935213Y447538D01*
X935213Y445018D01*
X934248Y442690D01*
X933816Y442257D01*
X933776Y442193D01*
X933732Y442131D01*
X933730Y442119D01*
X933725Y442110D01*
X933721Y442073D01*
X933705Y441989D01*
X933705Y421165D01*
X931768Y419228D01*
X931759Y419213D01*
X931754Y419210D01*
X931749Y419197D01*
X931728Y419163D01*
X931684Y419101D01*
X931682Y419089D01*
X931677Y419081D01*
X931673Y419044D01*
X931657Y418959D01*
X931657Y418348D01*
X930692Y416020D01*
X928910Y414238D01*
X926582Y413273D01*
X925855Y413273D01*
X925805Y413262D01*
X925754Y413260D01*
X925722Y413242D01*
X925686Y413234D01*
X925647Y413201D01*
X925602Y413177D01*
X925581Y413147D01*
X925552Y413124D01*
X925532Y413077D01*
X925502Y413035D01*
X925494Y412993D01*
X925482Y412965D01*
X925483Y412935D01*
X925475Y412893D01*
X925475Y407092D01*
X922370Y403988D01*
X922330Y403923D01*
X922286Y403861D01*
X922284Y403849D01*
X922279Y403841D01*
X922275Y403804D01*
X922259Y403719D01*
X922259Y403108D01*
X921294Y400780D01*
X919512Y398998D01*
X917184Y398033D01*
X914664Y398033D01*
X912336Y398998D01*
X911952Y399382D01*
X911908Y399409D01*
X911871Y399443D01*
X911836Y399454D01*
X911804Y399473D01*
X911754Y399478D01*
X911705Y399493D01*
X911668Y399486D01*
X911632Y399490D01*
X911584Y399472D01*
X911534Y399463D01*
X911499Y399439D01*
X911470Y399428D01*
X911449Y399406D01*
X911414Y399382D01*
X906774Y394742D01*
X906734Y394677D01*
X906690Y394615D01*
X906688Y394603D01*
X906683Y394595D01*
X906679Y394558D01*
X906663Y394473D01*
X906663Y393558D01*
X905698Y391230D01*
X903916Y389448D01*
X901588Y388483D01*
X900811Y388483D01*
X900761Y388472D01*
X900710Y388470D01*
X900678Y388452D01*
X900642Y388444D01*
X900603Y388411D01*
X900558Y388387D01*
X900537Y388357D01*
X900509Y388334D01*
X900488Y388287D01*
X900458Y388245D01*
X900450Y388204D01*
X900438Y388176D01*
X900439Y388145D01*
X900431Y388103D01*
X900431Y383292D01*
X900445Y383230D01*
X900452Y383167D01*
X900465Y383147D01*
X900470Y383123D01*
X900511Y383074D01*
X900545Y383021D01*
X900567Y383006D01*
X900580Y382990D01*
X900615Y382974D01*
X900665Y382941D01*
X900970Y382814D01*
X902752Y381032D01*
X903717Y378704D01*
X903717Y376184D01*
X902752Y373856D01*
X900970Y372074D01*
X898642Y371109D01*
X896122Y371109D01*
X893794Y372074D01*
X892012Y373856D01*
X891047Y376184D01*
X891047Y376795D01*
X891035Y376849D01*
X891034Y376872D01*
X891027Y376883D01*
X891017Y376944D01*
X891010Y376954D01*
X891008Y376964D01*
X890984Y376993D01*
X890936Y377064D01*
X890777Y377223D01*
X890777Y398296D01*
X890771Y398321D01*
X890774Y398347D01*
X890752Y398405D01*
X890738Y398465D01*
X890721Y398485D01*
X890712Y398509D01*
X890667Y398551D01*
X890628Y398598D01*
X890604Y398609D01*
X890585Y398627D01*
X890526Y398644D01*
X890469Y398669D01*
X890444Y398668D01*
X890419Y398676D01*
X890358Y398665D01*
X890296Y398663D01*
X890274Y398650D01*
X890248Y398646D01*
X890177Y398598D01*
X890144Y398580D01*
X890138Y398572D01*
X890128Y398565D01*
X857362Y365799D01*
X857322Y365734D01*
X857278Y365672D01*
X857276Y365660D01*
X857271Y365652D01*
X857267Y365615D01*
X857251Y365530D01*
X857251Y363953D01*
X857268Y363879D01*
X857281Y363805D01*
X857288Y363795D01*
X857290Y363785D01*
X857314Y363756D01*
X857362Y363685D01*
X857540Y363506D01*
X858505Y361178D01*
X858505Y358658D01*
X857540Y356330D01*
X855758Y354548D01*
X853430Y353583D01*
X850910Y353583D01*
X849962Y353976D01*
X849900Y353986D01*
X849839Y354004D01*
X849815Y354000D01*
X849791Y354004D01*
X849731Y353985D01*
X849668Y353974D01*
X849646Y353959D01*
X849626Y353953D01*
X849598Y353927D01*
X849548Y353893D01*
X848646Y352992D01*
X846318Y352027D01*
X843798Y352027D01*
X842573Y352535D01*
X842510Y352545D01*
X842449Y352563D01*
X842425Y352559D01*
X842402Y352563D01*
X842341Y352544D01*
X842278Y352533D01*
X842256Y352518D01*
X842236Y352512D01*
X842209Y352486D01*
X842158Y352452D01*
X841243Y351537D01*
X838915Y350573D01*
X836395Y350573D01*
X834350Y351420D01*
X834287Y351430D01*
X834226Y351448D01*
X834202Y351444D01*
X834179Y351448D01*
X834118Y351429D01*
X834055Y351418D01*
X834033Y351403D01*
X834013Y351397D01*
X833986Y351371D01*
X833935Y351337D01*
X833879Y351281D01*
X831551Y350317D01*
X829031Y350317D01*
G37*
%LPD*%
%LPC*%
G36*
X688096Y587009D02*
X688096Y587009D01*
X686365Y587726D01*
X686363Y587727D01*
X686362Y587728D01*
X686275Y587744D01*
X686198Y587795D01*
X685768Y587974D01*
X683986Y589756D01*
X683807Y590186D01*
X683806Y590187D01*
X683806Y590189D01*
X683725Y590309D01*
X683005Y591029D01*
X683005Y632020D01*
X682988Y632094D01*
X682975Y632168D01*
X682968Y632178D01*
X682966Y632188D01*
X682942Y632217D01*
X682894Y632288D01*
X661288Y653894D01*
X661266Y653908D01*
X661250Y653928D01*
X661193Y653953D01*
X661141Y653986D01*
X661115Y653988D01*
X661091Y653999D01*
X661030Y653997D01*
X660968Y654002D01*
X660944Y653993D01*
X660918Y653992D01*
X660864Y653963D01*
X660806Y653941D01*
X660789Y653922D01*
X660766Y653910D01*
X660731Y653859D01*
X660689Y653814D01*
X660681Y653789D01*
X660666Y653768D01*
X660650Y653683D01*
X660639Y653648D01*
X660641Y653638D01*
X660639Y653626D01*
X660639Y653552D01*
X659674Y651224D01*
X659595Y651144D01*
X659568Y651101D01*
X659533Y651063D01*
X659523Y651028D01*
X659503Y650997D01*
X659498Y650946D01*
X659484Y650897D01*
X659490Y650861D01*
X659487Y650824D01*
X659505Y650777D01*
X659513Y650726D01*
X659537Y650691D01*
X659548Y650662D01*
X659571Y650641D01*
X659595Y650606D01*
X660436Y649764D01*
X661401Y647436D01*
X661401Y644916D01*
X660436Y642588D01*
X658654Y640806D01*
X656326Y639841D01*
X653806Y639841D01*
X652075Y640558D01*
X652073Y640559D01*
X652072Y640560D01*
X651929Y640587D01*
X644623Y640587D01*
X603503Y681707D01*
X603503Y696282D01*
X603486Y696356D01*
X603473Y696430D01*
X603466Y696440D01*
X603464Y696450D01*
X603440Y696479D01*
X603392Y696550D01*
X565908Y734034D01*
X565854Y734068D01*
X565805Y734108D01*
X565781Y734113D01*
X565761Y734126D01*
X565698Y734132D01*
X565636Y734146D01*
X565609Y734140D01*
X565589Y734142D01*
X565553Y734129D01*
X565494Y734117D01*
X565394Y734075D01*
X562874Y734075D01*
X560546Y735040D01*
X558764Y736822D01*
X557799Y739150D01*
X557799Y741670D01*
X558764Y743998D01*
X560546Y745780D01*
X561765Y746285D01*
X561796Y746308D01*
X561832Y746321D01*
X561865Y746357D01*
X561905Y746386D01*
X561923Y746420D01*
X561950Y746448D01*
X561964Y746496D01*
X561987Y746539D01*
X561988Y746578D01*
X561999Y746615D01*
X561990Y746663D01*
X561992Y746712D01*
X561976Y746747D01*
X561969Y746785D01*
X561935Y746836D01*
X561919Y746870D01*
X561903Y746883D01*
X561888Y746905D01*
X561558Y747236D01*
X560593Y749564D01*
X560593Y752084D01*
X561558Y754412D01*
X563340Y756194D01*
X565668Y757159D01*
X568188Y757159D01*
X570516Y756194D01*
X572298Y754412D01*
X573015Y752681D01*
X573016Y752680D01*
X573017Y752678D01*
X573073Y752595D01*
X573078Y752586D01*
X573080Y752584D01*
X573098Y752558D01*
X617646Y708010D01*
X621031Y704625D01*
X621031Y689542D01*
X621048Y689468D01*
X621061Y689394D01*
X621068Y689384D01*
X621070Y689374D01*
X621094Y689345D01*
X621142Y689274D01*
X649904Y660512D01*
X649968Y660472D01*
X650030Y660428D01*
X650042Y660426D01*
X650051Y660421D01*
X650088Y660417D01*
X650172Y660401D01*
X651167Y660401D01*
X651169Y660401D01*
X651171Y660401D01*
X651313Y660430D01*
X653044Y661147D01*
X653118Y661147D01*
X653143Y661153D01*
X653168Y661150D01*
X653226Y661172D01*
X653286Y661186D01*
X653306Y661203D01*
X653330Y661212D01*
X653372Y661257D01*
X653420Y661296D01*
X653431Y661320D01*
X653448Y661339D01*
X653466Y661398D01*
X653491Y661455D01*
X653490Y661480D01*
X653497Y661505D01*
X653487Y661566D01*
X653484Y661628D01*
X653472Y661650D01*
X653468Y661676D01*
X653419Y661747D01*
X653402Y661780D01*
X653393Y661786D01*
X653386Y661796D01*
X645921Y669261D01*
X645921Y679615D01*
X645921Y679617D01*
X645921Y679619D01*
X645892Y679761D01*
X645175Y681492D01*
X645175Y684012D01*
X646140Y686340D01*
X647922Y688122D01*
X650250Y689087D01*
X652770Y689087D01*
X655098Y688122D01*
X656880Y686340D01*
X657845Y684012D01*
X657845Y681492D01*
X657128Y679761D01*
X657127Y679759D01*
X657126Y679758D01*
X657099Y679615D01*
X657099Y674048D01*
X657116Y673974D01*
X657129Y673900D01*
X657136Y673890D01*
X657138Y673880D01*
X657162Y673851D01*
X657210Y673780D01*
X694183Y636807D01*
X694183Y597633D01*
X694200Y597559D01*
X694213Y597485D01*
X694220Y597475D01*
X694222Y597465D01*
X694246Y597436D01*
X694294Y597365D01*
X694726Y596932D01*
X695691Y594604D01*
X695691Y592084D01*
X694726Y589756D01*
X692944Y587974D01*
X690616Y587009D01*
X688096Y587009D01*
G37*
%LPD*%
%LPC*%
G36*
X876183Y335168D02*
X876183Y335168D01*
X873855Y336133D01*
X872073Y337915D01*
X871108Y340243D01*
X871108Y342763D01*
X872073Y345091D01*
X873855Y346873D01*
X876183Y347838D01*
X878703Y347838D01*
X880434Y347121D01*
X880436Y347120D01*
X880437Y347119D01*
X880580Y347092D01*
X991557Y347092D01*
X991631Y347109D01*
X991705Y347122D01*
X991715Y347129D01*
X991725Y347131D01*
X991754Y347155D01*
X991825Y347203D01*
X999162Y354540D01*
X999163Y354541D01*
X999165Y354542D01*
X999245Y354663D01*
X999962Y356394D01*
X1001744Y358176D01*
X1003475Y358893D01*
X1003476Y358894D01*
X1003478Y358895D01*
X1003598Y358976D01*
X1026048Y381426D01*
X1026088Y381490D01*
X1026132Y381552D01*
X1026134Y381564D01*
X1026139Y381573D01*
X1026143Y381610D01*
X1026147Y381629D01*
X1026152Y381642D01*
X1026152Y381656D01*
X1026159Y381694D01*
X1026159Y382299D01*
X1027313Y383452D01*
X1027314Y383454D01*
X1027315Y383455D01*
X1027391Y383570D01*
X1029176Y385354D01*
X1029296Y385435D01*
X1029433Y385573D01*
X1029627Y385573D01*
X1029629Y385573D01*
X1029631Y385573D01*
X1029773Y385602D01*
X1031504Y386319D01*
X1034024Y386319D01*
X1036352Y385354D01*
X1038134Y383572D01*
X1039099Y381244D01*
X1039099Y378724D01*
X1038134Y376396D01*
X1036352Y374614D01*
X1034188Y373717D01*
X1034186Y373716D01*
X1034184Y373716D01*
X1034064Y373635D01*
X1033952Y373522D01*
X1011502Y351072D01*
X1011501Y351071D01*
X1011499Y351070D01*
X1011419Y350949D01*
X1010702Y349218D01*
X1008920Y347436D01*
X1007189Y346719D01*
X1007188Y346718D01*
X1007186Y346717D01*
X1007066Y346636D01*
X996344Y335914D01*
X880580Y335914D01*
X880578Y335914D01*
X880576Y335914D01*
X880434Y335885D01*
X878703Y335168D01*
X876183Y335168D01*
G37*
%LPD*%
%LPC*%
G36*
X477222Y530097D02*
X477222Y530097D01*
X474795Y531103D01*
X472937Y532961D01*
X471931Y535388D01*
X471931Y586515D01*
X471925Y586540D01*
X471928Y586565D01*
X471906Y586623D01*
X471892Y586683D01*
X471875Y586703D01*
X471866Y586727D01*
X471821Y586769D01*
X471782Y586817D01*
X471758Y586828D01*
X471739Y586845D01*
X471680Y586863D01*
X471623Y586888D01*
X471598Y586887D01*
X471573Y586894D01*
X471512Y586884D01*
X471450Y586881D01*
X471428Y586869D01*
X471402Y586865D01*
X471331Y586816D01*
X471298Y586799D01*
X471292Y586790D01*
X471282Y586783D01*
X470440Y585942D01*
X468112Y584977D01*
X465592Y584977D01*
X463861Y585694D01*
X463859Y585695D01*
X463858Y585696D01*
X463715Y585723D01*
X450431Y585723D01*
X450429Y585723D01*
X450427Y585723D01*
X450285Y585694D01*
X448554Y584977D01*
X446034Y584977D01*
X443706Y585942D01*
X441924Y587724D01*
X440959Y590052D01*
X440959Y592572D01*
X441924Y594900D01*
X443706Y596682D01*
X446034Y597647D01*
X448554Y597647D01*
X450285Y596930D01*
X450287Y596929D01*
X450288Y596928D01*
X450431Y596901D01*
X463715Y596901D01*
X463717Y596901D01*
X463719Y596901D01*
X463861Y596930D01*
X465592Y597647D01*
X468112Y597647D01*
X470440Y596682D01*
X471282Y595841D01*
X471304Y595827D01*
X471320Y595807D01*
X471377Y595782D01*
X471429Y595749D01*
X471455Y595747D01*
X471479Y595736D01*
X471540Y595738D01*
X471602Y595733D01*
X471626Y595742D01*
X471652Y595743D01*
X471706Y595772D01*
X471764Y595794D01*
X471781Y595813D01*
X471804Y595825D01*
X471839Y595876D01*
X471881Y595921D01*
X471889Y595946D01*
X471904Y595967D01*
X471920Y596052D01*
X471931Y596087D01*
X471929Y596097D01*
X471931Y596109D01*
X471931Y620169D01*
X471918Y620226D01*
X471918Y620232D01*
X471916Y620236D01*
X471914Y620243D01*
X471901Y620317D01*
X471894Y620328D01*
X471892Y620337D01*
X471868Y620366D01*
X471820Y620438D01*
X468111Y624147D01*
X467105Y626574D01*
X467105Y629202D01*
X468111Y631629D01*
X469969Y633487D01*
X472396Y634493D01*
X475024Y634493D01*
X477451Y633487D01*
X484135Y626803D01*
X485141Y624376D01*
X485141Y585656D01*
X485147Y585631D01*
X485144Y585606D01*
X485166Y585548D01*
X485180Y585488D01*
X485197Y585468D01*
X485206Y585444D01*
X485251Y585402D01*
X485290Y585354D01*
X485314Y585343D01*
X485333Y585326D01*
X485392Y585308D01*
X485449Y585283D01*
X485474Y585284D01*
X485499Y585277D01*
X485560Y585287D01*
X485622Y585290D01*
X485644Y585302D01*
X485670Y585306D01*
X485741Y585355D01*
X485774Y585372D01*
X485780Y585381D01*
X485790Y585388D01*
X492686Y592284D01*
X492687Y592285D01*
X492689Y592286D01*
X492769Y592407D01*
X493486Y594138D01*
X495268Y595920D01*
X497596Y596885D01*
X500116Y596885D01*
X502444Y595920D01*
X504226Y594138D01*
X505191Y591810D01*
X505191Y589290D01*
X504226Y586962D01*
X502444Y585180D01*
X500713Y584463D01*
X500712Y584462D01*
X500710Y584461D01*
X500590Y584380D01*
X494126Y577916D01*
X494086Y577852D01*
X494042Y577790D01*
X494040Y577778D01*
X494035Y577769D01*
X494031Y577732D01*
X494015Y577648D01*
X494015Y576590D01*
X493050Y574262D01*
X491268Y572480D01*
X488940Y571515D01*
X486420Y571515D01*
X485667Y571827D01*
X485629Y571834D01*
X485593Y571849D01*
X485544Y571847D01*
X485496Y571855D01*
X485459Y571844D01*
X485420Y571843D01*
X485377Y571819D01*
X485330Y571805D01*
X485302Y571778D01*
X485268Y571760D01*
X485240Y571720D01*
X485204Y571686D01*
X485190Y571650D01*
X485168Y571618D01*
X485157Y571559D01*
X485144Y571523D01*
X485146Y571503D01*
X485141Y571476D01*
X485141Y535388D01*
X484135Y532961D01*
X482277Y531103D01*
X479850Y530097D01*
X477222Y530097D01*
G37*
%LPD*%
%LPC*%
G36*
X276852Y705519D02*
X276852Y705519D01*
X270457Y707233D01*
X264723Y710543D01*
X260041Y715225D01*
X256731Y720959D01*
X256618Y721378D01*
X255017Y727354D01*
X255017Y733974D01*
X256731Y740369D01*
X260041Y746103D01*
X264723Y750785D01*
X270457Y754095D01*
X276852Y755809D01*
X283472Y755809D01*
X289867Y754095D01*
X295601Y750785D01*
X300283Y746103D01*
X303593Y740369D01*
X304253Y737908D01*
X305307Y733974D01*
X305307Y727354D01*
X303593Y720959D01*
X300283Y715225D01*
X295601Y710543D01*
X289867Y707233D01*
X283472Y705519D01*
X276852Y705519D01*
G37*
%LPD*%
%LPC*%
G36*
X187927Y557021D02*
X187927Y557021D01*
X181766Y559574D01*
X177050Y564290D01*
X174497Y570451D01*
X174497Y602521D01*
X177050Y608682D01*
X181766Y613398D01*
X187927Y615951D01*
X194597Y615951D01*
X200758Y613398D01*
X205474Y608682D01*
X208027Y602521D01*
X208027Y570451D01*
X205474Y564290D01*
X200758Y559574D01*
X194597Y557021D01*
X187927Y557021D01*
G37*
%LPD*%
%LPC*%
G36*
X238727Y557021D02*
X238727Y557021D01*
X232566Y559574D01*
X227850Y564290D01*
X225297Y570451D01*
X225297Y602521D01*
X227850Y608682D01*
X232566Y613398D01*
X238727Y615951D01*
X245397Y615951D01*
X251558Y613398D01*
X256274Y608682D01*
X258827Y602521D01*
X258827Y570451D01*
X256274Y564290D01*
X251558Y559574D01*
X245397Y557021D01*
X238727Y557021D01*
G37*
%LPD*%
%LPC*%
G36*
X30447Y557021D02*
X30447Y557021D01*
X24286Y559574D01*
X19570Y564290D01*
X17017Y570451D01*
X17017Y602521D01*
X19570Y608682D01*
X24286Y613398D01*
X30447Y615951D01*
X37117Y615951D01*
X43278Y613398D01*
X47994Y608682D01*
X50547Y602521D01*
X50547Y570451D01*
X47994Y564290D01*
X43278Y559574D01*
X37117Y557021D01*
X30447Y557021D01*
G37*
%LPD*%
%LPC*%
G36*
X81247Y557021D02*
X81247Y557021D01*
X75086Y559574D01*
X70370Y564290D01*
X67817Y570451D01*
X67817Y602521D01*
X70370Y608682D01*
X75086Y613398D01*
X81247Y615951D01*
X87917Y615951D01*
X94078Y613398D01*
X98794Y608682D01*
X101347Y602521D01*
X101347Y570451D01*
X98794Y564290D01*
X94078Y559574D01*
X87917Y557021D01*
X81247Y557021D01*
G37*
%LPD*%
%LPC*%
G36*
X321066Y663209D02*
X321066Y663209D01*
X318738Y664174D01*
X316956Y665956D01*
X315991Y668284D01*
X315991Y670804D01*
X316708Y672535D01*
X316709Y672537D01*
X316710Y672538D01*
X316737Y672681D01*
X316737Y673383D01*
X333981Y690627D01*
X400626Y690627D01*
X400700Y690644D01*
X400774Y690657D01*
X400784Y690664D01*
X400794Y690666D01*
X400823Y690690D01*
X400894Y690738D01*
X410692Y700536D01*
X410726Y700590D01*
X410766Y700639D01*
X410771Y700663D01*
X410784Y700683D01*
X410790Y700746D01*
X410804Y700808D01*
X410798Y700835D01*
X410800Y700856D01*
X410787Y700891D01*
X410775Y700950D01*
X409701Y703542D01*
X409701Y708190D01*
X411480Y712485D01*
X414767Y715772D01*
X419062Y717551D01*
X423710Y717551D01*
X428005Y715772D01*
X431292Y712485D01*
X433071Y708190D01*
X433071Y703542D01*
X431292Y699247D01*
X428005Y695960D01*
X423710Y694181D01*
X420302Y694181D01*
X420228Y694164D01*
X420154Y694151D01*
X420144Y694144D01*
X420134Y694142D01*
X420105Y694118D01*
X420034Y694070D01*
X405413Y679449D01*
X338768Y679449D01*
X338694Y679432D01*
X338620Y679419D01*
X338610Y679412D01*
X338600Y679410D01*
X338571Y679386D01*
X338500Y679338D01*
X328772Y669610D01*
X328732Y669546D01*
X328688Y669484D01*
X328686Y669472D01*
X328681Y669463D01*
X328677Y669426D01*
X328661Y669342D01*
X328661Y668284D01*
X327696Y665956D01*
X325914Y664174D01*
X323586Y663209D01*
X321066Y663209D01*
G37*
%LPD*%
%LPC*%
G36*
X200894Y807977D02*
X200894Y807977D01*
X195027Y810408D01*
X190536Y814899D01*
X188105Y820766D01*
X188105Y850918D01*
X190536Y856785D01*
X195027Y861276D01*
X200894Y863707D01*
X207246Y863707D01*
X213113Y861276D01*
X217604Y856785D01*
X220035Y850918D01*
X220035Y820766D01*
X217604Y814899D01*
X213113Y810408D01*
X207246Y807977D01*
X200894Y807977D01*
G37*
%LPD*%
%LPC*%
G36*
X353541Y772921D02*
X353541Y772921D01*
X345512Y776247D01*
X339367Y782392D01*
X336041Y790421D01*
X336041Y799111D01*
X339367Y807140D01*
X345512Y813285D01*
X353541Y816611D01*
X362231Y816611D01*
X370260Y813285D01*
X376405Y807140D01*
X379731Y799111D01*
X379731Y790421D01*
X376405Y782392D01*
X370260Y776247D01*
X362231Y772921D01*
X353541Y772921D01*
G37*
%LPD*%
%LPC*%
G36*
X467841Y772921D02*
X467841Y772921D01*
X459812Y776247D01*
X453667Y782392D01*
X450341Y790421D01*
X450341Y799111D01*
X453667Y807140D01*
X459812Y813285D01*
X467841Y816611D01*
X476531Y816611D01*
X484560Y813285D01*
X490705Y807140D01*
X494031Y799111D01*
X494031Y790421D01*
X490705Y782392D01*
X484560Y776247D01*
X476531Y772921D01*
X467841Y772921D01*
G37*
%LPD*%
%LPC*%
G36*
X200660Y364141D02*
X200660Y364141D01*
X198279Y366522D01*
X198279Y389890D01*
X199027Y390637D01*
X199054Y390680D01*
X199088Y390718D01*
X199099Y390753D01*
X199118Y390784D01*
X199123Y390835D01*
X199137Y390884D01*
X199131Y390920D01*
X199135Y390957D01*
X199117Y391004D01*
X199108Y391055D01*
X199084Y391090D01*
X199073Y391119D01*
X199051Y391140D01*
X199027Y391175D01*
X198279Y391922D01*
X198279Y415290D01*
X200660Y417671D01*
X224028Y417671D01*
X226409Y415290D01*
X226409Y391922D01*
X225661Y391175D01*
X225634Y391132D01*
X225600Y391094D01*
X225589Y391059D01*
X225570Y391028D01*
X225565Y390977D01*
X225551Y390928D01*
X225557Y390892D01*
X225553Y390855D01*
X225571Y390808D01*
X225580Y390757D01*
X225604Y390722D01*
X225615Y390693D01*
X225637Y390672D01*
X225661Y390637D01*
X226409Y389890D01*
X226409Y366522D01*
X224028Y364141D01*
X200660Y364141D01*
G37*
%LPD*%
%LPC*%
G36*
X15240Y364141D02*
X15240Y364141D01*
X12859Y366522D01*
X12859Y389890D01*
X13607Y390637D01*
X13634Y390680D01*
X13668Y390718D01*
X13679Y390753D01*
X13698Y390784D01*
X13703Y390835D01*
X13717Y390884D01*
X13711Y390920D01*
X13715Y390957D01*
X13697Y391004D01*
X13688Y391055D01*
X13664Y391090D01*
X13653Y391119D01*
X13631Y391140D01*
X13607Y391175D01*
X12859Y391922D01*
X12859Y415290D01*
X15240Y417671D01*
X38608Y417671D01*
X40989Y415290D01*
X40989Y391922D01*
X40241Y391175D01*
X40214Y391132D01*
X40180Y391094D01*
X40169Y391059D01*
X40150Y391028D01*
X40145Y390977D01*
X40131Y390928D01*
X40137Y390892D01*
X40133Y390855D01*
X40151Y390808D01*
X40160Y390757D01*
X40184Y390722D01*
X40195Y390693D01*
X40217Y390672D01*
X40241Y390637D01*
X40989Y389890D01*
X40989Y366522D01*
X38608Y364141D01*
X15240Y364141D01*
G37*
%LPD*%
%LPC*%
G36*
X23211Y820953D02*
X23211Y820953D01*
X15285Y824236D01*
X9218Y830303D01*
X5935Y838229D01*
X5935Y846807D01*
X9218Y854733D01*
X15285Y860800D01*
X23211Y864083D01*
X31789Y864083D01*
X39715Y860800D01*
X45782Y854733D01*
X49065Y846807D01*
X49065Y838229D01*
X45782Y830303D01*
X39715Y824236D01*
X31789Y820953D01*
X23211Y820953D01*
G37*
%LPD*%
%LPC*%
G36*
X1198079Y820953D02*
X1198079Y820953D01*
X1190153Y824236D01*
X1184086Y830303D01*
X1180803Y838229D01*
X1180803Y846807D01*
X1184086Y854733D01*
X1190153Y860800D01*
X1198079Y864083D01*
X1206657Y864083D01*
X1214583Y860800D01*
X1220650Y854733D01*
X1223933Y846807D01*
X1223933Y838229D01*
X1220650Y830303D01*
X1214583Y824236D01*
X1206657Y820953D01*
X1198079Y820953D01*
G37*
%LPD*%
%LPC*%
G36*
X1198079Y5867D02*
X1198079Y5867D01*
X1190153Y9150D01*
X1184086Y15217D01*
X1180803Y23143D01*
X1180803Y31721D01*
X1184086Y39647D01*
X1190153Y45714D01*
X1198079Y48997D01*
X1206657Y48997D01*
X1214583Y45714D01*
X1220650Y39647D01*
X1223933Y31721D01*
X1223933Y23143D01*
X1220650Y15217D01*
X1214583Y9150D01*
X1206657Y5867D01*
X1198079Y5867D01*
G37*
%LPD*%
%LPC*%
G36*
X23143Y5867D02*
X23143Y5867D01*
X15217Y9150D01*
X9150Y15217D01*
X5867Y23143D01*
X5867Y31721D01*
X9150Y39647D01*
X15217Y45714D01*
X23143Y48997D01*
X31721Y48997D01*
X39647Y45714D01*
X45714Y39647D01*
X48997Y31721D01*
X48997Y23143D01*
X45714Y15217D01*
X39647Y9150D01*
X31721Y5867D01*
X23143Y5867D01*
G37*
%LPD*%
%LPC*%
G36*
X366732Y515365D02*
X366732Y515365D01*
X364305Y516371D01*
X362447Y518229D01*
X361441Y520656D01*
X361441Y533555D01*
X361424Y533629D01*
X361411Y533703D01*
X361404Y533714D01*
X361402Y533723D01*
X361378Y533752D01*
X361330Y533824D01*
X316473Y578681D01*
X315467Y581108D01*
X315467Y583736D01*
X316473Y586163D01*
X318331Y588021D01*
X320758Y589027D01*
X323386Y589027D01*
X325813Y588021D01*
X373645Y540189D01*
X374651Y537762D01*
X374651Y520656D01*
X373645Y518229D01*
X371787Y516371D01*
X369360Y515365D01*
X366732Y515365D01*
G37*
%LPD*%
%LPC*%
G36*
X596148Y481853D02*
X596148Y481853D01*
X593820Y482818D01*
X593232Y483405D01*
X593188Y483432D01*
X593151Y483467D01*
X593116Y483477D01*
X593085Y483497D01*
X593034Y483502D01*
X592985Y483516D01*
X592949Y483510D01*
X592912Y483513D01*
X592865Y483495D01*
X592814Y483487D01*
X592779Y483463D01*
X592750Y483452D01*
X592729Y483429D01*
X592694Y483405D01*
X592360Y483072D01*
X590032Y482107D01*
X587512Y482107D01*
X585184Y483072D01*
X583402Y484854D01*
X582437Y487182D01*
X582437Y489702D01*
X583154Y491433D01*
X583155Y491435D01*
X583156Y491436D01*
X583173Y491528D01*
X583176Y491534D01*
X583176Y491541D01*
X583183Y491579D01*
X583183Y533175D01*
X583977Y533969D01*
X583978Y533971D01*
X583980Y533972D01*
X584060Y534092D01*
X584418Y534956D01*
X586200Y536738D01*
X587064Y537096D01*
X587065Y537097D01*
X587067Y537098D01*
X587187Y537179D01*
X587219Y537211D01*
X587265Y537211D01*
X587266Y537211D01*
X587268Y537211D01*
X587410Y537240D01*
X588528Y537703D01*
X590922Y537703D01*
X590984Y537717D01*
X591047Y537724D01*
X591068Y537737D01*
X591091Y537742D01*
X591140Y537783D01*
X591194Y537817D01*
X591208Y537839D01*
X591225Y537852D01*
X591240Y537887D01*
X591274Y537937D01*
X592038Y539782D01*
X593820Y541564D01*
X596148Y542529D01*
X598668Y542529D01*
X600996Y541564D01*
X602778Y539782D01*
X603743Y537454D01*
X603743Y534934D01*
X603026Y533203D01*
X603025Y533201D01*
X603024Y533200D01*
X603015Y533152D01*
X603004Y533126D01*
X603005Y533099D01*
X602997Y533057D01*
X602997Y491325D01*
X602997Y491323D01*
X602997Y491321D01*
X603026Y491179D01*
X603743Y489448D01*
X603743Y486928D01*
X602778Y484600D01*
X600996Y482818D01*
X598668Y481853D01*
X596148Y481853D01*
G37*
%LPD*%
%LPC*%
G36*
X313099Y15273D02*
X313099Y15273D01*
X308481Y17186D01*
X304946Y20721D01*
X303033Y25339D01*
X303033Y47337D01*
X304946Y51955D01*
X308481Y55490D01*
X313099Y57403D01*
X318097Y57403D01*
X322715Y55490D01*
X326250Y51955D01*
X328163Y47337D01*
X328163Y25339D01*
X326250Y20721D01*
X322715Y17186D01*
X318097Y15273D01*
X313099Y15273D01*
G37*
%LPD*%
%LPC*%
G36*
X278099Y15273D02*
X278099Y15273D01*
X273481Y17186D01*
X269946Y20721D01*
X268033Y25339D01*
X268033Y47337D01*
X269946Y51955D01*
X273481Y55490D01*
X278099Y57403D01*
X283097Y57403D01*
X287715Y55490D01*
X291250Y51955D01*
X293163Y47337D01*
X293163Y25339D01*
X291250Y20721D01*
X287715Y17186D01*
X283097Y15273D01*
X278099Y15273D01*
G37*
%LPD*%
%LPC*%
G36*
X242279Y15273D02*
X242279Y15273D01*
X237661Y17186D01*
X234126Y20721D01*
X232213Y25339D01*
X232213Y47337D01*
X234126Y51955D01*
X237661Y55490D01*
X242279Y57403D01*
X247277Y57403D01*
X251895Y55490D01*
X255430Y51955D01*
X257343Y47337D01*
X257343Y25339D01*
X255430Y20721D01*
X251895Y17186D01*
X247277Y15273D01*
X242279Y15273D01*
G37*
%LPD*%
%LPC*%
G36*
X207279Y15273D02*
X207279Y15273D01*
X202661Y17186D01*
X199126Y20721D01*
X197213Y25339D01*
X197213Y47337D01*
X199126Y51955D01*
X202661Y55490D01*
X207279Y57403D01*
X212277Y57403D01*
X216895Y55490D01*
X220430Y51955D01*
X222343Y47337D01*
X222343Y25339D01*
X220430Y20721D01*
X216895Y17186D01*
X212277Y15273D01*
X207279Y15273D01*
G37*
%LPD*%
%LPC*%
G36*
X698769Y15273D02*
X698769Y15273D01*
X694151Y17186D01*
X690616Y20721D01*
X688703Y25339D01*
X688703Y47337D01*
X690616Y51955D01*
X694151Y55490D01*
X698769Y57403D01*
X703767Y57403D01*
X708385Y55490D01*
X711920Y51955D01*
X713833Y47337D01*
X713833Y25339D01*
X711920Y20721D01*
X708385Y17186D01*
X703767Y15273D01*
X698769Y15273D01*
G37*
%LPD*%
%LPC*%
G36*
X172279Y15273D02*
X172279Y15273D01*
X167661Y17186D01*
X164126Y20721D01*
X162213Y25339D01*
X162213Y47337D01*
X164126Y51955D01*
X167661Y55490D01*
X172279Y57403D01*
X177277Y57403D01*
X181895Y55490D01*
X185430Y51955D01*
X187343Y47337D01*
X187343Y25339D01*
X185430Y20721D01*
X181895Y17186D01*
X177277Y15273D01*
X172279Y15273D01*
G37*
%LPD*%
%LPC*%
G36*
X941344Y812801D02*
X941344Y812801D01*
X936726Y814714D01*
X933191Y818249D01*
X931278Y822867D01*
X931278Y844865D01*
X933191Y849483D01*
X936726Y853018D01*
X941344Y854931D01*
X946342Y854931D01*
X950960Y853018D01*
X954495Y849483D01*
X956408Y844865D01*
X956408Y822867D01*
X954495Y818249D01*
X950960Y814714D01*
X946342Y812801D01*
X941344Y812801D01*
G37*
%LPD*%
%LPC*%
G36*
X906344Y812801D02*
X906344Y812801D01*
X901726Y814714D01*
X898191Y818249D01*
X896278Y822867D01*
X896278Y844865D01*
X898191Y849483D01*
X901726Y853018D01*
X906344Y854931D01*
X911342Y854931D01*
X915960Y853018D01*
X919495Y849483D01*
X921408Y844865D01*
X921408Y822867D01*
X919495Y818249D01*
X915960Y814714D01*
X911342Y812801D01*
X906344Y812801D01*
G37*
%LPD*%
%LPC*%
G36*
X871344Y812801D02*
X871344Y812801D01*
X866726Y814714D01*
X863191Y818249D01*
X861278Y822867D01*
X861278Y844865D01*
X863191Y849483D01*
X866726Y853018D01*
X871344Y854931D01*
X876342Y854931D01*
X880960Y853018D01*
X884495Y849483D01*
X886408Y844865D01*
X886408Y822867D01*
X884495Y818249D01*
X880960Y814714D01*
X876342Y812801D01*
X871344Y812801D01*
G37*
%LPD*%
%LPC*%
G36*
X836344Y812801D02*
X836344Y812801D01*
X831726Y814714D01*
X828191Y818249D01*
X826278Y822867D01*
X826278Y844865D01*
X828191Y849483D01*
X831726Y853018D01*
X836344Y854931D01*
X841342Y854931D01*
X845960Y853018D01*
X849495Y849483D01*
X851408Y844865D01*
X851408Y822867D01*
X849495Y818249D01*
X845960Y814714D01*
X841342Y812801D01*
X836344Y812801D01*
G37*
%LPD*%
%LPC*%
G36*
X801344Y812801D02*
X801344Y812801D01*
X796726Y814714D01*
X793191Y818249D01*
X791278Y822867D01*
X791278Y844865D01*
X793191Y849483D01*
X796726Y853018D01*
X801344Y854931D01*
X806342Y854931D01*
X810960Y853018D01*
X814495Y849483D01*
X816408Y844865D01*
X816408Y822867D01*
X814495Y818249D01*
X810960Y814714D01*
X806342Y812801D01*
X801344Y812801D01*
G37*
%LPD*%
%LPC*%
G36*
X765773Y812801D02*
X765773Y812801D01*
X761155Y814714D01*
X757620Y818249D01*
X755707Y822867D01*
X755707Y844865D01*
X757620Y849483D01*
X761155Y853018D01*
X765773Y854931D01*
X770771Y854931D01*
X775389Y853018D01*
X778924Y849483D01*
X780837Y844865D01*
X780837Y822867D01*
X778924Y818249D01*
X775389Y814714D01*
X770771Y812801D01*
X765773Y812801D01*
G37*
%LPD*%
%LPC*%
G36*
X730773Y812801D02*
X730773Y812801D01*
X726155Y814714D01*
X722620Y818249D01*
X720707Y822867D01*
X720707Y844865D01*
X722620Y849483D01*
X726155Y853018D01*
X730773Y854931D01*
X735771Y854931D01*
X740389Y853018D01*
X743924Y849483D01*
X745837Y844865D01*
X745837Y822867D01*
X743924Y818249D01*
X740389Y814714D01*
X735771Y812801D01*
X730773Y812801D01*
G37*
%LPD*%
%LPC*%
G36*
X695773Y812801D02*
X695773Y812801D01*
X691155Y814714D01*
X687620Y818249D01*
X685707Y822867D01*
X685707Y844865D01*
X687620Y849483D01*
X691155Y853018D01*
X695773Y854931D01*
X700771Y854931D01*
X705389Y853018D01*
X708924Y849483D01*
X710837Y844865D01*
X710837Y822867D01*
X708924Y818249D01*
X705389Y814714D01*
X700771Y812801D01*
X695773Y812801D01*
G37*
%LPD*%
%LPC*%
G36*
X1046344Y812801D02*
X1046344Y812801D01*
X1041726Y814714D01*
X1038191Y818249D01*
X1036278Y822867D01*
X1036278Y844865D01*
X1038191Y849483D01*
X1041726Y853018D01*
X1046344Y854931D01*
X1051342Y854931D01*
X1055960Y853018D01*
X1059495Y849483D01*
X1061408Y844865D01*
X1061408Y822867D01*
X1059495Y818249D01*
X1055960Y814714D01*
X1051342Y812801D01*
X1046344Y812801D01*
G37*
%LPD*%
%LPC*%
G36*
X660773Y812801D02*
X660773Y812801D01*
X656155Y814714D01*
X652620Y818249D01*
X650707Y822867D01*
X650707Y844865D01*
X652620Y849483D01*
X656155Y853018D01*
X660773Y854931D01*
X665771Y854931D01*
X670389Y853018D01*
X673924Y849483D01*
X675837Y844865D01*
X675837Y822867D01*
X673924Y818249D01*
X670389Y814714D01*
X665771Y812801D01*
X660773Y812801D01*
G37*
%LPD*%
%LPC*%
G36*
X1081344Y812801D02*
X1081344Y812801D01*
X1076726Y814714D01*
X1073191Y818249D01*
X1071278Y822867D01*
X1071278Y844865D01*
X1073191Y849483D01*
X1076726Y853018D01*
X1081344Y854931D01*
X1086342Y854931D01*
X1090960Y853018D01*
X1094495Y849483D01*
X1096408Y844865D01*
X1096408Y822867D01*
X1094495Y818249D01*
X1090960Y814714D01*
X1086342Y812801D01*
X1081344Y812801D01*
G37*
%LPD*%
%LPC*%
G36*
X1011344Y812801D02*
X1011344Y812801D01*
X1006726Y814714D01*
X1003191Y818249D01*
X1001278Y822867D01*
X1001278Y844865D01*
X1003191Y849483D01*
X1006726Y853018D01*
X1011344Y854931D01*
X1016342Y854931D01*
X1020960Y853018D01*
X1024495Y849483D01*
X1026408Y844865D01*
X1026408Y822867D01*
X1024495Y818249D01*
X1020960Y814714D01*
X1016342Y812801D01*
X1011344Y812801D01*
G37*
%LPD*%
%LPC*%
G36*
X976344Y812801D02*
X976344Y812801D01*
X971726Y814714D01*
X968191Y818249D01*
X966278Y822867D01*
X966278Y844865D01*
X968191Y849483D01*
X971726Y853018D01*
X976344Y854931D01*
X981342Y854931D01*
X985960Y853018D01*
X989495Y849483D01*
X991408Y844865D01*
X991408Y822867D01*
X989495Y818249D01*
X985960Y814714D01*
X981342Y812801D01*
X976344Y812801D01*
G37*
%LPD*%
%LPC*%
G36*
X137279Y15273D02*
X137279Y15273D01*
X132661Y17186D01*
X129126Y20721D01*
X127213Y25339D01*
X127213Y47337D01*
X129126Y51955D01*
X132661Y55490D01*
X137279Y57403D01*
X142277Y57403D01*
X146895Y55490D01*
X150430Y51955D01*
X152343Y47337D01*
X152343Y25339D01*
X150430Y20721D01*
X146895Y17186D01*
X142277Y15273D01*
X137279Y15273D01*
G37*
%LPD*%
%LPC*%
G36*
X1084439Y15273D02*
X1084439Y15273D01*
X1079821Y17186D01*
X1076286Y20721D01*
X1074373Y25339D01*
X1074373Y47337D01*
X1076286Y51955D01*
X1079821Y55490D01*
X1084439Y57403D01*
X1089437Y57403D01*
X1094055Y55490D01*
X1097590Y51955D01*
X1099503Y47337D01*
X1099503Y25339D01*
X1097590Y20721D01*
X1094055Y17186D01*
X1089437Y15273D01*
X1084439Y15273D01*
G37*
%LPD*%
%LPC*%
G36*
X1049439Y15273D02*
X1049439Y15273D01*
X1044821Y17186D01*
X1041286Y20721D01*
X1039373Y25339D01*
X1039373Y47337D01*
X1041286Y51955D01*
X1044821Y55490D01*
X1049439Y57403D01*
X1054437Y57403D01*
X1059055Y55490D01*
X1062590Y51955D01*
X1064503Y47337D01*
X1064503Y25339D01*
X1062590Y20721D01*
X1059055Y17186D01*
X1054437Y15273D01*
X1049439Y15273D01*
G37*
%LPD*%
%LPC*%
G36*
X1014439Y15273D02*
X1014439Y15273D01*
X1009821Y17186D01*
X1006286Y20721D01*
X1004373Y25339D01*
X1004373Y47337D01*
X1006286Y51955D01*
X1009821Y55490D01*
X1014439Y57403D01*
X1019437Y57403D01*
X1024055Y55490D01*
X1027590Y51955D01*
X1029503Y47337D01*
X1029503Y25339D01*
X1027590Y20721D01*
X1024055Y17186D01*
X1019437Y15273D01*
X1014439Y15273D01*
G37*
%LPD*%
%LPC*%
G36*
X979439Y15273D02*
X979439Y15273D01*
X974821Y17186D01*
X971286Y20721D01*
X969373Y25339D01*
X969373Y47337D01*
X971286Y51955D01*
X974821Y55490D01*
X979439Y57403D01*
X984437Y57403D01*
X989055Y55490D01*
X992590Y51955D01*
X994503Y47337D01*
X994503Y25339D01*
X992590Y20721D01*
X989055Y17186D01*
X984437Y15273D01*
X979439Y15273D01*
G37*
%LPD*%
%LPC*%
G36*
X944439Y15273D02*
X944439Y15273D01*
X939821Y17186D01*
X936286Y20721D01*
X934373Y25339D01*
X934373Y47337D01*
X936286Y51955D01*
X939821Y55490D01*
X944439Y57403D01*
X949437Y57403D01*
X954055Y55490D01*
X957590Y51955D01*
X959503Y47337D01*
X959503Y25339D01*
X957590Y20721D01*
X954055Y17186D01*
X949437Y15273D01*
X944439Y15273D01*
G37*
%LPD*%
%LPC*%
G36*
X909439Y15273D02*
X909439Y15273D01*
X904821Y17186D01*
X901286Y20721D01*
X899373Y25339D01*
X899373Y47337D01*
X901286Y51955D01*
X904821Y55490D01*
X909439Y57403D01*
X914437Y57403D01*
X919055Y55490D01*
X922590Y51955D01*
X924503Y47337D01*
X924503Y25339D01*
X922590Y20721D01*
X919055Y17186D01*
X914437Y15273D01*
X909439Y15273D01*
G37*
%LPD*%
%LPC*%
G36*
X874439Y15273D02*
X874439Y15273D01*
X869821Y17186D01*
X866286Y20721D01*
X864373Y25339D01*
X864373Y47337D01*
X866286Y51955D01*
X869821Y55490D01*
X874439Y57403D01*
X879437Y57403D01*
X884055Y55490D01*
X887590Y51955D01*
X889503Y47337D01*
X889503Y25339D01*
X887590Y20721D01*
X884055Y17186D01*
X879437Y15273D01*
X874439Y15273D01*
G37*
%LPD*%
%LPC*%
G36*
X839439Y15273D02*
X839439Y15273D01*
X834821Y17186D01*
X831286Y20721D01*
X829373Y25339D01*
X829373Y47337D01*
X831286Y51955D01*
X834821Y55490D01*
X839439Y57403D01*
X844437Y57403D01*
X849055Y55490D01*
X852590Y51955D01*
X854503Y47337D01*
X854503Y25339D01*
X852590Y20721D01*
X849055Y17186D01*
X844437Y15273D01*
X839439Y15273D01*
G37*
%LPD*%
%LPC*%
G36*
X803769Y15273D02*
X803769Y15273D01*
X799151Y17186D01*
X795616Y20721D01*
X793703Y25339D01*
X793703Y47337D01*
X795616Y51955D01*
X799151Y55490D01*
X803769Y57403D01*
X808767Y57403D01*
X813385Y55490D01*
X816920Y51955D01*
X818833Y47337D01*
X818833Y25339D01*
X816920Y20721D01*
X813385Y17186D01*
X808767Y15273D01*
X803769Y15273D01*
G37*
%LPD*%
%LPC*%
G36*
X768769Y15273D02*
X768769Y15273D01*
X764151Y17186D01*
X760616Y20721D01*
X758703Y25339D01*
X758703Y47337D01*
X760616Y51955D01*
X764151Y55490D01*
X768769Y57403D01*
X773767Y57403D01*
X778385Y55490D01*
X781920Y51955D01*
X783833Y47337D01*
X783833Y25339D01*
X781920Y20721D01*
X778385Y17186D01*
X773767Y15273D01*
X768769Y15273D01*
G37*
%LPD*%
%LPC*%
G36*
X733769Y15273D02*
X733769Y15273D01*
X729151Y17186D01*
X725616Y20721D01*
X723703Y25339D01*
X723703Y47337D01*
X725616Y51955D01*
X729151Y55490D01*
X733769Y57403D01*
X738767Y57403D01*
X743385Y55490D01*
X746920Y51955D01*
X748833Y47337D01*
X748833Y25339D01*
X746920Y20721D01*
X743385Y17186D01*
X738767Y15273D01*
X733769Y15273D01*
G37*
%LPD*%
%LPC*%
G36*
X663769Y15273D02*
X663769Y15273D01*
X659151Y17186D01*
X655616Y20721D01*
X653703Y25339D01*
X653703Y47337D01*
X655616Y51955D01*
X659151Y55490D01*
X663769Y57403D01*
X668767Y57403D01*
X673385Y55490D01*
X676920Y51955D01*
X678833Y47337D01*
X678833Y25339D01*
X676920Y20721D01*
X673385Y17186D01*
X668767Y15273D01*
X663769Y15273D01*
G37*
%LPD*%
%LPC*%
G36*
X628769Y15273D02*
X628769Y15273D01*
X624151Y17186D01*
X620616Y20721D01*
X618703Y25339D01*
X618703Y47337D01*
X620616Y51955D01*
X624151Y55490D01*
X628769Y57403D01*
X633767Y57403D01*
X638385Y55490D01*
X641920Y51955D01*
X643833Y47337D01*
X643833Y25339D01*
X641920Y20721D01*
X638385Y17186D01*
X633767Y15273D01*
X628769Y15273D01*
G37*
%LPD*%
%LPC*%
G36*
X593769Y15273D02*
X593769Y15273D01*
X589151Y17186D01*
X585616Y20721D01*
X583703Y25339D01*
X583703Y47337D01*
X585616Y51955D01*
X589151Y55490D01*
X593769Y57403D01*
X598767Y57403D01*
X603385Y55490D01*
X606920Y51955D01*
X608833Y47337D01*
X608833Y25339D01*
X606920Y20721D01*
X603385Y17186D01*
X598767Y15273D01*
X593769Y15273D01*
G37*
%LPD*%
%LPC*%
G36*
X558769Y15273D02*
X558769Y15273D01*
X554151Y17186D01*
X550616Y20721D01*
X548703Y25339D01*
X548703Y47337D01*
X550616Y51955D01*
X554151Y55490D01*
X558769Y57403D01*
X563767Y57403D01*
X568385Y55490D01*
X571920Y51955D01*
X573833Y47337D01*
X573833Y25339D01*
X571920Y20721D01*
X568385Y17186D01*
X563767Y15273D01*
X558769Y15273D01*
G37*
%LPD*%
%LPC*%
G36*
X523099Y15273D02*
X523099Y15273D01*
X518481Y17186D01*
X514946Y20721D01*
X513033Y25339D01*
X513033Y47337D01*
X514946Y51955D01*
X518481Y55490D01*
X523099Y57403D01*
X528097Y57403D01*
X532715Y55490D01*
X536250Y51955D01*
X538163Y47337D01*
X538163Y25339D01*
X536250Y20721D01*
X532715Y17186D01*
X528097Y15273D01*
X523099Y15273D01*
G37*
%LPD*%
%LPC*%
G36*
X488099Y15273D02*
X488099Y15273D01*
X483481Y17186D01*
X479946Y20721D01*
X478033Y25339D01*
X478033Y47337D01*
X479946Y51955D01*
X483481Y55490D01*
X488099Y57403D01*
X493097Y57403D01*
X497715Y55490D01*
X501250Y51955D01*
X503163Y47337D01*
X503163Y25339D01*
X501250Y20721D01*
X497715Y17186D01*
X493097Y15273D01*
X488099Y15273D01*
G37*
%LPD*%
%LPC*%
G36*
X453099Y15273D02*
X453099Y15273D01*
X448481Y17186D01*
X444946Y20721D01*
X443033Y25339D01*
X443033Y47337D01*
X444946Y51955D01*
X448481Y55490D01*
X453099Y57403D01*
X458097Y57403D01*
X462715Y55490D01*
X466250Y51955D01*
X468163Y47337D01*
X468163Y25339D01*
X466250Y20721D01*
X462715Y17186D01*
X458097Y15273D01*
X453099Y15273D01*
G37*
%LPD*%
%LPC*%
G36*
X418099Y15273D02*
X418099Y15273D01*
X413481Y17186D01*
X409946Y20721D01*
X408033Y25339D01*
X408033Y47337D01*
X409946Y51955D01*
X413481Y55490D01*
X418099Y57403D01*
X423097Y57403D01*
X427715Y55490D01*
X431250Y51955D01*
X433163Y47337D01*
X433163Y25339D01*
X431250Y20721D01*
X427715Y17186D01*
X423097Y15273D01*
X418099Y15273D01*
G37*
%LPD*%
%LPC*%
G36*
X383099Y15273D02*
X383099Y15273D01*
X378481Y17186D01*
X374946Y20721D01*
X373033Y25339D01*
X373033Y47337D01*
X374946Y51955D01*
X378481Y55490D01*
X383099Y57403D01*
X388097Y57403D01*
X392715Y55490D01*
X396250Y51955D01*
X398163Y47337D01*
X398163Y25339D01*
X396250Y20721D01*
X392715Y17186D01*
X388097Y15273D01*
X383099Y15273D01*
G37*
%LPD*%
%LPC*%
G36*
X348099Y15273D02*
X348099Y15273D01*
X343481Y17186D01*
X339946Y20721D01*
X338033Y25339D01*
X338033Y47337D01*
X339946Y51955D01*
X343481Y55490D01*
X348099Y57403D01*
X353097Y57403D01*
X357715Y55490D01*
X361250Y51955D01*
X363163Y47337D01*
X363163Y25339D01*
X361250Y20721D01*
X357715Y17186D01*
X353097Y15273D01*
X348099Y15273D01*
G37*
%LPD*%
%LPC*%
G36*
X549920Y563895D02*
X549920Y563895D01*
X547592Y564860D01*
X545810Y566642D01*
X545093Y568373D01*
X545092Y568374D01*
X545091Y568376D01*
X545010Y568496D01*
X527386Y586120D01*
X526122Y587385D01*
X526120Y587386D01*
X526119Y587387D01*
X526004Y587463D01*
X524220Y589248D01*
X524139Y589368D01*
X524001Y589505D01*
X524001Y589699D01*
X524001Y589701D01*
X524001Y589703D01*
X523984Y589789D01*
X523983Y589812D01*
X523977Y589823D01*
X523972Y589845D01*
X523255Y591576D01*
X523255Y594096D01*
X524220Y596424D01*
X526002Y598206D01*
X528330Y599171D01*
X530470Y599171D01*
X530532Y599185D01*
X530595Y599192D01*
X530616Y599205D01*
X530639Y599210D01*
X530688Y599251D01*
X530742Y599285D01*
X530756Y599307D01*
X530773Y599320D01*
X530788Y599355D01*
X530822Y599405D01*
X531586Y601250D01*
X533368Y603032D01*
X535696Y603997D01*
X538216Y603997D01*
X540544Y603032D01*
X542326Y601250D01*
X543291Y598922D01*
X543291Y598880D01*
X543308Y598806D01*
X543321Y598732D01*
X543328Y598722D01*
X543330Y598712D01*
X543354Y598683D01*
X543402Y598612D01*
X559772Y582242D01*
X559773Y582241D01*
X559774Y582239D01*
X559895Y582159D01*
X561626Y581442D01*
X563408Y579660D01*
X564373Y577332D01*
X564373Y574812D01*
X563408Y572484D01*
X561626Y570702D01*
X559298Y569737D01*
X557895Y569737D01*
X557845Y569726D01*
X557794Y569724D01*
X557762Y569706D01*
X557726Y569698D01*
X557687Y569665D01*
X557642Y569641D01*
X557621Y569611D01*
X557593Y569588D01*
X557572Y569541D01*
X557542Y569499D01*
X557534Y569457D01*
X557522Y569429D01*
X557523Y569399D01*
X557515Y569357D01*
X557515Y568970D01*
X556550Y566642D01*
X554768Y564860D01*
X552440Y563895D01*
X549920Y563895D01*
G37*
%LPD*%
%LPC*%
G36*
X183906Y107457D02*
X183906Y107457D01*
X181578Y108422D01*
X179796Y110204D01*
X178831Y112532D01*
X178831Y115052D01*
X179548Y116783D01*
X179549Y116785D01*
X179550Y116786D01*
X179577Y116929D01*
X179577Y173765D01*
X179560Y173838D01*
X179547Y173913D01*
X179540Y173924D01*
X179538Y173933D01*
X179514Y173962D01*
X179466Y174033D01*
X179034Y174466D01*
X178069Y176794D01*
X178069Y179314D01*
X179034Y181642D01*
X180816Y183424D01*
X183144Y184389D01*
X185664Y184389D01*
X187395Y183672D01*
X187397Y183671D01*
X187398Y183670D01*
X187485Y183654D01*
X187562Y183603D01*
X187992Y183424D01*
X189774Y181642D01*
X189953Y181212D01*
X189954Y181211D01*
X189954Y181209D01*
X190035Y181089D01*
X190755Y180369D01*
X190755Y116929D01*
X190755Y116927D01*
X190755Y116925D01*
X190784Y116783D01*
X191501Y115052D01*
X191501Y112532D01*
X190536Y110204D01*
X188754Y108422D01*
X186426Y107457D01*
X183906Y107457D01*
G37*
%LPD*%
%LPC*%
G36*
X955431Y108854D02*
X955431Y108854D01*
X953103Y109819D01*
X951321Y111601D01*
X950356Y113929D01*
X950356Y116449D01*
X951321Y118777D01*
X951880Y119337D01*
X951920Y119401D01*
X951964Y119463D01*
X951966Y119475D01*
X951971Y119484D01*
X951975Y119521D01*
X951991Y119605D01*
X951991Y176187D01*
X951991Y176189D01*
X951991Y176191D01*
X951962Y176333D01*
X951245Y178064D01*
X951245Y180584D01*
X952210Y182912D01*
X953992Y184694D01*
X956320Y185659D01*
X958840Y185659D01*
X961168Y184694D01*
X962950Y182912D01*
X963915Y180584D01*
X963915Y178064D01*
X963198Y176333D01*
X963197Y176331D01*
X963196Y176330D01*
X963169Y176187D01*
X963169Y114017D01*
X963040Y113889D01*
X963039Y113887D01*
X963038Y113886D01*
X963028Y113871D01*
X963025Y113869D01*
X963023Y113864D01*
X962958Y113765D01*
X962061Y111601D01*
X960279Y109819D01*
X957951Y108854D01*
X955431Y108854D01*
G37*
%LPD*%
%LPC*%
G36*
X219085Y107584D02*
X219085Y107584D01*
X216757Y108549D01*
X214975Y110331D01*
X214010Y112659D01*
X214010Y115179D01*
X214727Y116910D01*
X214728Y116912D01*
X214729Y116913D01*
X214738Y116964D01*
X214749Y116988D01*
X214748Y117015D01*
X214756Y117056D01*
X214756Y175224D01*
X214756Y175226D01*
X214756Y175227D01*
X214737Y175321D01*
X214737Y175339D01*
X214732Y175349D01*
X214727Y175369D01*
X214137Y176794D01*
X214137Y179314D01*
X215102Y181642D01*
X216884Y183424D01*
X219212Y184389D01*
X221732Y184389D01*
X224060Y183424D01*
X225842Y181642D01*
X226807Y179314D01*
X226807Y176794D01*
X225963Y174756D01*
X225962Y174754D01*
X225961Y174753D01*
X225934Y174611D01*
X225934Y117056D01*
X225934Y117054D01*
X225934Y117052D01*
X225946Y116992D01*
X225947Y116960D01*
X225956Y116944D01*
X225963Y116910D01*
X226680Y115179D01*
X226680Y112659D01*
X225715Y110331D01*
X223933Y108549D01*
X221605Y107584D01*
X219085Y107584D01*
G37*
%LPD*%
%LPC*%
G36*
X394218Y108219D02*
X394218Y108219D01*
X391890Y109184D01*
X390108Y110966D01*
X389143Y113294D01*
X389143Y115814D01*
X389606Y116932D01*
X389607Y116934D01*
X389608Y116935D01*
X389615Y116975D01*
X389621Y116988D01*
X389621Y117003D01*
X389635Y117077D01*
X389635Y175425D01*
X389635Y175427D01*
X389635Y175429D01*
X389606Y175571D01*
X388889Y177302D01*
X388889Y179822D01*
X389854Y182150D01*
X391636Y183932D01*
X393964Y184897D01*
X396484Y184897D01*
X398812Y183932D01*
X400594Y182150D01*
X401559Y179822D01*
X401559Y177302D01*
X400842Y175571D01*
X400841Y175569D01*
X400840Y175568D01*
X400813Y175425D01*
X400813Y118304D01*
X400813Y118302D01*
X400813Y118300D01*
X400842Y118158D01*
X401813Y115814D01*
X401813Y113294D01*
X400848Y110966D01*
X399066Y109184D01*
X396738Y108219D01*
X394218Y108219D01*
G37*
%LPD*%
%LPC*%
G36*
X359420Y107711D02*
X359420Y107711D01*
X357092Y108676D01*
X355310Y110458D01*
X354345Y112786D01*
X354345Y115306D01*
X355062Y117037D01*
X355063Y117039D01*
X355064Y117040D01*
X355091Y117183D01*
X355091Y175456D01*
X355091Y175458D01*
X355091Y175460D01*
X355062Y175602D01*
X354726Y176413D01*
X354726Y178933D01*
X355691Y181261D01*
X357473Y183043D01*
X359801Y184008D01*
X362321Y184008D01*
X364649Y183043D01*
X366431Y181261D01*
X367396Y178933D01*
X367396Y176413D01*
X366431Y174085D01*
X366380Y174033D01*
X366340Y173969D01*
X366296Y173907D01*
X366294Y173895D01*
X366289Y173886D01*
X366285Y173849D01*
X366269Y173765D01*
X366269Y117183D01*
X366269Y117181D01*
X366269Y117179D01*
X366298Y117037D01*
X367015Y115306D01*
X367015Y112786D01*
X366050Y110458D01*
X364268Y108676D01*
X361940Y107711D01*
X359420Y107711D01*
G37*
%LPD*%
%LPC*%
G36*
X253756Y108473D02*
X253756Y108473D01*
X251428Y109438D01*
X249646Y111220D01*
X248681Y113548D01*
X248681Y116068D01*
X249398Y117799D01*
X249399Y117801D01*
X249400Y117802D01*
X249427Y117945D01*
X249427Y175171D01*
X249427Y175173D01*
X249427Y175175D01*
X249398Y175317D01*
X248681Y177048D01*
X248681Y179568D01*
X249646Y181896D01*
X251428Y183678D01*
X253756Y184643D01*
X256276Y184643D01*
X258604Y183678D01*
X260386Y181896D01*
X261351Y179568D01*
X261351Y177048D01*
X260634Y175317D01*
X260633Y175315D01*
X260632Y175314D01*
X260605Y175171D01*
X260605Y117945D01*
X260605Y117943D01*
X260605Y117941D01*
X260634Y117799D01*
X261351Y116068D01*
X261351Y113548D01*
X260386Y111220D01*
X258604Y109438D01*
X256276Y108473D01*
X253756Y108473D01*
G37*
%LPD*%
%LPC*%
G36*
X921649Y109108D02*
X921649Y109108D01*
X919321Y110073D01*
X917539Y111855D01*
X916574Y114183D01*
X916574Y116703D01*
X917539Y119031D01*
X917590Y119083D01*
X917601Y119101D01*
X917614Y119111D01*
X917630Y119147D01*
X917674Y119209D01*
X917676Y119221D01*
X917681Y119230D01*
X917685Y119267D01*
X917701Y119351D01*
X917701Y175679D01*
X917701Y175681D01*
X917701Y175683D01*
X917672Y175825D01*
X916955Y177556D01*
X916955Y180076D01*
X917920Y182404D01*
X919702Y184186D01*
X922030Y185151D01*
X924550Y185151D01*
X926878Y184186D01*
X928660Y182404D01*
X929625Y180076D01*
X929625Y177556D01*
X928908Y175825D01*
X928907Y175823D01*
X928906Y175822D01*
X928879Y175679D01*
X928879Y117660D01*
X928879Y117658D01*
X928879Y117656D01*
X928908Y117514D01*
X929244Y116703D01*
X929244Y114183D01*
X928279Y111855D01*
X926497Y110073D01*
X924169Y109108D01*
X921649Y109108D01*
G37*
%LPD*%
%LPC*%
G36*
X148092Y108727D02*
X148092Y108727D01*
X145764Y109692D01*
X143982Y111474D01*
X143017Y113802D01*
X143017Y116322D01*
X143734Y118053D01*
X143735Y118055D01*
X143736Y118056D01*
X143745Y118103D01*
X143756Y118129D01*
X143755Y118157D01*
X143763Y118199D01*
X143763Y174304D01*
X143763Y174306D01*
X143763Y174308D01*
X143734Y174450D01*
X143370Y175330D01*
X143369Y175331D01*
X143368Y175333D01*
X143287Y175453D01*
X143255Y175485D01*
X143255Y175531D01*
X143255Y175532D01*
X143255Y175534D01*
X143226Y175676D01*
X142763Y176794D01*
X142763Y179314D01*
X143728Y181642D01*
X145510Y183424D01*
X147838Y184389D01*
X150358Y184389D01*
X152686Y183424D01*
X154468Y181642D01*
X155433Y179314D01*
X155433Y176794D01*
X154970Y175676D01*
X154969Y175674D01*
X154968Y175673D01*
X154941Y175531D01*
X154941Y118199D01*
X154941Y118197D01*
X154941Y118195D01*
X154953Y118135D01*
X154954Y118101D01*
X154963Y118084D01*
X154970Y118053D01*
X155687Y116322D01*
X155687Y113802D01*
X154722Y111474D01*
X152940Y109692D01*
X150612Y108727D01*
X148092Y108727D01*
G37*
%LPD*%
%LPC*%
G36*
X991118Y110759D02*
X991118Y110759D01*
X988790Y111724D01*
X987008Y113506D01*
X986043Y115834D01*
X986043Y118354D01*
X987008Y120682D01*
X987948Y121623D01*
X987988Y121687D01*
X988032Y121749D01*
X988034Y121761D01*
X988039Y121770D01*
X988043Y121807D01*
X988059Y121891D01*
X988059Y176441D01*
X988059Y176443D01*
X988059Y176445D01*
X988030Y176587D01*
X987313Y178318D01*
X987313Y180838D01*
X988278Y183166D01*
X990060Y184948D01*
X992388Y185913D01*
X994908Y185913D01*
X997236Y184948D01*
X999018Y183166D01*
X999983Y180838D01*
X999983Y178318D01*
X999266Y176587D01*
X999265Y176585D01*
X999264Y176584D01*
X999237Y176441D01*
X999237Y116049D01*
X998548Y115360D01*
X998547Y115359D01*
X998545Y115358D01*
X998465Y115237D01*
X997748Y113506D01*
X995966Y111724D01*
X993638Y110759D01*
X991118Y110759D01*
G37*
%LPD*%
%LPC*%
G36*
X429905Y108092D02*
X429905Y108092D01*
X427577Y109057D01*
X425795Y110839D01*
X424830Y113167D01*
X424830Y115687D01*
X425547Y117418D01*
X425548Y117420D01*
X425549Y117421D01*
X425576Y117564D01*
X425576Y175255D01*
X425576Y175256D01*
X425576Y175258D01*
X425563Y175321D01*
X425563Y175339D01*
X425558Y175348D01*
X425547Y175400D01*
X425338Y175905D01*
X425338Y178425D01*
X426303Y180753D01*
X428085Y182535D01*
X430413Y183500D01*
X432933Y183500D01*
X435261Y182535D01*
X437043Y180753D01*
X438008Y178425D01*
X438008Y175905D01*
X437043Y173577D01*
X436865Y173398D01*
X436825Y173334D01*
X436781Y173272D01*
X436779Y173260D01*
X436774Y173251D01*
X436770Y173214D01*
X436754Y173130D01*
X436754Y117564D01*
X436754Y117562D01*
X436754Y117560D01*
X436783Y117418D01*
X437500Y115687D01*
X437500Y113167D01*
X436535Y110839D01*
X434753Y109057D01*
X432425Y108092D01*
X429905Y108092D01*
G37*
%LPD*%
%LPC*%
G36*
X324749Y108854D02*
X324749Y108854D01*
X322421Y109819D01*
X320639Y111601D01*
X319674Y113929D01*
X319674Y116449D01*
X320391Y118180D01*
X320392Y118182D01*
X320393Y118183D01*
X320420Y118326D01*
X320420Y173169D01*
X320403Y173243D01*
X320390Y173317D01*
X320383Y173327D01*
X320381Y173337D01*
X320357Y173366D01*
X320309Y173437D01*
X320293Y173453D01*
X320293Y174663D01*
X320293Y174665D01*
X320293Y174667D01*
X320264Y174809D01*
X319547Y176540D01*
X319547Y179060D01*
X320512Y181388D01*
X322294Y183170D01*
X324622Y184135D01*
X327142Y184135D01*
X329470Y183170D01*
X331252Y181388D01*
X332217Y179060D01*
X332217Y176540D01*
X331627Y175115D01*
X331626Y175114D01*
X331625Y175112D01*
X331598Y174970D01*
X331598Y118326D01*
X331598Y118324D01*
X331598Y118322D01*
X331627Y118180D01*
X332344Y116449D01*
X332344Y113929D01*
X331379Y111601D01*
X329597Y109819D01*
X327269Y108854D01*
X324749Y108854D01*
G37*
%LPD*%
%LPC*%
G36*
X640344Y107965D02*
X640344Y107965D01*
X638016Y108930D01*
X636234Y110712D01*
X635269Y113040D01*
X635269Y115560D01*
X636234Y117888D01*
X636920Y118575D01*
X636960Y118639D01*
X637004Y118701D01*
X637006Y118713D01*
X637011Y118722D01*
X637015Y118759D01*
X637031Y118843D01*
X637031Y173139D01*
X637031Y173141D01*
X637031Y173143D01*
X637002Y173285D01*
X636285Y175016D01*
X636285Y177536D01*
X637250Y179864D01*
X639032Y181646D01*
X641360Y182611D01*
X643880Y182611D01*
X646208Y181646D01*
X647990Y179864D01*
X648955Y177536D01*
X648955Y175016D01*
X648238Y173285D01*
X648237Y173283D01*
X648236Y173282D01*
X648209Y173139D01*
X648209Y113001D01*
X647774Y112566D01*
X647773Y112565D01*
X647771Y112564D01*
X647691Y112443D01*
X646974Y110712D01*
X645192Y108930D01*
X642864Y107965D01*
X640344Y107965D01*
G37*
%LPD*%
%LPC*%
G36*
X605292Y109489D02*
X605292Y109489D01*
X602964Y110454D01*
X601182Y112236D01*
X600217Y114564D01*
X600217Y117084D01*
X601182Y119412D01*
X601360Y119591D01*
X601400Y119655D01*
X601444Y119717D01*
X601446Y119729D01*
X601451Y119738D01*
X601455Y119775D01*
X601471Y119859D01*
X601471Y174663D01*
X601471Y174665D01*
X601471Y174667D01*
X601442Y174809D01*
X600725Y176540D01*
X600725Y179060D01*
X601690Y181388D01*
X603472Y183170D01*
X605800Y184135D01*
X608320Y184135D01*
X610648Y183170D01*
X612430Y181388D01*
X613395Y179060D01*
X613395Y176540D01*
X612678Y174809D01*
X612677Y174807D01*
X612676Y174806D01*
X612649Y174663D01*
X612649Y117734D01*
X612649Y117732D01*
X612649Y117731D01*
X612678Y117589D01*
X612887Y117084D01*
X612887Y114564D01*
X612678Y114059D01*
X612677Y114057D01*
X612676Y114056D01*
X612667Y114009D01*
X612639Y113967D01*
X611922Y112236D01*
X610140Y110454D01*
X607812Y109489D01*
X605292Y109489D01*
G37*
%LPD*%
%LPC*%
G36*
X711718Y110505D02*
X711718Y110505D01*
X709390Y111470D01*
X707608Y113252D01*
X706643Y115580D01*
X706643Y118100D01*
X707106Y119218D01*
X707107Y119220D01*
X707108Y119221D01*
X707115Y119260D01*
X707119Y119270D01*
X707119Y119280D01*
X707135Y119363D01*
X707135Y175425D01*
X707135Y175427D01*
X707135Y175429D01*
X707106Y175571D01*
X706389Y177302D01*
X706389Y179822D01*
X707354Y182150D01*
X709136Y183932D01*
X711464Y184897D01*
X713984Y184897D01*
X716312Y183932D01*
X718094Y182150D01*
X719059Y179822D01*
X719059Y177302D01*
X718342Y175571D01*
X718341Y175569D01*
X718340Y175568D01*
X718313Y175425D01*
X718313Y120590D01*
X718313Y120588D01*
X718313Y120586D01*
X718342Y120444D01*
X719313Y118100D01*
X719313Y115580D01*
X718348Y113252D01*
X716566Y111470D01*
X714238Y110505D01*
X711718Y110505D01*
G37*
%LPD*%
%LPC*%
G36*
X1026678Y111013D02*
X1026678Y111013D01*
X1024350Y111978D01*
X1022568Y113760D01*
X1021603Y116088D01*
X1021603Y118608D01*
X1022066Y119726D01*
X1022067Y119728D01*
X1022068Y119729D01*
X1022095Y119871D01*
X1022095Y120425D01*
X1022487Y120816D01*
X1022488Y120818D01*
X1022489Y120819D01*
X1022565Y120934D01*
X1023000Y121369D01*
X1023010Y121385D01*
X1023019Y121393D01*
X1023031Y121419D01*
X1023040Y121433D01*
X1023084Y121495D01*
X1023086Y121507D01*
X1023091Y121516D01*
X1023095Y121553D01*
X1023111Y121637D01*
X1023111Y175679D01*
X1023111Y175681D01*
X1023111Y175683D01*
X1023082Y175825D01*
X1022365Y177556D01*
X1022365Y180076D01*
X1023330Y182404D01*
X1025112Y184186D01*
X1027440Y185151D01*
X1029960Y185151D01*
X1032288Y184186D01*
X1034070Y182404D01*
X1035035Y180076D01*
X1035035Y177556D01*
X1034318Y175825D01*
X1034317Y175823D01*
X1034316Y175822D01*
X1034289Y175679D01*
X1034289Y116720D01*
X1034273Y116638D01*
X1034273Y116088D01*
X1033308Y113760D01*
X1031526Y111978D01*
X1029198Y111013D01*
X1026678Y111013D01*
G37*
%LPD*%
%LPC*%
G36*
X465338Y108981D02*
X465338Y108981D01*
X463010Y109946D01*
X461228Y111728D01*
X460263Y114056D01*
X460263Y116576D01*
X460980Y118307D01*
X460981Y118309D01*
X460982Y118310D01*
X461009Y118453D01*
X461009Y173647D01*
X461009Y173649D01*
X461009Y173651D01*
X460980Y173793D01*
X460263Y175524D01*
X460263Y178044D01*
X461228Y180372D01*
X463010Y182154D01*
X465338Y183119D01*
X467858Y183119D01*
X470186Y182154D01*
X471968Y180372D01*
X472933Y178044D01*
X472933Y175524D01*
X472216Y173793D01*
X472215Y173791D01*
X472214Y173790D01*
X472187Y173647D01*
X472187Y118453D01*
X472187Y118451D01*
X472187Y118449D01*
X472216Y118307D01*
X472933Y116576D01*
X472933Y114056D01*
X471968Y111728D01*
X470186Y109946D01*
X467858Y108981D01*
X465338Y108981D01*
G37*
%LPD*%
%LPC*%
G36*
X676158Y109489D02*
X676158Y109489D01*
X673830Y110454D01*
X672048Y112236D01*
X671083Y114564D01*
X671083Y117084D01*
X671800Y118815D01*
X671801Y118817D01*
X671802Y118818D01*
X671810Y118862D01*
X671822Y118889D01*
X671821Y118919D01*
X671829Y118961D01*
X671829Y174155D01*
X671829Y174157D01*
X671829Y174159D01*
X671800Y174301D01*
X671083Y176032D01*
X671083Y178552D01*
X672048Y180880D01*
X673830Y182662D01*
X676158Y183627D01*
X678678Y183627D01*
X681006Y182662D01*
X682788Y180880D01*
X683753Y178552D01*
X683753Y176032D01*
X683036Y174301D01*
X683035Y174299D01*
X683034Y174298D01*
X683007Y174155D01*
X683007Y118961D01*
X683007Y118959D01*
X683007Y118957D01*
X683019Y118898D01*
X683020Y118861D01*
X683030Y118843D01*
X683036Y118815D01*
X683753Y117084D01*
X683753Y114564D01*
X682788Y112236D01*
X681006Y110454D01*
X678678Y109489D01*
X676158Y109489D01*
G37*
%LPD*%
%LPC*%
G36*
X291094Y111521D02*
X291094Y111521D01*
X288766Y112486D01*
X286984Y114268D01*
X286267Y115999D01*
X286266Y116000D01*
X286265Y116002D01*
X286184Y116122D01*
X284733Y117573D01*
X284733Y175171D01*
X284733Y175173D01*
X284733Y175175D01*
X284704Y175317D01*
X283987Y177048D01*
X283987Y179568D01*
X284952Y181896D01*
X286734Y183678D01*
X289062Y184643D01*
X291582Y184643D01*
X293910Y183678D01*
X295692Y181896D01*
X296657Y179568D01*
X296657Y177048D01*
X295940Y175317D01*
X295939Y175315D01*
X295938Y175314D01*
X295911Y175171D01*
X295911Y123415D01*
X295928Y123341D01*
X295941Y123267D01*
X295948Y123257D01*
X295950Y123247D01*
X295974Y123218D01*
X296022Y123147D01*
X297724Y121444D01*
X298689Y119116D01*
X298689Y116596D01*
X297724Y114268D01*
X295942Y112486D01*
X293614Y111521D01*
X291094Y111521D01*
G37*
%LPD*%
%LPC*%
G36*
X887232Y110505D02*
X887232Y110505D01*
X884904Y111470D01*
X883122Y113252D01*
X882157Y115580D01*
X882157Y118100D01*
X882874Y119831D01*
X882875Y119833D01*
X882876Y119834D01*
X882903Y119977D01*
X882903Y174663D01*
X882903Y174665D01*
X882903Y174667D01*
X882874Y174809D01*
X882157Y176540D01*
X882157Y179060D01*
X883122Y181388D01*
X884904Y183170D01*
X887232Y184135D01*
X889752Y184135D01*
X892080Y183170D01*
X893862Y181388D01*
X894827Y179060D01*
X894827Y176540D01*
X894110Y174809D01*
X894109Y174807D01*
X894108Y174806D01*
X894081Y174663D01*
X894081Y119977D01*
X894081Y119975D01*
X894081Y119973D01*
X894110Y119831D01*
X894827Y118100D01*
X894827Y115580D01*
X893862Y113252D01*
X892080Y111470D01*
X889752Y110505D01*
X887232Y110505D01*
G37*
%LPD*%
%LPC*%
G36*
X569859Y109616D02*
X569859Y109616D01*
X567531Y110581D01*
X565749Y112363D01*
X564784Y114691D01*
X564784Y117211D01*
X565501Y118942D01*
X565502Y118944D01*
X565503Y118945D01*
X565530Y119088D01*
X565530Y173700D01*
X565530Y173702D01*
X565530Y173703D01*
X565510Y173803D01*
X565509Y173818D01*
X565505Y173826D01*
X565501Y173845D01*
X564911Y175270D01*
X564911Y177790D01*
X565876Y180118D01*
X567658Y181900D01*
X569986Y182865D01*
X572506Y182865D01*
X574834Y181900D01*
X576616Y180118D01*
X577581Y177790D01*
X577581Y175270D01*
X576737Y173232D01*
X576736Y173230D01*
X576735Y173229D01*
X576708Y173087D01*
X576708Y119088D01*
X576708Y119086D01*
X576708Y119084D01*
X576737Y118942D01*
X577454Y117211D01*
X577454Y114691D01*
X576489Y112363D01*
X574707Y110581D01*
X572379Y109616D01*
X569859Y109616D01*
G37*
%LPD*%
%LPC*%
G36*
X851926Y111775D02*
X851926Y111775D01*
X849598Y112740D01*
X847816Y114522D01*
X847099Y116253D01*
X847098Y116254D01*
X847097Y116256D01*
X847070Y116296D01*
X847060Y116345D01*
X846851Y116850D01*
X846851Y119370D01*
X847060Y119875D01*
X847061Y119877D01*
X847062Y119878D01*
X847089Y120020D01*
X847089Y175425D01*
X847089Y175427D01*
X847089Y175429D01*
X847060Y175571D01*
X846343Y177302D01*
X846343Y179822D01*
X847308Y182150D01*
X849090Y183932D01*
X851418Y184897D01*
X853938Y184897D01*
X856266Y183932D01*
X858048Y182150D01*
X859013Y179822D01*
X859013Y177302D01*
X858296Y175571D01*
X858295Y175569D01*
X858294Y175568D01*
X858267Y175425D01*
X858267Y122145D01*
X858284Y122071D01*
X858297Y121997D01*
X858304Y121987D01*
X858306Y121977D01*
X858330Y121948D01*
X858378Y121877D01*
X858556Y121698D01*
X859521Y119370D01*
X859521Y116850D01*
X858556Y114522D01*
X856774Y112740D01*
X854446Y111775D01*
X851926Y111775D01*
G37*
%LPD*%
%LPC*%
G36*
X535950Y110251D02*
X535950Y110251D01*
X533622Y111216D01*
X531840Y112998D01*
X530875Y115326D01*
X530875Y117846D01*
X531592Y119577D01*
X531593Y119579D01*
X531594Y119580D01*
X531602Y119622D01*
X531614Y119650D01*
X531613Y119680D01*
X531621Y119723D01*
X531621Y173288D01*
X531621Y173290D01*
X531621Y173292D01*
X531592Y173434D01*
X530621Y175778D01*
X530621Y178298D01*
X531586Y180626D01*
X533368Y182408D01*
X535696Y183373D01*
X538216Y183373D01*
X540544Y182408D01*
X542326Y180626D01*
X543291Y178298D01*
X543291Y175778D01*
X542828Y174660D01*
X542827Y174658D01*
X542826Y174657D01*
X542806Y174551D01*
X542806Y174550D01*
X542799Y174515D01*
X542799Y119723D01*
X542799Y119721D01*
X542799Y119719D01*
X542811Y119659D01*
X542813Y119622D01*
X542822Y119604D01*
X542828Y119577D01*
X543545Y117846D01*
X543545Y115326D01*
X542580Y112998D01*
X540798Y111216D01*
X538470Y110251D01*
X535950Y110251D01*
G37*
%LPD*%
%LPC*%
G36*
X500136Y110251D02*
X500136Y110251D01*
X497808Y111216D01*
X496026Y112998D01*
X495061Y115326D01*
X495061Y117846D01*
X495778Y119577D01*
X495779Y119579D01*
X495780Y119580D01*
X495788Y119622D01*
X495800Y119650D01*
X495799Y119680D01*
X495807Y119723D01*
X495807Y174874D01*
X495807Y174876D01*
X495807Y174877D01*
X495794Y174940D01*
X495794Y174959D01*
X495789Y174968D01*
X495778Y175019D01*
X495569Y175524D01*
X495569Y178044D01*
X495778Y178549D01*
X495779Y178551D01*
X495780Y178552D01*
X495807Y178694D01*
X495807Y179099D01*
X496093Y179385D01*
X496094Y179387D01*
X496096Y179388D01*
X496176Y179508D01*
X496534Y180372D01*
X498316Y182154D01*
X500644Y183119D01*
X503164Y183119D01*
X505492Y182154D01*
X507274Y180372D01*
X508239Y178044D01*
X508239Y175524D01*
X507274Y173196D01*
X507096Y173017D01*
X507056Y172953D01*
X507012Y172891D01*
X507010Y172879D01*
X507005Y172870D01*
X507001Y172833D01*
X506985Y172749D01*
X506985Y119723D01*
X506985Y119721D01*
X506985Y119719D01*
X506997Y119659D01*
X506999Y119622D01*
X507008Y119604D01*
X507014Y119577D01*
X507731Y117846D01*
X507731Y115326D01*
X506766Y112998D01*
X504984Y111216D01*
X502656Y110251D01*
X500136Y110251D01*
G37*
%LPD*%
%LPC*%
G36*
X1061730Y111013D02*
X1061730Y111013D01*
X1059402Y111978D01*
X1057620Y113760D01*
X1056655Y116088D01*
X1056655Y118608D01*
X1057620Y120936D01*
X1058306Y121623D01*
X1058346Y121687D01*
X1058390Y121749D01*
X1058392Y121761D01*
X1058397Y121770D01*
X1058401Y121807D01*
X1058417Y121891D01*
X1058417Y174155D01*
X1058417Y174157D01*
X1058417Y174159D01*
X1058388Y174301D01*
X1057671Y176032D01*
X1057671Y178552D01*
X1058636Y180880D01*
X1060418Y182662D01*
X1062746Y183627D01*
X1065266Y183627D01*
X1067594Y182662D01*
X1069376Y180880D01*
X1070341Y178552D01*
X1070341Y176032D01*
X1069624Y174301D01*
X1069623Y174299D01*
X1069622Y174298D01*
X1069595Y174155D01*
X1069595Y116049D01*
X1069160Y115614D01*
X1069159Y115613D01*
X1069157Y115612D01*
X1069077Y115491D01*
X1068360Y113760D01*
X1066578Y111978D01*
X1064250Y111013D01*
X1061730Y111013D01*
G37*
%LPD*%
%LPC*%
G36*
X781314Y112029D02*
X781314Y112029D01*
X778986Y112994D01*
X777204Y114776D01*
X776239Y117104D01*
X776239Y119624D01*
X776956Y121355D01*
X776957Y121357D01*
X776958Y121358D01*
X776985Y121501D01*
X776985Y175171D01*
X776985Y175173D01*
X776985Y175175D01*
X776956Y175317D01*
X776239Y177048D01*
X776239Y179568D01*
X777204Y181896D01*
X778986Y183678D01*
X781314Y184643D01*
X783834Y184643D01*
X786162Y183678D01*
X787944Y181896D01*
X788909Y179568D01*
X788909Y177048D01*
X788192Y175317D01*
X788191Y175315D01*
X788190Y175314D01*
X788163Y175171D01*
X788163Y121501D01*
X788163Y121499D01*
X788163Y121497D01*
X788192Y121355D01*
X788909Y119624D01*
X788909Y117104D01*
X787944Y114776D01*
X786162Y112994D01*
X783834Y112029D01*
X781314Y112029D01*
G37*
%LPD*%
%LPC*%
G36*
X1097544Y112283D02*
X1097544Y112283D01*
X1095216Y113248D01*
X1093434Y115030D01*
X1092469Y117358D01*
X1092469Y119878D01*
X1093434Y122206D01*
X1093612Y122385D01*
X1093652Y122449D01*
X1093696Y122511D01*
X1093698Y122523D01*
X1093703Y122532D01*
X1093707Y122569D01*
X1093723Y122653D01*
X1093723Y174663D01*
X1093723Y174665D01*
X1093723Y174667D01*
X1093694Y174809D01*
X1092977Y176540D01*
X1092977Y179060D01*
X1093942Y181388D01*
X1095724Y183170D01*
X1098052Y184135D01*
X1100572Y184135D01*
X1102900Y183170D01*
X1104682Y181388D01*
X1105647Y179060D01*
X1105647Y176540D01*
X1104930Y174809D01*
X1104929Y174807D01*
X1104928Y174806D01*
X1104901Y174663D01*
X1104901Y120528D01*
X1104901Y120527D01*
X1104901Y120525D01*
X1104930Y120383D01*
X1105139Y119878D01*
X1105139Y117358D01*
X1104930Y116853D01*
X1104929Y116851D01*
X1104928Y116850D01*
X1104919Y116803D01*
X1104891Y116761D01*
X1104174Y115030D01*
X1102392Y113248D01*
X1100064Y112283D01*
X1097544Y112283D01*
G37*
%LPD*%
%LPC*%
G36*
X816366Y114061D02*
X816366Y114061D01*
X814038Y115026D01*
X812256Y116808D01*
X811291Y119136D01*
X811291Y121656D01*
X812262Y124000D01*
X812263Y124002D01*
X812264Y124004D01*
X812291Y124146D01*
X812291Y174917D01*
X812291Y174919D01*
X812291Y174921D01*
X812262Y175063D01*
X811545Y176794D01*
X811545Y179314D01*
X812510Y181642D01*
X814292Y183424D01*
X816620Y184389D01*
X819140Y184389D01*
X821468Y183424D01*
X823250Y181642D01*
X824215Y179314D01*
X824215Y176794D01*
X823498Y175063D01*
X823497Y175061D01*
X823496Y175060D01*
X823469Y174917D01*
X823469Y122919D01*
X823469Y122918D01*
X823469Y122916D01*
X823498Y122774D01*
X823961Y121656D01*
X823961Y119136D01*
X822996Y116808D01*
X821214Y115026D01*
X818886Y114061D01*
X816366Y114061D01*
G37*
%LPD*%
%LPC*%
G36*
X746516Y113807D02*
X746516Y113807D01*
X744188Y114772D01*
X742406Y116554D01*
X741441Y118882D01*
X741441Y121402D01*
X742412Y123746D01*
X742413Y123748D01*
X742414Y123750D01*
X742426Y123815D01*
X742434Y123833D01*
X742434Y123852D01*
X742441Y123892D01*
X742441Y174663D01*
X742441Y174665D01*
X742441Y174667D01*
X742412Y174809D01*
X741695Y176540D01*
X741695Y179060D01*
X742660Y181388D01*
X744442Y183170D01*
X746770Y184135D01*
X749290Y184135D01*
X751618Y183170D01*
X753400Y181388D01*
X754365Y179060D01*
X754365Y176540D01*
X753648Y174809D01*
X753647Y174807D01*
X753646Y174806D01*
X753619Y174663D01*
X753619Y122665D01*
X753619Y122664D01*
X753619Y122662D01*
X753648Y122520D01*
X754111Y121402D01*
X754111Y118882D01*
X753146Y116554D01*
X751364Y114772D01*
X749036Y113807D01*
X746516Y113807D01*
G37*
%LPD*%
%LPC*%
G36*
X450182Y719581D02*
X450182Y719581D01*
X447801Y721962D01*
X447801Y740570D01*
X450182Y742951D01*
X468790Y742951D01*
X471171Y740570D01*
X471171Y721962D01*
X468790Y719581D01*
X450182Y719581D01*
G37*
%LPD*%
%LPC*%
G36*
X927340Y725423D02*
X927340Y725423D01*
X920495Y732268D01*
X920495Y741948D01*
X927340Y748793D01*
X937020Y748793D01*
X943865Y741948D01*
X943865Y732268D01*
X937020Y725423D01*
X927340Y725423D01*
G37*
%LPD*%
%LPC*%
G36*
X952740Y725423D02*
X952740Y725423D01*
X945895Y732268D01*
X945895Y741948D01*
X952740Y748793D01*
X962420Y748793D01*
X969265Y741948D01*
X969265Y732268D01*
X962420Y725423D01*
X952740Y725423D01*
G37*
%LPD*%
%LPC*%
G36*
X978140Y700023D02*
X978140Y700023D01*
X971295Y706868D01*
X971295Y716548D01*
X978140Y723393D01*
X987820Y723393D01*
X994665Y716548D01*
X994665Y706868D01*
X987820Y700023D01*
X978140Y700023D01*
G37*
%LPD*%
%LPC*%
G36*
X800340Y725423D02*
X800340Y725423D01*
X793495Y732268D01*
X793495Y741948D01*
X800340Y748793D01*
X810020Y748793D01*
X816865Y741948D01*
X816865Y732268D01*
X810020Y725423D01*
X800340Y725423D01*
G37*
%LPD*%
%LPC*%
G36*
X876540Y725423D02*
X876540Y725423D01*
X869695Y732268D01*
X869695Y741948D01*
X876540Y748793D01*
X886220Y748793D01*
X893065Y741948D01*
X893065Y732268D01*
X886220Y725423D01*
X876540Y725423D01*
G37*
%LPD*%
%LPC*%
G36*
X901940Y725423D02*
X901940Y725423D01*
X895095Y732268D01*
X895095Y741948D01*
X901940Y748793D01*
X911620Y748793D01*
X918465Y741948D01*
X918465Y732268D01*
X911620Y725423D01*
X901940Y725423D01*
G37*
%LPD*%
%LPC*%
G36*
X825740Y725423D02*
X825740Y725423D01*
X818895Y732268D01*
X818895Y741948D01*
X825740Y748793D01*
X835420Y748793D01*
X842265Y741948D01*
X842265Y732268D01*
X835420Y725423D01*
X825740Y725423D01*
G37*
%LPD*%
%LPC*%
G36*
X1155940Y725423D02*
X1155940Y725423D01*
X1149095Y732268D01*
X1149095Y741948D01*
X1155940Y748793D01*
X1165620Y748793D01*
X1172465Y741948D01*
X1172465Y732268D01*
X1165620Y725423D01*
X1155940Y725423D01*
G37*
%LPD*%
%LPC*%
G36*
X1130540Y725423D02*
X1130540Y725423D01*
X1123695Y732268D01*
X1123695Y741948D01*
X1130540Y748793D01*
X1140220Y748793D01*
X1147065Y741948D01*
X1147065Y732268D01*
X1140220Y725423D01*
X1130540Y725423D01*
G37*
%LPD*%
%LPC*%
G36*
X1054340Y725423D02*
X1054340Y725423D01*
X1047495Y732268D01*
X1047495Y741948D01*
X1054340Y748793D01*
X1064020Y748793D01*
X1070865Y741948D01*
X1070865Y732268D01*
X1064020Y725423D01*
X1054340Y725423D01*
G37*
%LPD*%
%LPC*%
G36*
X1028940Y725423D02*
X1028940Y725423D01*
X1022095Y732268D01*
X1022095Y741948D01*
X1028940Y748793D01*
X1038620Y748793D01*
X1045465Y741948D01*
X1045465Y732268D01*
X1038620Y725423D01*
X1028940Y725423D01*
G37*
%LPD*%
%LPC*%
G36*
X978140Y725423D02*
X978140Y725423D01*
X971295Y732268D01*
X971295Y741948D01*
X978140Y748793D01*
X987820Y748793D01*
X994665Y741948D01*
X994665Y732268D01*
X987820Y725423D01*
X978140Y725423D01*
G37*
%LPD*%
%LPC*%
G36*
X952740Y700023D02*
X952740Y700023D01*
X945895Y706868D01*
X945895Y716548D01*
X952740Y723393D01*
X962420Y723393D01*
X969265Y716548D01*
X969265Y706868D01*
X962420Y700023D01*
X952740Y700023D01*
G37*
%LPD*%
%LPC*%
G36*
X901940Y700023D02*
X901940Y700023D01*
X895095Y706868D01*
X895095Y716548D01*
X901940Y723393D01*
X911620Y723393D01*
X918465Y716548D01*
X918465Y706868D01*
X911620Y700023D01*
X901940Y700023D01*
G37*
%LPD*%
%LPC*%
G36*
X1079740Y725423D02*
X1079740Y725423D01*
X1072895Y732268D01*
X1072895Y741948D01*
X1079740Y748793D01*
X1089420Y748793D01*
X1096265Y741948D01*
X1096265Y732268D01*
X1089420Y725423D01*
X1079740Y725423D01*
G37*
%LPD*%
%LPC*%
G36*
X774940Y700023D02*
X774940Y700023D01*
X768095Y706868D01*
X768095Y716548D01*
X774940Y723393D01*
X784620Y723393D01*
X791465Y716548D01*
X791465Y706868D01*
X784620Y700023D01*
X774940Y700023D01*
G37*
%LPD*%
%LPC*%
G36*
X825740Y700023D02*
X825740Y700023D01*
X818895Y706868D01*
X818895Y716548D01*
X825740Y723393D01*
X835420Y723393D01*
X842265Y716548D01*
X842265Y706868D01*
X835420Y700023D01*
X825740Y700023D01*
G37*
%LPD*%
%LPC*%
G36*
X876540Y700023D02*
X876540Y700023D01*
X869695Y706868D01*
X869695Y716548D01*
X876540Y723393D01*
X886220Y723393D01*
X893065Y716548D01*
X893065Y706868D01*
X886220Y700023D01*
X876540Y700023D01*
G37*
%LPD*%
%LPC*%
G36*
X927340Y700023D02*
X927340Y700023D01*
X920495Y706868D01*
X920495Y716548D01*
X927340Y723393D01*
X937020Y723393D01*
X943865Y716548D01*
X943865Y706868D01*
X937020Y700023D01*
X927340Y700023D01*
G37*
%LPD*%
%LPC*%
G36*
X1003540Y700023D02*
X1003540Y700023D01*
X996695Y706868D01*
X996695Y716548D01*
X1003540Y723393D01*
X1013220Y723393D01*
X1020065Y716548D01*
X1020065Y706868D01*
X1013220Y700023D01*
X1003540Y700023D01*
G37*
%LPD*%
%LPC*%
G36*
X1028940Y700023D02*
X1028940Y700023D01*
X1022095Y706868D01*
X1022095Y716548D01*
X1028940Y723393D01*
X1038620Y723393D01*
X1045465Y716548D01*
X1045465Y706868D01*
X1038620Y700023D01*
X1028940Y700023D01*
G37*
%LPD*%
%LPC*%
G36*
X1079740Y700023D02*
X1079740Y700023D01*
X1072895Y706868D01*
X1072895Y716548D01*
X1079740Y723393D01*
X1089420Y723393D01*
X1096265Y716548D01*
X1096265Y706868D01*
X1089420Y700023D01*
X1079740Y700023D01*
G37*
%LPD*%
%LPC*%
G36*
X1155940Y700023D02*
X1155940Y700023D01*
X1149095Y706868D01*
X1149095Y716548D01*
X1155940Y723393D01*
X1165620Y723393D01*
X1172465Y716548D01*
X1172465Y706868D01*
X1165620Y700023D01*
X1155940Y700023D01*
G37*
%LPD*%
%LPC*%
G36*
X851140Y700023D02*
X851140Y700023D01*
X844295Y706868D01*
X844295Y716548D01*
X851140Y723393D01*
X860820Y723393D01*
X867665Y716548D01*
X867665Y706868D01*
X860820Y700023D01*
X851140Y700023D01*
G37*
%LPD*%
%LPC*%
G36*
X1130540Y700023D02*
X1130540Y700023D01*
X1123695Y706868D01*
X1123695Y716548D01*
X1130540Y723393D01*
X1140220Y723393D01*
X1147065Y716548D01*
X1147065Y706868D01*
X1140220Y700023D01*
X1130540Y700023D01*
G37*
%LPD*%
%LPC*%
G36*
X1105140Y725423D02*
X1105140Y725423D01*
X1098295Y732268D01*
X1098295Y741948D01*
X1105140Y748793D01*
X1114820Y748793D01*
X1121665Y741948D01*
X1121665Y732268D01*
X1114820Y725423D01*
X1105140Y725423D01*
G37*
%LPD*%
%LPC*%
G36*
X1105140Y700023D02*
X1105140Y700023D01*
X1098295Y706868D01*
X1098295Y716548D01*
X1105140Y723393D01*
X1114820Y723393D01*
X1121665Y716548D01*
X1121665Y706868D01*
X1114820Y700023D01*
X1105140Y700023D01*
G37*
%LPD*%
%LPC*%
G36*
X774940Y725423D02*
X774940Y725423D01*
X768095Y732268D01*
X768095Y741948D01*
X774940Y748793D01*
X784620Y748793D01*
X791465Y741948D01*
X791465Y732268D01*
X784620Y725423D01*
X774940Y725423D01*
G37*
%LPD*%
%LPC*%
G36*
X346672Y832611D02*
X346672Y832611D01*
X342377Y834390D01*
X339090Y837677D01*
X337311Y841972D01*
X337311Y846620D01*
X339090Y850915D01*
X342377Y854202D01*
X346672Y855981D01*
X351320Y855981D01*
X355615Y854202D01*
X358902Y850915D01*
X360681Y846620D01*
X360681Y841972D01*
X358902Y837677D01*
X355615Y834390D01*
X351320Y832611D01*
X346672Y832611D01*
G37*
%LPD*%
%LPC*%
G36*
X380962Y719581D02*
X380962Y719581D01*
X376667Y721360D01*
X373380Y724647D01*
X371601Y728942D01*
X371601Y733590D01*
X373380Y737885D01*
X376667Y741172D01*
X380962Y742951D01*
X385610Y742951D01*
X389905Y741172D01*
X393192Y737885D01*
X394971Y733590D01*
X394971Y728942D01*
X393192Y724647D01*
X389905Y721360D01*
X385610Y719581D01*
X380962Y719581D01*
G37*
%LPD*%
%LPC*%
G36*
X393662Y694181D02*
X393662Y694181D01*
X389367Y695960D01*
X386080Y699247D01*
X384301Y703542D01*
X384301Y708190D01*
X386080Y712485D01*
X389367Y715772D01*
X393662Y717551D01*
X398310Y717551D01*
X402605Y715772D01*
X405892Y712485D01*
X407671Y708190D01*
X407671Y703542D01*
X405892Y699247D01*
X402605Y695960D01*
X398310Y694181D01*
X393662Y694181D01*
G37*
%LPD*%
%LPC*%
G36*
X406362Y719581D02*
X406362Y719581D01*
X402067Y721360D01*
X398780Y724647D01*
X397001Y728942D01*
X397001Y733590D01*
X398780Y737885D01*
X402067Y741172D01*
X406362Y742951D01*
X411010Y742951D01*
X415305Y741172D01*
X418592Y737885D01*
X420371Y733590D01*
X420371Y728942D01*
X418592Y724647D01*
X415305Y721360D01*
X411010Y719581D01*
X406362Y719581D01*
G37*
%LPD*%
%LPC*%
G36*
X431762Y719581D02*
X431762Y719581D01*
X427467Y721360D01*
X424180Y724647D01*
X422401Y728942D01*
X422401Y733590D01*
X424180Y737885D01*
X427467Y741172D01*
X431762Y742951D01*
X436410Y742951D01*
X440705Y741172D01*
X443992Y737885D01*
X445771Y733590D01*
X445771Y728942D01*
X443992Y724647D01*
X440705Y721360D01*
X436410Y719581D01*
X431762Y719581D01*
G37*
%LPD*%
%LPC*%
G36*
X372072Y832611D02*
X372072Y832611D01*
X367777Y834390D01*
X364490Y837677D01*
X362711Y841972D01*
X362711Y846620D01*
X364490Y850915D01*
X367777Y854202D01*
X372072Y855981D01*
X376720Y855981D01*
X381015Y854202D01*
X384302Y850915D01*
X386081Y846620D01*
X386081Y841972D01*
X384302Y837677D01*
X381015Y834390D01*
X376720Y832611D01*
X372072Y832611D01*
G37*
%LPD*%
%LPC*%
G36*
X478752Y832611D02*
X478752Y832611D01*
X474457Y834390D01*
X471170Y837677D01*
X469391Y841972D01*
X469391Y846620D01*
X471170Y850915D01*
X474457Y854202D01*
X478752Y855981D01*
X483400Y855981D01*
X487695Y854202D01*
X490982Y850915D01*
X492761Y846620D01*
X492761Y841972D01*
X490982Y837677D01*
X487695Y834390D01*
X483400Y832611D01*
X478752Y832611D01*
G37*
%LPD*%
%LPC*%
G36*
X444462Y694181D02*
X444462Y694181D01*
X440167Y695960D01*
X436880Y699247D01*
X435101Y703542D01*
X435101Y708190D01*
X436880Y712485D01*
X440167Y715772D01*
X444462Y717551D01*
X449110Y717551D01*
X453405Y715772D01*
X456692Y712485D01*
X458471Y708190D01*
X458471Y703542D01*
X456692Y699247D01*
X453405Y695960D01*
X449110Y694181D01*
X444462Y694181D01*
G37*
%LPD*%
%LPC*%
G36*
X453352Y832611D02*
X453352Y832611D01*
X449057Y834390D01*
X445770Y837677D01*
X443991Y841972D01*
X443991Y846620D01*
X445770Y850915D01*
X449057Y854202D01*
X453352Y855981D01*
X458000Y855981D01*
X462295Y854202D01*
X465582Y850915D01*
X467361Y846620D01*
X467361Y841972D01*
X465582Y837677D01*
X462295Y834390D01*
X458000Y832611D01*
X453352Y832611D01*
G37*
%LPD*%
G36*
X549078Y844652D02*
X549078Y844652D01*
X549097Y844650D01*
X549199Y844672D01*
X549301Y844689D01*
X549318Y844698D01*
X549338Y844702D01*
X549427Y844755D01*
X549518Y844804D01*
X549532Y844818D01*
X549549Y844828D01*
X549616Y844907D01*
X549688Y844982D01*
X549696Y845000D01*
X549709Y845015D01*
X549748Y845111D01*
X549791Y845205D01*
X549793Y845225D01*
X549801Y845243D01*
X549819Y845410D01*
X549819Y862890D01*
X549816Y862910D01*
X549818Y862929D01*
X549796Y863031D01*
X549780Y863133D01*
X549770Y863150D01*
X549766Y863170D01*
X549713Y863259D01*
X549664Y863350D01*
X549650Y863364D01*
X549640Y863381D01*
X549561Y863448D01*
X549486Y863520D01*
X549468Y863528D01*
X549453Y863541D01*
X549357Y863580D01*
X549263Y863623D01*
X549243Y863625D01*
X549225Y863633D01*
X549058Y863651D01*
X532568Y863651D01*
X532537Y863646D01*
X532469Y863645D01*
X531759Y863551D01*
X531744Y863547D01*
X531729Y863547D01*
X531568Y863500D01*
X530907Y863226D01*
X530893Y863218D01*
X530878Y863214D01*
X530735Y863127D01*
X530167Y862691D01*
X530156Y862680D01*
X530143Y862672D01*
X530027Y862551D01*
X529591Y861983D01*
X529584Y861970D01*
X529573Y861958D01*
X529492Y861811D01*
X529218Y861150D01*
X529214Y861135D01*
X529207Y861121D01*
X529167Y860959D01*
X529073Y860249D01*
X529074Y860218D01*
X529067Y860150D01*
X529067Y848150D01*
X529072Y848119D01*
X529073Y848051D01*
X529167Y847341D01*
X529171Y847326D01*
X529171Y847311D01*
X529218Y847150D01*
X529492Y846489D01*
X529500Y846475D01*
X529504Y846460D01*
X529591Y846317D01*
X530027Y845749D01*
X530038Y845738D01*
X530046Y845725D01*
X530167Y845609D01*
X530735Y845173D01*
X530748Y845166D01*
X530760Y845155D01*
X530907Y845074D01*
X531568Y844800D01*
X531583Y844796D01*
X531597Y844789D01*
X531759Y844749D01*
X532469Y844655D01*
X532500Y844656D01*
X532568Y844649D01*
X549058Y844649D01*
X549078Y844652D01*
G37*
G36*
X619099Y844654D02*
X619099Y844654D01*
X619167Y844655D01*
X619877Y844749D01*
X619892Y844753D01*
X619907Y844753D01*
X620068Y844800D01*
X620729Y845074D01*
X620743Y845082D01*
X620758Y845086D01*
X620901Y845173D01*
X621469Y845609D01*
X621480Y845620D01*
X621493Y845628D01*
X621609Y845749D01*
X622045Y846317D01*
X622052Y846330D01*
X622063Y846342D01*
X622144Y846489D01*
X622418Y847150D01*
X622422Y847165D01*
X622429Y847179D01*
X622469Y847341D01*
X622563Y848051D01*
X622562Y848082D01*
X622569Y848150D01*
X622569Y860150D01*
X622564Y860181D01*
X622563Y860249D01*
X622469Y860959D01*
X622465Y860974D01*
X622465Y860989D01*
X622418Y861150D01*
X622144Y861811D01*
X622136Y861825D01*
X622132Y861840D01*
X622045Y861983D01*
X621609Y862551D01*
X621598Y862562D01*
X621590Y862575D01*
X621469Y862691D01*
X620901Y863127D01*
X620888Y863134D01*
X620876Y863145D01*
X620729Y863226D01*
X620068Y863500D01*
X620053Y863504D01*
X620039Y863511D01*
X619877Y863551D01*
X619167Y863645D01*
X619136Y863644D01*
X619068Y863651D01*
X602578Y863651D01*
X602558Y863648D01*
X602539Y863650D01*
X602437Y863628D01*
X602335Y863612D01*
X602318Y863602D01*
X602298Y863598D01*
X602209Y863545D01*
X602118Y863496D01*
X602104Y863482D01*
X602087Y863472D01*
X602020Y863393D01*
X601949Y863318D01*
X601940Y863300D01*
X601927Y863285D01*
X601888Y863189D01*
X601845Y863095D01*
X601843Y863075D01*
X601835Y863057D01*
X601817Y862890D01*
X601817Y845410D01*
X601820Y845390D01*
X601818Y845371D01*
X601840Y845269D01*
X601857Y845167D01*
X601866Y845150D01*
X601870Y845130D01*
X601923Y845041D01*
X601972Y844950D01*
X601986Y844936D01*
X601996Y844919D01*
X602075Y844852D01*
X602150Y844781D01*
X602168Y844772D01*
X602183Y844759D01*
X602279Y844720D01*
X602373Y844677D01*
X602393Y844675D01*
X602411Y844667D01*
X602578Y844649D01*
X619068Y844649D01*
X619099Y844654D01*
G37*
%LPC*%
G36*
X549715Y818335D02*
X549715Y818335D01*
X546292Y819753D01*
X543671Y822374D01*
X542253Y825797D01*
X542253Y829503D01*
X543671Y832926D01*
X546292Y835547D01*
X549715Y836965D01*
X553421Y836965D01*
X556844Y835547D01*
X559465Y832926D01*
X560883Y829503D01*
X560883Y825797D01*
X559465Y822374D01*
X556844Y819753D01*
X553421Y818335D01*
X549715Y818335D01*
G37*
%LPD*%
%LPC*%
G36*
X598215Y818335D02*
X598215Y818335D01*
X594792Y819753D01*
X592171Y822374D01*
X590753Y825797D01*
X590753Y829503D01*
X592171Y832926D01*
X594792Y835547D01*
X598215Y836965D01*
X601921Y836965D01*
X605344Y835547D01*
X607965Y832926D01*
X609383Y829503D01*
X609383Y825797D01*
X607965Y822374D01*
X605344Y819753D01*
X601921Y818335D01*
X598215Y818335D01*
G37*
%LPD*%
D10*
X459486Y731266D03*
D11*
X446786Y705866D03*
X434086Y731266D03*
X421386Y705866D03*
X408686Y731266D03*
X395986Y705866D03*
X383286Y731266D03*
X370586Y705866D03*
D12*
X495046Y765556D03*
X335026Y765556D03*
D11*
X348996Y844296D03*
X374396Y844296D03*
X481076Y844296D03*
X455676Y844296D03*
D13*
X26924Y510286D03*
D14*
X26924Y378206D03*
D13*
X212344Y510286D03*
X26924Y484886D03*
X212344Y484886D03*
D14*
X26924Y403606D03*
X212344Y378206D03*
X212344Y403606D03*
D15*
X280598Y44838D02*
X280598Y27838D01*
X315598Y27838D02*
X315598Y44838D01*
X350598Y44838D02*
X350598Y27838D01*
X385598Y27838D02*
X385598Y44838D01*
X420598Y44838D02*
X420598Y27838D01*
X455598Y27838D02*
X455598Y44838D01*
X490598Y44838D02*
X490598Y27838D01*
X525598Y27838D02*
X525598Y44838D01*
X561268Y44838D02*
X561268Y27838D01*
X596268Y27838D02*
X596268Y44838D01*
X631268Y44838D02*
X631268Y27838D01*
X666268Y27838D02*
X666268Y44838D01*
X701268Y44838D02*
X701268Y27838D01*
X736268Y27838D02*
X736268Y44838D01*
X771268Y44838D02*
X771268Y27838D01*
X806268Y27838D02*
X806268Y44838D01*
X841938Y44838D02*
X841938Y27838D01*
X876938Y27838D02*
X876938Y44838D01*
X911938Y44838D02*
X911938Y27838D01*
X946938Y27838D02*
X946938Y44838D01*
X981938Y44838D02*
X981938Y27838D01*
X1016938Y27838D02*
X1016938Y44838D01*
X1051938Y44838D02*
X1051938Y27838D01*
X1086938Y27838D02*
X1086938Y44838D01*
D16*
X280162Y730664D03*
D17*
X279908Y803872D03*
X242546Y762442D03*
D15*
X1083843Y825366D02*
X1083843Y842366D01*
X1048843Y842366D02*
X1048843Y825366D01*
X1013843Y825366D02*
X1013843Y842366D01*
X978843Y842366D02*
X978843Y825366D01*
X943843Y825366D02*
X943843Y842366D01*
X908843Y842366D02*
X908843Y825366D01*
X873843Y825366D02*
X873843Y842366D01*
X838843Y842366D02*
X838843Y825366D01*
X803843Y825366D02*
X803843Y842366D01*
D18*
X154070Y847742D02*
X154070Y823942D01*
X204070Y823942D02*
X204070Y847742D01*
D19*
X242062Y599186D02*
X242062Y573786D01*
X33782Y573786D02*
X33782Y599186D01*
X84582Y599186D02*
X84582Y573786D01*
X191262Y573786D02*
X191262Y599186D01*
D20*
X551568Y827650D03*
X600068Y827650D03*
D21*
X610448Y854150D03*
X541188Y854150D03*
D15*
X768272Y842366D02*
X768272Y825366D01*
X733272Y825366D02*
X733272Y842366D01*
X698272Y842366D02*
X698272Y825366D01*
X663272Y825366D02*
X663272Y842366D01*
X139778Y44838D02*
X139778Y27838D01*
X174778Y27838D02*
X174778Y44838D01*
X209778Y44838D02*
X209778Y27838D01*
X244778Y27838D02*
X244778Y44838D01*
D22*
X1160780Y737108D03*
X1160780Y711708D03*
X1135380Y737108D03*
X1135380Y711708D03*
X1109980Y737108D03*
X1109980Y711708D03*
X1084580Y737108D03*
X1084580Y711708D03*
X1059180Y737108D03*
X1059180Y711708D03*
X1033780Y737108D03*
X1033780Y711708D03*
X1008380Y737108D03*
X1008380Y711708D03*
X982980Y737108D03*
X982980Y711708D03*
X957580Y737108D03*
X957580Y711708D03*
X932180Y737108D03*
X932180Y711708D03*
X906780Y737108D03*
X906780Y711708D03*
X881380Y737108D03*
X881380Y711708D03*
X855980Y737108D03*
X855980Y711708D03*
X830580Y737108D03*
X830580Y711708D03*
X805180Y737108D03*
X805180Y711708D03*
X779780Y737108D03*
X779780Y711708D03*
X754380Y737108D03*
X754380Y711708D03*
D23*
X271526Y94742D03*
X306324Y93980D03*
X341630Y94488D03*
X376428Y94742D03*
X410718Y94742D03*
X446278Y92202D03*
X479806Y94488D03*
X515874Y93218D03*
X550926Y93472D03*
X585597Y91821D03*
X620268Y94488D03*
X655574Y92710D03*
X689864Y92202D03*
X724281Y90805D03*
X759714Y93472D03*
X795528Y93472D03*
X829310Y92202D03*
X863854Y90678D03*
X898144Y90424D03*
X933577Y93091D03*
X968502Y91440D03*
X1003046Y92964D03*
X1036828Y91694D03*
X1070229Y91313D03*
X285750Y327914D03*
X302006Y327660D03*
X320548Y327152D03*
X335788Y327914D03*
X846582Y572214D03*
X816610Y621792D03*
X787019Y562737D03*
X650494Y605536D03*
X708406Y560832D03*
X713613Y595249D03*
X839470Y502920D03*
X826008Y488950D03*
X885952Y385826D03*
X997712Y439166D03*
X806421Y463579D03*
X367792Y569976D03*
X326898Y551688D03*
X325247Y540258D03*
X325247Y529844D03*
X325247Y518922D03*
X325247Y508000D03*
X325247Y496824D03*
X325247Y485140D03*
X327452Y475280D03*
X323088Y632968D03*
X345186Y636270D03*
X453009Y573659D03*
X486664Y541020D03*
X494792Y533400D03*
X461772Y478790D03*
X403860Y514858D03*
X406548Y531770D03*
X403860Y521970D03*
X439928Y433324D03*
X474980Y391414D03*
X354584Y325882D03*
X372618Y325882D03*
X390906Y326390D03*
X407670Y327914D03*
X426212Y329184D03*
X442468Y327660D03*
X463296Y328676D03*
X478028Y329438D03*
X495300Y328168D03*
X513334Y329438D03*
X530098Y328422D03*
X547878Y328676D03*
X568706Y328930D03*
X583438Y329184D03*
X604520Y329438D03*
X616204Y329438D03*
X635508Y327660D03*
X652526Y327660D03*
X669544Y328930D03*
X688086Y328168D03*
X705104Y327914D03*
X722630Y329184D03*
X739648Y327406D03*
X758952Y329438D03*
X777494Y327406D03*
X792226Y328422D03*
X815594Y328168D03*
X826770Y328930D03*
X845058Y327152D03*
X869696Y328676D03*
X880618Y329184D03*
X901446Y327406D03*
X914908Y328168D03*
X935482Y329184D03*
X949706Y328676D03*
X970534Y328168D03*
X984504Y329438D03*
X1003300Y329184D03*
X1018794Y327914D03*
X1037590Y329946D03*
X1055624Y329184D03*
X1071880Y329184D03*
X1089406Y329438D03*
X1107440Y329438D03*
X55805Y272796D03*
X37188Y179324D03*
X33527Y272796D03*
X27716Y272796D03*
X22098Y272796D03*
X38952Y272796D03*
X44569Y272796D03*
X50187Y272796D03*
X61423Y272796D03*
X31481Y179324D03*
X20335Y179324D03*
X25952Y179324D03*
X42806Y179324D03*
X48424Y179324D03*
X54042Y179324D03*
X59660Y179324D03*
X1177290Y216662D03*
X1177290Y225806D03*
X1177290Y233426D03*
X1177036Y166624D03*
X1177290Y240792D03*
X1177290Y246380D03*
X1177290Y251968D03*
X1177290Y174498D03*
X1177036Y159258D03*
X1177290Y188214D03*
X1177544Y181356D03*
X1176782Y198120D03*
X1177290Y207010D03*
X329946Y415798D03*
X329946Y421386D03*
X567394Y498306D03*
X567690Y509270D03*
X877862Y654342D03*
X886498Y645706D03*
X893737Y638467D03*
X900087Y632117D03*
X908469Y623735D03*
X873328Y658876D03*
X882180Y650024D03*
X531368Y767080D03*
X658622Y766318D03*
X546354Y661416D03*
X582845Y652695D03*
X269494Y326644D03*
X252984Y328168D03*
X236220Y327406D03*
X220218Y327406D03*
X201930Y327914D03*
X185166Y330200D03*
X168148Y329438D03*
X150876Y329438D03*
X235966Y93726D03*
X199898Y94488D03*
X164592Y92710D03*
X128270Y93726D03*
X693420Y679704D03*
X619760Y646684D03*
X899414Y550926D03*
X1177036Y151892D03*
X1176782Y143510D03*
X1176782Y134366D03*
X1176528Y126492D03*
X1176274Y118364D03*
X1176274Y108966D03*
X103811Y178816D03*
X94921Y179070D03*
X87047Y179070D03*
X79681Y179070D03*
X72569Y179070D03*
X65711Y179324D03*
X104573Y273050D03*
X97461Y273050D03*
X89841Y273050D03*
X82475Y273050D03*
X74601Y273050D03*
X67997Y272796D03*
X783082Y360680D03*
X877443Y341503D03*
D24*
X994029Y341503D01*
X1005332Y352806D01*
D23*
X1005332Y352806D03*
D24*
X1031748Y379222D01*
X1031748Y379984D01*
X1032764Y379984D01*
D23*
X1032764Y379984D03*
D25*
X514350Y385318D03*
D26*
X657606Y403606D02*
X657606Y404114D01*
X657606Y403606D02*
X628142Y374142D01*
D25*
X657606Y404114D03*
X505714Y380746D03*
D26*
X648716Y404114D02*
X648970Y404114D01*
X648716Y404114D02*
X624840Y380238D01*
D25*
X648970Y404114D03*
D26*
X506222Y380238D02*
X505714Y380746D01*
D25*
X495554Y377952D03*
D26*
X505714Y367792D01*
X630936Y367792D01*
X666496Y403352D01*
D25*
X666496Y403352D03*
D26*
X512318Y374142D02*
X505714Y380746D01*
X512318Y374142D02*
X628142Y374142D01*
X514350Y384048D02*
X514350Y385318D01*
X514350Y384048D02*
X518160Y380238D01*
X624840Y380238D01*
D25*
X519430Y390398D03*
D26*
X525526Y390398D01*
X528574Y387350D01*
X621284Y387350D01*
X639064Y405130D02*
X639318Y405130D01*
X639318Y405384D01*
D25*
X639318Y405384D03*
D26*
X639064Y405130D02*
X621284Y387350D01*
X524002Y394970D02*
X519430Y390398D01*
X629920Y405892D02*
X630682Y405892D01*
X630682Y406654D01*
D25*
X630682Y406654D03*
D26*
X618998Y394970D02*
X524002Y394970D01*
X618998Y394970D02*
X629920Y405892D01*
D25*
X853186Y422910D03*
D26*
X830326Y400050D01*
X789686Y400050D01*
X789686Y400304D01*
D25*
X789686Y400304D03*
X773176Y409448D03*
D26*
X773176Y422402D01*
D25*
X790194Y439420D03*
D26*
X773176Y422402D01*
X790194Y439420D02*
X773684Y455930D01*
X773684Y468884D01*
D25*
X773684Y468884D03*
D23*
X535432Y442976D03*
D24*
X540766Y437642D01*
X540766Y425196D01*
D23*
X540766Y425196D03*
D24*
X541528Y454152D02*
X592074Y454152D01*
D23*
X541528Y454152D03*
D24*
X512826Y454152D01*
X495300Y436626D02*
X476250Y436626D01*
X473202Y439674D01*
X473202Y441198D02*
X473082Y441318D01*
D23*
X473082Y441318D03*
D24*
X495300Y436626D02*
X512826Y454152D01*
X473202Y441198D02*
X473202Y439674D01*
X592074Y454152D02*
X609092Y437134D01*
X690626Y437134D01*
D23*
X690626Y437134D03*
X818716Y460174D03*
D27*
X821837Y463296D01*
X882904Y486664D02*
X883412Y486664D01*
X883412Y487172D01*
D23*
X883412Y487172D03*
X903732Y504666D03*
D27*
X904970Y503428D01*
X925830Y503428D01*
X933704Y511302D01*
X943102Y563372D02*
X945896Y566166D01*
X943102Y563372D02*
X943102Y554257D01*
D23*
X945896Y566166D03*
X960628Y590296D03*
D27*
X985520Y615188D01*
X985520Y635508D02*
X971296Y649732D01*
D23*
X971296Y649732D03*
D27*
X859536Y463296D02*
X821837Y463296D01*
X859536Y463296D02*
X882904Y486664D01*
X933704Y511302D02*
X933704Y544859D01*
X943102Y554257D01*
X985520Y615188D02*
X985520Y635508D01*
D23*
X582295Y404749D03*
D24*
X582295Y413131D01*
D23*
X683768Y430276D03*
D24*
X599440Y430276D02*
X582295Y413131D01*
X599440Y430276D02*
X683768Y430276D01*
D23*
X980694Y652304D03*
D27*
X990346Y642652D01*
X990346Y612902D01*
X967486Y590042D01*
X967486Y585978D01*
X967179Y586285D01*
D23*
X967179Y586285D03*
X953548Y566039D03*
D27*
X946436Y558927D01*
X946436Y552115D01*
X937768Y543447D01*
X937768Y509524D01*
X926846Y498602D01*
X926846Y497840D01*
X926592Y497586D01*
X905002Y497586D01*
D23*
X905002Y497586D03*
X887730Y480822D03*
D27*
X866394Y459486D01*
X828040Y459486D02*
X824992Y456438D01*
D23*
X824992Y456438D03*
D27*
X828040Y459486D02*
X866394Y459486D01*
D23*
X591312Y409956D03*
D24*
X591312Y412242D01*
X602234Y423164D02*
X674624Y423164D01*
D23*
X674624Y423164D03*
D24*
X602234Y423164D02*
X591312Y412242D01*
D23*
X993394Y658622D03*
D27*
X998982Y653034D01*
X998982Y608471D01*
X980948Y590437D01*
X980948Y590296D01*
X978408Y587756D01*
D23*
X978408Y577088D03*
X956056Y549656D03*
D27*
X944880Y538480D01*
X935228Y486918D02*
X934720Y486918D01*
X933704Y485902D01*
D23*
X933704Y485902D03*
X912114Y464820D03*
D27*
X900684Y453390D01*
X833882Y453390D01*
X833882Y453644D01*
D23*
X833882Y453644D03*
D27*
X978408Y577088D02*
X978408Y587756D01*
X944880Y538480D02*
X944880Y496570D01*
X935228Y486918D01*
D24*
X601980Y415544D02*
X601726Y415544D01*
D23*
X601980Y415544D03*
X673100Y415290D03*
D24*
X602234Y415290D01*
X601980Y415544D01*
D23*
X833628Y446564D03*
D27*
X835882Y448818D01*
X904748Y448818D02*
X918718Y462788D01*
X918718Y465582D01*
X911606Y472694D02*
X910590Y472694D01*
D23*
X910590Y472694D03*
X931926Y495300D03*
D27*
X940562Y503936D01*
X940562Y541274D01*
X958342Y559054D02*
X958342Y560578D01*
X958342Y559054D02*
X940562Y541274D01*
D23*
X958342Y560578D03*
X972820Y581914D03*
D27*
X972820Y588518D01*
X994156Y609854D01*
X994156Y648208D01*
D23*
X981964Y659384D03*
D27*
X904748Y448818D02*
X835882Y448818D01*
X911606Y472694D02*
X918718Y465582D01*
X994156Y648208D02*
X982980Y659384D01*
X981964Y659384D01*
D23*
X531876Y460248D03*
D24*
X508000Y460248D01*
X500126Y452374D01*
D23*
X500126Y452374D03*
X447294Y591312D03*
D24*
X466852Y591312D01*
D23*
X466852Y591312D03*
X498856Y590550D03*
D24*
X487680Y579374D01*
X487680Y577850D01*
D23*
X487680Y577850D03*
D24*
X421386Y703326D02*
X421386Y705866D01*
X421386Y703326D02*
X403098Y685038D01*
X336296Y685038D02*
X322326Y671068D01*
X322326Y669544D01*
D23*
X322326Y669544D03*
D24*
X336296Y685038D02*
X403098Y685038D01*
D23*
X588772Y488442D03*
D24*
X588772Y530860D01*
X589534Y531622D01*
X589788Y531368D01*
D23*
X589788Y531368D03*
X551180Y570230D03*
D24*
X529590Y591820D01*
X529590Y592836D01*
D23*
X529590Y592836D03*
X597408Y488188D03*
D24*
X597408Y536194D01*
D23*
X597408Y536194D03*
X558038Y576072D03*
D24*
X536956Y597154D01*
X536956Y597662D01*
D23*
X536956Y597662D03*
X322072Y582422D03*
D26*
X368046Y536448D01*
X368046Y521970D01*
D23*
X368046Y521970D03*
X478536Y536702D03*
D26*
X478536Y623062D01*
X473710Y627888D01*
D23*
X473710Y627888D03*
X954225Y438859D03*
D24*
X908451Y484632D01*
X895096Y484632D01*
X733806Y645922D02*
X707390Y645922D01*
X707390Y645668D01*
D23*
X707390Y645668D03*
X655066Y646176D03*
D24*
X646938Y646176D01*
X609092Y684022D02*
X609092Y698754D01*
X567436Y740410D01*
X564134Y740410D01*
D23*
X564134Y740410D03*
D24*
X733806Y645922D02*
X895096Y484632D01*
X646938Y646176D02*
X609092Y684022D01*
D23*
X1080516Y669036D03*
D27*
X1080516Y627634D01*
X1064514Y497586D02*
X1064514Y497078D01*
D23*
X1064514Y497078D03*
D27*
X1028954Y576072D02*
X1080516Y627634D01*
X1028954Y576072D02*
X1028954Y533146D01*
X1064514Y497586D01*
D23*
X566928Y750824D03*
D24*
X615442Y702310D01*
X615442Y687070D01*
X647700Y654812D01*
X654304Y654812D01*
D23*
X654304Y654812D03*
X694944Y654812D03*
D24*
X731520Y654812D01*
X896112Y490220D01*
X913130Y490220D01*
X958850Y444500D01*
D23*
X958850Y444500D03*
X1099566Y675640D03*
D27*
X1099566Y637794D01*
X1040638Y578866D01*
X1040638Y529844D01*
X1061212Y509270D01*
X1060450Y508508D01*
D23*
X1060450Y508508D03*
D27*
X754380Y705866D02*
X754380Y711708D01*
X729488Y680974D02*
X729488Y674370D01*
X867918Y535940D01*
X871728Y535940D01*
D23*
X871728Y535940D03*
D27*
X729488Y680974D02*
X754380Y705866D01*
D23*
X821182Y473710D03*
D27*
X814324Y466852D01*
X814324Y453898D01*
X828326Y439896D02*
X828326Y438202D01*
D23*
X828326Y438202D03*
D27*
X828326Y439896D02*
X814324Y453898D01*
D23*
X913130Y529082D03*
D24*
X864362Y529082D01*
X723900Y669544D01*
X723900Y682752D01*
D23*
X723900Y682752D03*
D27*
X737362Y720090D02*
X754380Y737108D01*
X737362Y696214D02*
X723900Y682752D01*
X737362Y696214D02*
X737362Y720090D01*
D23*
X1128522Y678434D03*
D27*
X1128522Y651510D01*
X1058164Y581152D01*
X1058164Y552196D01*
X1059434Y550926D01*
D23*
X1059434Y550926D03*
X689610Y389890D03*
D28*
X735838Y389890D01*
X736092Y389636D01*
X736092Y389128D01*
D23*
X736092Y389128D03*
X740918Y376682D03*
D28*
X745490Y372110D01*
X814832Y372110D02*
X830291Y356651D01*
D23*
X830291Y356651D03*
D28*
X793496Y372110D02*
X745490Y372110D01*
X793496Y372110D02*
X814832Y372110D01*
D23*
X1109218Y679196D03*
D27*
X1109218Y642874D01*
X1047750Y581406D02*
X1047750Y577342D01*
D23*
X1047750Y577342D03*
D27*
X1047750Y581406D02*
X1109218Y642874D01*
D23*
X1047242Y655828D03*
D27*
X1047242Y614680D01*
X1009396Y576834D01*
D23*
X1009396Y576834D03*
X1026922Y656590D03*
D27*
X1026922Y613156D01*
X995426Y560324D02*
X976122Y541020D01*
X995426Y560324D02*
X995426Y581660D01*
X1026922Y613156D01*
D23*
X976122Y541020D03*
X1008888Y658876D03*
D27*
X1008888Y606806D01*
X987552Y585470D01*
X987552Y566166D01*
X969772Y548386D01*
D23*
X969772Y548386D03*
X1017778Y658368D03*
D27*
X1017778Y609092D01*
X1012190Y603504D01*
D23*
X957580Y536448D03*
D27*
X990600Y581914D02*
X1012190Y603504D01*
X964692Y536448D02*
X957580Y536448D01*
X964692Y536448D02*
X990600Y562356D01*
X990600Y581914D01*
D23*
X983250Y571754D03*
D27*
X983742Y572246D01*
X983742Y589280D02*
X1003300Y608838D01*
X1003300Y656590D01*
X1001014Y658876D01*
X1000760Y658876D01*
D23*
X1000760Y658876D03*
D27*
X983742Y589280D02*
X983742Y572246D01*
D23*
X292354Y117856D03*
D24*
X290322Y119888D01*
X290322Y178308D01*
D23*
X290322Y178308D03*
X326009Y115189D03*
D24*
X326009Y175641D01*
X325882Y175768D01*
X325882Y177800D01*
D23*
X325882Y177800D03*
X360680Y114046D03*
D24*
X360680Y177038D01*
X361188Y177546D01*
X361061Y177673D01*
D23*
X361061Y177673D03*
X395224Y178562D03*
D24*
X395224Y114808D01*
X395478Y114554D01*
D23*
X395478Y114554D03*
X431165Y114427D03*
D24*
X431165Y176403D01*
X431800Y177038D01*
X431673Y177165D01*
D23*
X431673Y177165D03*
X466598Y176784D03*
X466598Y115316D03*
D24*
X466598Y176784D01*
D23*
X501396Y116586D03*
D24*
X501396Y176784D01*
X501904Y176784D01*
D23*
X501904Y176784D03*
X537210Y116586D03*
D24*
X537210Y176784D01*
X536956Y177038D01*
D23*
X536956Y177038D03*
X571119Y115951D03*
D24*
X571119Y176403D01*
X571246Y176530D01*
D23*
X571246Y176530D03*
X607060Y177800D03*
D24*
X607060Y116332D01*
X606552Y115824D01*
D23*
X606552Y115824D03*
X641604Y114300D03*
D24*
X642620Y115316D01*
X642620Y176276D01*
D23*
X642620Y176276D03*
X677418Y115824D03*
D24*
X677418Y177292D01*
D23*
X677418Y177292D03*
X712724Y178562D03*
D24*
X712724Y116840D01*
X712978Y116840D01*
D23*
X712978Y116840D03*
X748030Y177800D03*
D24*
X748030Y120396D01*
X747776Y120142D01*
D23*
X747776Y120142D03*
X782574Y178308D03*
D24*
X782574Y118364D01*
D23*
X782574Y118364D03*
X817880Y178054D03*
D24*
X817880Y120650D01*
X817626Y120396D01*
D23*
X817626Y120396D03*
X852678Y178562D03*
D24*
X852678Y118618D01*
X853186Y118110D01*
D23*
X853186Y118110D03*
X888492Y177800D03*
D24*
X888492Y116840D01*
D23*
X888492Y116840D03*
X923290Y178816D03*
D24*
X923290Y116078D01*
X922782Y115570D01*
X922909Y115443D01*
D23*
X922909Y115443D03*
X957580Y179324D03*
D24*
X957580Y116332D01*
X956564Y115316D01*
X956691Y115189D01*
D23*
X956691Y115189D03*
X993648Y179578D03*
D24*
X993648Y118364D01*
X992378Y117094D01*
D23*
X992378Y117094D03*
X1028700Y178816D03*
D24*
X1028700Y119126D01*
X1027684Y118110D01*
X1027684Y117602D01*
X1027938Y117348D01*
D23*
X1027938Y117348D03*
X1064006Y177292D03*
D24*
X1064006Y118364D01*
X1062990Y117348D01*
D23*
X1062990Y117348D03*
X1099312Y177800D03*
D24*
X1099312Y119126D01*
X1098804Y118618D01*
D23*
X1098804Y118618D03*
X1085596Y675640D03*
D27*
X1085596Y628650D01*
X1036574Y554736D02*
X1033780Y551942D01*
D23*
X1033780Y551942D03*
D27*
X1036574Y579628D02*
X1085596Y628650D01*
X1036574Y579628D02*
X1036574Y554736D01*
D23*
X1056640Y663448D03*
D27*
X1063498Y656590D01*
X1063498Y625094D01*
X1015238Y576834D01*
X1015238Y568706D01*
X1018540Y565404D02*
X1021588Y565404D01*
X1018540Y565404D02*
X1015238Y568706D01*
D23*
X1021588Y565404D03*
X999744Y531622D03*
D27*
X964930Y496808D01*
X964930Y475742D01*
D23*
X964930Y475742D03*
X928878Y446278D03*
D27*
X928878Y423164D01*
X925322Y419608D01*
D23*
X925322Y419608D03*
X1067308Y661670D03*
D27*
X1067308Y624078D01*
X1021588Y578358D01*
X1021588Y574802D01*
D23*
X1021588Y574802D03*
X992632Y531114D03*
D27*
X992632Y529590D01*
X958088Y495046D01*
X958088Y482092D01*
D23*
X958088Y482092D03*
X920648Y441046D03*
D27*
X920648Y409092D01*
X915924Y404368D01*
D23*
X915924Y404368D03*
X1043940Y668274D03*
D27*
X1037336Y661670D01*
X1037336Y610870D01*
D23*
X947801Y478155D03*
X913130Y439166D03*
D27*
X913130Y407924D01*
X900328Y395122D02*
X900328Y394818D01*
D23*
X900328Y394818D03*
D27*
X1004570Y578104D02*
X1037336Y610870D01*
X952754Y483108D02*
X947801Y478155D01*
X952754Y483108D02*
X952754Y504190D01*
X913130Y407924D02*
X900328Y395122D01*
X952754Y504190D02*
X1004570Y556006D01*
X1004570Y578104D01*
D23*
X897382Y377444D03*
D27*
X895604Y379222D01*
X895604Y413766D01*
X904748Y422910D01*
X904748Y437642D01*
D23*
X904748Y437642D03*
X938858Y478462D03*
D27*
X974344Y532638D02*
X974090Y532892D01*
X974344Y532638D02*
X974344Y530860D01*
D23*
X974090Y532892D03*
X1008888Y588772D03*
D27*
X1033272Y660654D02*
X1028700Y665226D01*
X1033272Y660654D02*
X1033272Y613156D01*
X1008888Y588772D01*
D23*
X1028700Y665226D03*
D27*
X949198Y505714D02*
X949198Y488803D01*
X938858Y478462D01*
X949198Y505714D02*
X974344Y530860D01*
D23*
X835406Y439420D03*
D28*
X835406Y438150D01*
X813816Y416560D01*
D23*
X813816Y416560D03*
X943610Y653796D03*
D27*
X946674Y650732D01*
X948694Y650732D01*
X958838Y640588D01*
X975614Y629299D02*
X975614Y629158D01*
X977392Y627380D01*
X975614Y629299D02*
X964325Y640588D01*
X977392Y627380D02*
X977392Y618490D01*
X948944Y590042D02*
X948944Y584567D01*
X945642Y581265D01*
X958838Y640588D02*
X964325Y640588D01*
X977392Y618490D02*
X948944Y590042D01*
X945642Y581265D02*
X945642Y580390D01*
D23*
X945642Y581265D03*
X967941Y643075D03*
D27*
X982218Y628797D01*
X982218Y617970D02*
X952633Y588385D01*
X953389Y587629D01*
D23*
X953389Y587629D03*
D27*
X982218Y617970D02*
X982218Y628797D01*
D23*
X926592Y524510D03*
D27*
X930910Y528828D01*
X930910Y546016D01*
X939800Y554906D01*
X939800Y559054D02*
X934212Y564642D01*
X934212Y579882D01*
X939800Y559054D02*
X939800Y554906D01*
X972820Y618490D02*
X972820Y628142D01*
X963676Y637286D01*
D23*
X946912Y646430D03*
D27*
X972820Y618490D02*
X934212Y579882D01*
X955294Y637286D02*
X963676Y637286D01*
X955294Y637286D02*
X946912Y645668D01*
X946912Y646430D01*
D23*
X870712Y430752D03*
D28*
X870712Y396208D01*
D23*
X837655Y356907D03*
D28*
X837655Y363151D01*
X870712Y396208D01*
D23*
X845058Y358362D03*
D28*
X845058Y365474D02*
X883936Y404352D01*
X845058Y365474D02*
X845058Y358362D01*
X883936Y404352D02*
X876046Y412242D01*
X876046Y422910D01*
D23*
X876046Y422910D03*
X891286Y406908D03*
D28*
X852170Y367792D01*
D23*
X852170Y359918D03*
D28*
X852170Y367792D01*
D23*
X1119632Y679958D03*
D27*
X1119632Y648208D01*
X1054354Y523748D02*
X1055497Y522605D01*
X1054354Y523748D02*
X1054354Y582930D01*
D23*
X1055497Y522605D03*
X1044194Y482600D03*
D27*
X1044194Y450596D01*
X1028446Y434848D01*
X1027684Y434848D01*
D23*
X1027684Y434848D03*
D27*
X1054354Y582930D02*
X1119632Y648208D01*
D23*
X1137412Y676910D03*
D27*
X1137412Y652780D01*
X1066292Y581660D01*
X1066419Y581533D01*
D23*
X1066419Y581533D03*
X1080516Y545084D03*
D27*
X1080516Y476758D01*
X1026414Y422656D01*
D23*
X1026414Y422656D03*
X1071880Y670814D03*
D27*
X1076706Y665988D01*
X1076706Y627888D01*
X1068832Y486410D02*
X1068324Y486410D01*
D23*
X1068832Y486410D03*
D27*
X1025906Y577088D02*
X1076706Y627888D01*
X1025906Y577088D02*
X1025906Y528828D01*
X1068324Y486410D01*
D23*
X723392Y406654D03*
X723392Y442976D03*
D28*
X723392Y406654D01*
D23*
X715010Y406654D03*
D28*
X715010Y416560D01*
X716534Y418084D01*
X716534Y480822D01*
D23*
X716534Y480822D03*
X708152Y483362D03*
D28*
X708152Y417830D01*
X706628Y416306D01*
X706628Y406400D01*
D23*
X706628Y406400D03*
D28*
X698246Y406654D02*
X698246Y481838D01*
D23*
X698246Y481838D03*
D28*
X698246Y406654D02*
X698246Y405130D01*
D23*
X698246Y406654D03*
X1146556Y681482D03*
D27*
X1146556Y648462D01*
X1069848Y571754D01*
D23*
X1069848Y571754D03*
X835660Y373395D03*
D28*
X830311Y373395D01*
X820166Y383540D01*
X773430Y383540D02*
X772922Y384048D01*
D23*
X772922Y384048D03*
X765048Y393700D03*
D28*
X757428Y401320D01*
X679196Y401320D02*
X675386Y397510D01*
D23*
X675386Y397510D03*
D28*
X773430Y383540D02*
X820166Y383540D01*
X757428Y401320D02*
X679196Y401320D01*
D23*
X680720Y391668D03*
D28*
X685546Y396494D01*
X749300Y390144D02*
X749300Y389128D01*
D23*
X749300Y389128D03*
X751078Y377968D03*
D28*
X818372Y377968D01*
X830072Y366268D02*
X833374Y366268D01*
X833327Y366315D01*
D23*
X833327Y366315D03*
D28*
X742950Y396494D02*
X685546Y396494D01*
X742950Y396494D02*
X749300Y390144D01*
X818372Y377968D02*
X830072Y366268D01*
D23*
X651510Y682752D03*
D24*
X651510Y671576D01*
X688594Y634492D02*
X688594Y593344D01*
X689356Y593344D01*
D23*
X689356Y593344D03*
D24*
X688594Y634492D02*
X651510Y671576D01*
D28*
X842772Y437896D02*
X813308Y408432D01*
X842772Y437896D02*
X842772Y439166D01*
D23*
X842772Y439166D03*
X690880Y382524D03*
D28*
X730250Y382524D01*
X730504Y382270D01*
X730250Y382524D02*
X763016Y382524D01*
X788924Y408432D02*
X813308Y408432D01*
X788924Y408432D02*
X763016Y382524D01*
D23*
X149352Y115062D03*
D24*
X149352Y177292D01*
X148844Y177800D01*
X149098Y178054D01*
D23*
X149098Y178054D03*
X185166Y113792D03*
D24*
X185166Y178054D01*
X184404Y178054D01*
D23*
X184404Y178054D03*
X220345Y113919D03*
D24*
X220345Y177927D01*
X220472Y178054D01*
D23*
X220472Y178054D03*
X255016Y178308D03*
D24*
X255016Y114808D01*
D23*
X255016Y114808D03*
D29*
X0Y0D02*
X1230000Y0D01*
X1230000Y870000D01*
X0Y870000D01*
X0Y0D01*
X608568Y852150D02*
X608581Y851845D01*
X608621Y851542D01*
X608687Y851244D01*
X608779Y850953D01*
X608896Y850671D01*
X609037Y850400D01*
X609201Y850142D01*
X609387Y849900D01*
X609593Y849675D01*
X609818Y849469D01*
X610060Y849283D01*
X610318Y849119D01*
X610589Y848978D01*
X610871Y848861D01*
X611162Y848769D01*
X611460Y848703D01*
X611763Y848663D01*
X612068Y848650D01*
X612373Y848663D01*
X612676Y848703D01*
X612974Y848769D01*
X613265Y848861D01*
X613547Y848978D01*
X613818Y849119D01*
X614076Y849283D01*
X614318Y849469D01*
X614543Y849675D01*
X614749Y849900D01*
X614935Y850142D01*
X615099Y850400D01*
X615240Y850671D01*
X615357Y850953D01*
X615449Y851244D01*
X615515Y851542D01*
X615555Y851845D01*
X615568Y852150D01*
X615568Y856150D01*
X615555Y856455D01*
X615515Y856758D01*
X615449Y857056D01*
X615357Y857347D01*
X615240Y857629D01*
X615099Y857900D01*
X614935Y858158D01*
X614749Y858400D01*
X614543Y858625D01*
X614318Y858831D01*
X614076Y859017D01*
X613818Y859181D01*
X613547Y859322D01*
X613265Y859439D01*
X612974Y859531D01*
X612676Y859597D01*
X612373Y859637D01*
X612068Y859650D01*
X611763Y859637D01*
X611460Y859597D01*
X611162Y859531D01*
X610871Y859439D01*
X610589Y859322D01*
X610318Y859181D01*
X610060Y859017D01*
X609818Y858831D01*
X609593Y858625D01*
X609387Y858400D01*
X609201Y858158D01*
X609037Y857900D01*
X608896Y857629D01*
X608779Y857347D01*
X608687Y857056D01*
X608621Y856758D01*
X608581Y856455D01*
X608568Y856150D01*
X608568Y852150D01*
X536068Y852150D02*
X536081Y851845D01*
X536121Y851542D01*
X536187Y851244D01*
X536279Y850953D01*
X536396Y850671D01*
X536537Y850400D01*
X536701Y850142D01*
X536887Y849900D01*
X537093Y849675D01*
X537318Y849469D01*
X537560Y849283D01*
X537818Y849119D01*
X538089Y848978D01*
X538371Y848861D01*
X538662Y848769D01*
X538960Y848703D01*
X539263Y848663D01*
X539568Y848650D01*
X539873Y848663D01*
X540176Y848703D01*
X540474Y848769D01*
X540765Y848861D01*
X541047Y848978D01*
X541318Y849119D01*
X541576Y849283D01*
X541818Y849469D01*
X542043Y849675D01*
X542249Y849900D01*
X542435Y850142D01*
X542599Y850400D01*
X542740Y850671D01*
X542857Y850953D01*
X542949Y851244D01*
X543015Y851542D01*
X543055Y851845D01*
X543068Y852150D01*
X543068Y856150D01*
X543055Y856455D01*
X543015Y856758D01*
X542949Y857056D01*
X542857Y857347D01*
X542740Y857629D01*
X542599Y857900D01*
X542435Y858158D01*
X542249Y858400D01*
X542043Y858625D01*
X541818Y858831D01*
X541576Y859017D01*
X541318Y859181D01*
X541047Y859322D01*
X540765Y859439D01*
X540474Y859531D01*
X540176Y859597D01*
X539873Y859637D01*
X539568Y859650D01*
X539263Y859637D01*
X538960Y859597D01*
X538662Y859531D01*
X538371Y859439D01*
X538089Y859322D01*
X537818Y859181D01*
X537560Y859017D01*
X537318Y858831D01*
X537093Y858625D01*
X536887Y858400D01*
X536701Y858158D01*
X536537Y857900D01*
X536396Y857629D01*
X536279Y857347D01*
X536187Y857056D01*
X536121Y856758D01*
X536081Y856455D01*
X536068Y856150D01*
X536068Y852150D01*
X1219868Y841945D02*
X1219793Y840802D01*
X1219644Y839666D01*
X1219420Y838542D01*
X1219123Y837435D01*
X1218755Y836350D01*
X1218317Y835292D01*
X1217810Y834264D01*
X1217237Y833272D01*
X1216600Y832319D01*
X1215903Y831410D01*
X1215147Y830549D01*
X1214337Y829739D01*
X1213476Y828983D01*
X1212567Y828286D01*
X1211614Y827649D01*
X1210622Y827076D01*
X1209594Y826569D01*
X1208536Y826131D01*
X1207451Y825763D01*
X1206344Y825466D01*
X1205220Y825243D01*
X1204084Y825093D01*
X1202941Y825018D01*
X1201795Y825018D01*
X1200652Y825093D01*
X1199516Y825243D01*
X1198392Y825466D01*
X1197285Y825763D01*
X1196200Y826131D01*
X1195142Y826569D01*
X1194114Y827076D01*
X1193122Y827649D01*
X1192169Y828286D01*
X1191260Y828983D01*
X1190399Y829739D01*
X1189589Y830549D01*
X1188833Y831410D01*
X1188136Y832319D01*
X1187499Y833272D01*
X1186926Y834264D01*
X1186419Y835292D01*
X1185981Y836350D01*
X1185613Y837435D01*
X1185316Y838542D01*
X1185093Y839666D01*
X1184943Y840802D01*
X1184868Y841945D01*
X1184868Y843091D01*
X1184943Y844234D01*
X1185093Y845370D01*
X1185316Y846494D01*
X1185613Y847601D01*
X1185981Y848686D01*
X1186419Y849744D01*
X1186926Y850772D01*
X1187499Y851764D01*
X1188136Y852717D01*
X1188833Y853626D01*
X1189589Y854487D01*
X1190399Y855297D01*
X1191260Y856053D01*
X1192169Y856750D01*
X1193122Y857387D01*
X1194114Y857960D01*
X1195142Y858467D01*
X1196200Y858905D01*
X1197285Y859273D01*
X1198392Y859570D01*
X1199516Y859794D01*
X1200652Y859943D01*
X1201795Y860018D01*
X1202941Y860018D01*
X1204084Y859943D01*
X1205220Y859794D01*
X1206344Y859570D01*
X1207451Y859273D01*
X1208536Y858905D01*
X1209594Y858467D01*
X1210622Y857960D01*
X1211614Y857387D01*
X1212567Y856750D01*
X1213476Y856053D01*
X1214337Y855297D01*
X1215147Y854487D01*
X1215903Y853626D01*
X1216600Y852717D01*
X1217237Y851764D01*
X1217810Y850772D01*
X1218317Y849744D01*
X1218755Y848686D01*
X1219123Y847601D01*
X1219420Y846494D01*
X1219644Y845370D01*
X1219793Y844234D01*
X1219868Y843091D01*
X1219868Y841945D01*
X45000Y841945D02*
X44925Y840802D01*
X44776Y839666D01*
X44552Y838542D01*
X44255Y837435D01*
X43887Y836350D01*
X43449Y835292D01*
X42942Y834264D01*
X42369Y833272D01*
X41732Y832319D01*
X41035Y831410D01*
X40279Y830549D01*
X39469Y829739D01*
X38608Y828983D01*
X37699Y828286D01*
X36746Y827649D01*
X35754Y827076D01*
X34726Y826569D01*
X33668Y826131D01*
X32583Y825763D01*
X31476Y825466D01*
X30352Y825243D01*
X29216Y825093D01*
X28073Y825018D01*
X26927Y825018D01*
X25784Y825093D01*
X24648Y825243D01*
X23524Y825466D01*
X22417Y825763D01*
X21332Y826131D01*
X20274Y826569D01*
X19246Y827076D01*
X18254Y827649D01*
X17301Y828286D01*
X16392Y828983D01*
X15531Y829739D01*
X14721Y830549D01*
X13965Y831410D01*
X13268Y832319D01*
X12631Y833272D01*
X12058Y834264D01*
X11551Y835292D01*
X11113Y836350D01*
X10745Y837435D01*
X10448Y838542D01*
X10225Y839666D01*
X10075Y840802D01*
X10000Y841945D01*
X10000Y843091D01*
X10075Y844234D01*
X10225Y845370D01*
X10448Y846494D01*
X10745Y847601D01*
X11113Y848686D01*
X11551Y849744D01*
X12058Y850772D01*
X12631Y851764D01*
X13268Y852717D01*
X13965Y853626D01*
X14721Y854487D01*
X15531Y855297D01*
X16392Y856053D01*
X17301Y856750D01*
X18254Y857387D01*
X19246Y857960D01*
X20274Y858467D01*
X21332Y858905D01*
X22417Y859273D01*
X23524Y859570D01*
X24648Y859794D01*
X25784Y859943D01*
X26927Y860018D01*
X28073Y860018D01*
X29216Y859943D01*
X30352Y859794D01*
X31476Y859570D01*
X32583Y859273D01*
X33668Y858905D01*
X34726Y858467D01*
X35754Y857960D01*
X36746Y857387D01*
X37699Y856750D01*
X38608Y856053D01*
X39469Y855297D01*
X40279Y854487D01*
X41035Y853626D01*
X41732Y852717D01*
X42369Y851764D01*
X42942Y850772D01*
X43449Y849744D01*
X43887Y848686D01*
X44255Y847601D01*
X44552Y846494D01*
X44776Y845370D01*
X44925Y844234D01*
X45000Y843091D01*
X45000Y841945D01*
X44932Y26859D02*
X44857Y25716D01*
X44708Y24580D01*
X44484Y23456D01*
X44187Y22349D01*
X43819Y21264D01*
X43381Y20206D01*
X42874Y19178D01*
X42301Y18186D01*
X41664Y17233D01*
X40967Y16324D01*
X40211Y15463D01*
X39401Y14653D01*
X38540Y13897D01*
X37631Y13200D01*
X36678Y12563D01*
X35686Y11990D01*
X34658Y11483D01*
X33600Y11045D01*
X32515Y10677D01*
X31408Y10380D01*
X30284Y10157D01*
X29148Y10007D01*
X28005Y9932D01*
X26859Y9932D01*
X25716Y10007D01*
X24580Y10157D01*
X23456Y10380D01*
X22349Y10677D01*
X21264Y11045D01*
X20206Y11483D01*
X19178Y11990D01*
X18186Y12563D01*
X17233Y13200D01*
X16324Y13897D01*
X15463Y14653D01*
X14653Y15463D01*
X13897Y16324D01*
X13200Y17233D01*
X12563Y18186D01*
X11990Y19178D01*
X11483Y20206D01*
X11045Y21264D01*
X10677Y22349D01*
X10380Y23456D01*
X10157Y24580D01*
X10007Y25716D01*
X9932Y26859D01*
X9932Y28005D01*
X10007Y29148D01*
X10157Y30284D01*
X10380Y31408D01*
X10677Y32515D01*
X11045Y33600D01*
X11483Y34658D01*
X11990Y35686D01*
X12563Y36678D01*
X13200Y37631D01*
X13897Y38540D01*
X14653Y39401D01*
X15463Y40211D01*
X16324Y40967D01*
X17233Y41664D01*
X18186Y42301D01*
X19178Y42874D01*
X20206Y43381D01*
X21264Y43819D01*
X22349Y44187D01*
X23456Y44484D01*
X24580Y44708D01*
X25716Y44857D01*
X26859Y44932D01*
X28005Y44932D01*
X29148Y44857D01*
X30284Y44708D01*
X31408Y44484D01*
X32515Y44187D01*
X33600Y43819D01*
X34658Y43381D01*
X35686Y42874D01*
X36678Y42301D01*
X37631Y41664D01*
X38540Y40967D01*
X39401Y40211D01*
X40211Y39401D01*
X40967Y38540D01*
X41664Y37631D01*
X42301Y36678D01*
X42874Y35686D01*
X43381Y34658D01*
X43819Y33600D01*
X44187Y32515D01*
X44484Y31408D01*
X44708Y30284D01*
X44857Y29148D01*
X44932Y28005D01*
X44932Y26859D01*
X1219868Y26859D02*
X1219793Y25716D01*
X1219644Y24580D01*
X1219420Y23456D01*
X1219123Y22349D01*
X1218755Y21264D01*
X1218317Y20206D01*
X1217810Y19178D01*
X1217237Y18186D01*
X1216600Y17233D01*
X1215903Y16324D01*
X1215147Y15463D01*
X1214337Y14653D01*
X1213476Y13897D01*
X1212567Y13200D01*
X1211614Y12563D01*
X1210622Y11990D01*
X1209594Y11483D01*
X1208536Y11045D01*
X1207451Y10677D01*
X1206344Y10380D01*
X1205220Y10157D01*
X1204084Y10007D01*
X1202941Y9932D01*
X1201795Y9932D01*
X1200652Y10007D01*
X1199516Y10157D01*
X1198392Y10380D01*
X1197285Y10677D01*
X1196200Y11045D01*
X1195142Y11483D01*
X1194114Y11990D01*
X1193122Y12563D01*
X1192169Y13200D01*
X1191260Y13897D01*
X1190399Y14653D01*
X1189589Y15463D01*
X1188833Y16324D01*
X1188136Y17233D01*
X1187499Y18186D01*
X1186926Y19178D01*
X1186419Y20206D01*
X1185981Y21264D01*
X1185613Y22349D01*
X1185316Y23456D01*
X1185093Y24580D01*
X1184943Y25716D01*
X1184868Y26859D01*
X1184868Y28005D01*
X1184943Y29148D01*
X1185093Y30284D01*
X1185316Y31408D01*
X1185613Y32515D01*
X1185981Y33600D01*
X1186419Y34658D01*
X1186926Y35686D01*
X1187499Y36678D01*
X1188136Y37631D01*
X1188833Y38540D01*
X1189589Y39401D01*
X1190399Y40211D01*
X1191260Y40967D01*
X1192169Y41664D01*
X1193122Y42301D01*
X1194114Y42874D01*
X1195142Y43381D01*
X1196200Y43819D01*
X1197285Y44187D01*
X1198392Y44484D01*
X1199516Y44708D01*
X1200652Y44857D01*
X1201795Y44932D01*
X1202941Y44932D01*
X1204084Y44857D01*
X1205220Y44708D01*
X1206344Y44484D01*
X1207451Y44187D01*
X1208536Y43819D01*
X1209594Y43381D01*
X1210622Y42874D01*
X1211614Y42301D01*
X1212567Y41664D01*
X1213476Y40967D01*
X1214337Y40211D01*
X1215147Y39401D01*
X1215903Y38540D01*
X1216600Y37631D01*
X1217237Y36678D01*
X1217810Y35686D01*
X1218317Y34658D01*
X1218755Y33600D01*
X1219123Y32515D01*
X1219420Y31408D01*
X1219644Y30284D01*
X1219793Y29148D01*
X1219868Y28005D01*
X1219868Y26859D01*
X472768Y812546D02*
X473930Y812470D01*
X475084Y812318D01*
X476226Y812091D01*
X477350Y811790D01*
X478452Y811415D01*
X479528Y810970D01*
X480572Y810455D01*
X481580Y809873D01*
X482548Y809226D01*
X483472Y808518D01*
X484347Y807750D01*
X485170Y806927D01*
X485938Y806052D01*
X486646Y805128D01*
X487293Y804160D01*
X487875Y803152D01*
X488390Y802108D01*
X488835Y801032D01*
X489210Y799930D01*
X489511Y798806D01*
X489738Y797664D01*
X489890Y796510D01*
X489966Y795348D01*
X489966Y794184D01*
X489890Y793022D01*
X489738Y791868D01*
X489511Y790726D01*
X489210Y789602D01*
X488835Y788500D01*
X488390Y787424D01*
X487875Y786380D01*
X487293Y785372D01*
X486646Y784404D01*
X485938Y783480D01*
X485170Y782605D01*
X484347Y781782D01*
X483472Y781015D01*
X482548Y780306D01*
X481580Y779659D01*
X480572Y779077D01*
X479528Y778562D01*
X478452Y778117D01*
X477350Y777743D01*
X476226Y777441D01*
X475084Y777214D01*
X473930Y777062D01*
X472768Y776986D01*
X471604Y776986D01*
X470442Y777062D01*
X469288Y777214D01*
X468146Y777441D01*
X467022Y777743D01*
X465920Y778117D01*
X464844Y778562D01*
X463800Y779077D01*
X462792Y779659D01*
X461824Y780306D01*
X460900Y781015D01*
X460025Y781782D01*
X459202Y782605D01*
X458435Y783480D01*
X457726Y784404D01*
X457079Y785372D01*
X456497Y786380D01*
X455982Y787424D01*
X455537Y788500D01*
X455163Y789602D01*
X454861Y790726D01*
X454634Y791868D01*
X454482Y793022D01*
X454406Y794184D01*
X454406Y795348D01*
X454482Y796510D01*
X454634Y797664D01*
X454861Y798806D01*
X455163Y799930D01*
X455537Y801032D01*
X455982Y802108D01*
X456497Y803152D01*
X457079Y804160D01*
X457726Y805128D01*
X458435Y806052D01*
X459202Y806927D01*
X460025Y807750D01*
X460900Y808518D01*
X461824Y809226D01*
X462792Y809873D01*
X463800Y810455D01*
X464844Y810970D01*
X465920Y811415D01*
X467022Y811790D01*
X468146Y812091D01*
X469288Y812318D01*
X470442Y812470D01*
X471604Y812546D01*
X472768Y812546D01*
X358468Y812546D02*
X359630Y812470D01*
X360784Y812318D01*
X361926Y812091D01*
X363050Y811790D01*
X364152Y811415D01*
X365228Y810970D01*
X366272Y810455D01*
X367280Y809873D01*
X368248Y809226D01*
X369172Y808518D01*
X370047Y807750D01*
X370870Y806927D01*
X371638Y806052D01*
X372346Y805128D01*
X372993Y804160D01*
X373575Y803152D01*
X374090Y802108D01*
X374535Y801032D01*
X374910Y799930D01*
X375211Y798806D01*
X375438Y797664D01*
X375590Y796510D01*
X375666Y795348D01*
X375666Y794184D01*
X375590Y793022D01*
X375438Y791868D01*
X375211Y790726D01*
X374910Y789602D01*
X374535Y788500D01*
X374090Y787424D01*
X373575Y786380D01*
X372993Y785372D01*
X372346Y784404D01*
X371638Y783480D01*
X370870Y782605D01*
X370047Y781782D01*
X369172Y781015D01*
X368248Y780306D01*
X367280Y779659D01*
X366272Y779077D01*
X365228Y778562D01*
X364152Y778117D01*
X363050Y777743D01*
X361926Y777441D01*
X360784Y777214D01*
X359630Y777062D01*
X358468Y776986D01*
X357304Y776986D01*
X356142Y777062D01*
X354988Y777214D01*
X353846Y777441D01*
X352722Y777743D01*
X351620Y778117D01*
X350544Y778562D01*
X349500Y779077D01*
X348492Y779659D01*
X347524Y780306D01*
X346600Y781015D01*
X345725Y781782D01*
X344902Y782605D01*
X344135Y783480D01*
X343426Y784404D01*
X342779Y785372D01*
X342197Y786380D01*
X341682Y787424D01*
X341237Y788500D01*
X340863Y789602D01*
X340561Y790726D01*
X340334Y791868D01*
X340182Y793022D01*
X340106Y794184D01*
X340106Y795348D01*
X340182Y796510D01*
X340334Y797664D01*
X340561Y798806D01*
X340863Y799930D01*
X341237Y801032D01*
X341682Y802108D01*
X342197Y803152D01*
X342779Y804160D01*
X343426Y805128D01*
X344135Y806052D01*
X344902Y806927D01*
X345725Y807750D01*
X346600Y808518D01*
X347524Y809226D01*
X348492Y809873D01*
X349500Y810455D01*
X350544Y810970D01*
X351620Y811415D01*
X352722Y811790D01*
X353846Y812091D01*
X354988Y812318D01*
X356142Y812470D01*
X357304Y812546D01*
X358468Y812546D01*
M02*
