G04 EAGLE Gerber RS-274X export*
G75*
%MOMM*%
%FSLAX34Y34*%
%LPD*%
%INSolderpaste Top*%
%IPPOS*%
%AMOC8*
5,1,8,0,0,1.08239X$1,22.5*%
G01*
%ADD10R,1.800000X1.700000*%
%ADD11R,0.700000X0.900000*%
%ADD12R,0.900000X0.700000*%
%ADD13R,1.200000X1.300000*%
%ADD14R,0.800000X0.800000*%
%ADD15R,1.300000X1.100000*%
%ADD16R,1.000000X1.100000*%
%ADD17R,1.500000X1.300000*%
%ADD18R,1.300000X1.500000*%
%ADD19R,0.700000X0.600000*%
%ADD20R,0.600000X0.700000*%
%ADD21R,0.500000X0.400000*%
%ADD22R,0.500000X0.300000*%
%ADD23R,0.300000X1.500000*%
%ADD24R,1.500000X0.300000*%
%ADD25R,1.200000X0.300000*%
%ADD26R,1.700000X3.300000*%
%ADD27R,1.000000X1.800000*%
%ADD28R,1.600000X2.000000*%
%ADD29R,0.500000X1.000000*%
%ADD30R,0.800000X0.900000*%
%ADD31R,2.100000X1.500000*%
%ADD32R,1.500000X2.100000*%
%ADD33R,1.524000X0.635000*%
%ADD34R,1.800000X1.900000*%
%ADD35R,0.400000X1.350000*%
%ADD36R,0.900000X0.800000*%
%ADD37R,1.400000X1.000000*%
%ADD38R,1.700000X1.800000*%
%ADD39C,0.254000*%


D10*
G36*
X887256Y588381D02*
X899983Y601108D01*
X912004Y589087D01*
X899277Y576360D01*
X887256Y588381D01*
G37*
G36*
X909176Y610301D02*
X921903Y623028D01*
X933924Y611007D01*
X921197Y598280D01*
X909176Y610301D01*
G37*
D11*
X351687Y553860D03*
X338687Y553860D03*
D12*
X334018Y648439D03*
X334018Y661439D03*
X345619Y648439D03*
X345619Y661439D03*
X322417Y648439D03*
X322417Y661439D03*
D11*
X351687Y475280D03*
X338687Y475280D03*
D12*
X422277Y653519D03*
X422277Y666519D03*
X477266Y419758D03*
X477266Y406758D03*
D11*
X445112Y392684D03*
X458112Y392684D03*
X351687Y520183D03*
X338687Y520183D03*
G36*
X869516Y634756D02*
X864567Y629807D01*
X858204Y636170D01*
X863153Y641119D01*
X869516Y634756D01*
G37*
G36*
X878708Y643948D02*
X873759Y638999D01*
X867396Y645362D01*
X872345Y650311D01*
X878708Y643948D01*
G37*
D10*
X360940Y435610D03*
X329940Y435610D03*
D11*
G36*
X879422Y625450D02*
X874473Y620501D01*
X868110Y626864D01*
X873059Y631813D01*
X879422Y625450D01*
G37*
G36*
X888614Y634642D02*
X883665Y629693D01*
X877302Y636056D01*
X882251Y641005D01*
X888614Y634642D01*
G37*
G36*
X897964Y607091D02*
X893015Y602142D01*
X886652Y608505D01*
X891601Y613454D01*
X897964Y607091D01*
G37*
G36*
X907156Y616283D02*
X902207Y611334D01*
X895844Y617697D01*
X900793Y622646D01*
X907156Y616283D01*
G37*
G36*
X888820Y616397D02*
X883871Y611448D01*
X877508Y617811D01*
X882457Y622760D01*
X888820Y616397D01*
G37*
G36*
X898012Y625590D02*
X893063Y620641D01*
X886700Y627004D01*
X891649Y631953D01*
X898012Y625590D01*
G37*
G36*
X860372Y644062D02*
X855423Y639113D01*
X849060Y645476D01*
X854009Y650425D01*
X860372Y644062D01*
G37*
G36*
X869564Y653255D02*
X864615Y648306D01*
X858252Y654669D01*
X863201Y659618D01*
X869564Y653255D01*
G37*
D12*
X708406Y538584D03*
X708406Y551584D03*
D11*
X351687Y486506D03*
X338687Y486506D03*
X351687Y497731D03*
X338687Y497731D03*
X351687Y531409D03*
X338687Y531409D03*
X351687Y508957D03*
X338687Y508957D03*
X548998Y483297D03*
X561998Y483297D03*
X351687Y542634D03*
X338687Y542634D03*
D13*
X355347Y459232D03*
X335027Y459232D03*
D14*
X723900Y617100D03*
X723900Y602100D03*
D15*
X463874Y404512D03*
X440874Y422512D03*
X440874Y404512D03*
X463874Y422512D03*
D16*
X336687Y570086D03*
X353687Y570086D03*
D17*
X503428Y645439D03*
X503428Y664439D03*
X438625Y645439D03*
X438625Y664439D03*
X405422Y645439D03*
X405422Y664439D03*
D18*
X381864Y622554D03*
X362864Y622554D03*
D19*
X713740Y614092D03*
X713740Y604092D03*
D17*
X460226Y664439D03*
X460226Y645439D03*
X481827Y664439D03*
X481827Y645439D03*
X305816Y664439D03*
X305816Y645439D03*
D20*
X550498Y437019D03*
X560498Y437019D03*
X550498Y425450D03*
X560498Y425450D03*
D16*
X353687Y591312D03*
X336687Y591312D03*
D19*
X720344Y539576D03*
X720344Y549576D03*
D17*
X383821Y664439D03*
X383821Y645439D03*
X362220Y664439D03*
X362220Y645439D03*
D20*
X560498Y448589D03*
X550498Y448589D03*
X452882Y433832D03*
X462882Y433832D03*
X560498Y460158D03*
X550498Y460158D03*
X560498Y471728D03*
X550498Y471728D03*
D21*
X550498Y531494D03*
D22*
X550498Y525994D03*
X550498Y520994D03*
D21*
X550498Y515494D03*
X560498Y515494D03*
D22*
X560498Y520994D03*
X560498Y525994D03*
D21*
X560498Y531494D03*
X550498Y508806D03*
D22*
X550498Y503306D03*
X550498Y498306D03*
D21*
X550498Y492806D03*
X560498Y492806D03*
D22*
X560498Y498306D03*
X560498Y503306D03*
D21*
X560498Y508806D03*
D23*
X493082Y553770D03*
X488082Y553770D03*
X483082Y553770D03*
X478082Y553770D03*
X473082Y553770D03*
X468082Y553770D03*
X463082Y553770D03*
X458082Y553770D03*
X453082Y553770D03*
X448082Y553770D03*
X443082Y553770D03*
X438082Y553770D03*
D24*
X421082Y536770D03*
X421082Y531770D03*
X421082Y526770D03*
X421082Y521770D03*
X421082Y516770D03*
X421082Y511770D03*
X421082Y506770D03*
X421082Y501770D03*
X421082Y496770D03*
X421082Y491770D03*
X421082Y486770D03*
X421082Y481770D03*
D23*
X438082Y464770D03*
X443082Y464770D03*
X448082Y464770D03*
X453082Y464770D03*
X458082Y464770D03*
X463082Y464770D03*
X468082Y464770D03*
X473082Y464770D03*
X478082Y464770D03*
X483082Y464770D03*
X488082Y464770D03*
X493082Y464770D03*
D24*
X510082Y481770D03*
X510082Y486770D03*
X510082Y491770D03*
X510082Y496770D03*
X510082Y501770D03*
X510082Y506770D03*
X510082Y511770D03*
X510082Y516770D03*
X510082Y521770D03*
X510082Y526770D03*
X510082Y531770D03*
X510082Y536770D03*
D25*
G36*
X883617Y558268D02*
X875133Y566752D01*
X877255Y568874D01*
X885739Y560390D01*
X883617Y558268D01*
G37*
G36*
X880081Y554733D02*
X871597Y563217D01*
X873719Y565339D01*
X882203Y556855D01*
X880081Y554733D01*
G37*
G36*
X876546Y551197D02*
X868062Y559681D01*
X870184Y561803D01*
X878668Y553319D01*
X876546Y551197D01*
G37*
G36*
X873010Y547662D02*
X864526Y556146D01*
X866648Y558268D01*
X875132Y549784D01*
X873010Y547662D01*
G37*
G36*
X869474Y544126D02*
X860990Y552610D01*
X863112Y554732D01*
X871596Y546248D01*
X869474Y544126D01*
G37*
G36*
X865939Y540591D02*
X857455Y549075D01*
X859577Y551197D01*
X868061Y542713D01*
X865939Y540591D01*
G37*
G36*
X862403Y537055D02*
X853919Y545539D01*
X856041Y547661D01*
X864525Y539177D01*
X862403Y537055D01*
G37*
G36*
X858868Y533519D02*
X850384Y542003D01*
X852506Y544125D01*
X860990Y535641D01*
X858868Y533519D01*
G37*
G36*
X855332Y529984D02*
X846848Y538468D01*
X848970Y540590D01*
X857454Y532106D01*
X855332Y529984D01*
G37*
G36*
X851797Y526448D02*
X843313Y534932D01*
X845435Y537054D01*
X853919Y528570D01*
X851797Y526448D01*
G37*
G36*
X848261Y522913D02*
X839777Y531397D01*
X841899Y533519D01*
X850383Y525035D01*
X848261Y522913D01*
G37*
G36*
X844726Y519377D02*
X836242Y527861D01*
X838364Y529983D01*
X846848Y521499D01*
X844726Y519377D01*
G37*
G36*
X841190Y515842D02*
X832706Y524326D01*
X834828Y526448D01*
X843312Y517964D01*
X841190Y515842D01*
G37*
G36*
X837655Y512306D02*
X829171Y520790D01*
X831293Y522912D01*
X839777Y514428D01*
X837655Y512306D01*
G37*
G36*
X834119Y508771D02*
X825635Y517255D01*
X827757Y519377D01*
X836241Y510893D01*
X834119Y508771D01*
G37*
G36*
X830584Y505235D02*
X822100Y513719D01*
X824222Y515841D01*
X832706Y507357D01*
X830584Y505235D01*
G37*
G36*
X827048Y501700D02*
X818564Y510184D01*
X820686Y512306D01*
X829170Y503822D01*
X827048Y501700D01*
G37*
G36*
X823513Y498164D02*
X815029Y506648D01*
X817151Y508770D01*
X825635Y500286D01*
X823513Y498164D01*
G37*
G36*
X819977Y494629D02*
X811493Y503113D01*
X813615Y505235D01*
X822099Y496751D01*
X819977Y494629D01*
G37*
G36*
X816441Y491093D02*
X807957Y499577D01*
X810079Y501699D01*
X818563Y493215D01*
X816441Y491093D01*
G37*
G36*
X812906Y487558D02*
X804422Y496042D01*
X806544Y498164D01*
X815028Y489680D01*
X812906Y487558D01*
G37*
G36*
X809370Y484022D02*
X800886Y492506D01*
X803008Y494628D01*
X811492Y486144D01*
X809370Y484022D01*
G37*
G36*
X805835Y480486D02*
X797351Y488970D01*
X799473Y491092D01*
X807957Y482608D01*
X805835Y480486D01*
G37*
G36*
X802299Y476951D02*
X793815Y485435D01*
X795937Y487557D01*
X804421Y479073D01*
X802299Y476951D01*
G37*
G36*
X798764Y473415D02*
X790280Y481899D01*
X792402Y484021D01*
X800886Y475537D01*
X798764Y473415D01*
G37*
G36*
X800886Y457151D02*
X792402Y448667D01*
X790280Y450789D01*
X798764Y459273D01*
X800886Y457151D01*
G37*
G36*
X804421Y453615D02*
X795937Y445131D01*
X793815Y447253D01*
X802299Y455737D01*
X804421Y453615D01*
G37*
G36*
X807957Y450080D02*
X799473Y441596D01*
X797351Y443718D01*
X805835Y452202D01*
X807957Y450080D01*
G37*
G36*
X811492Y446544D02*
X803008Y438060D01*
X800886Y440182D01*
X809370Y448666D01*
X811492Y446544D01*
G37*
G36*
X815028Y443008D02*
X806544Y434524D01*
X804422Y436646D01*
X812906Y445130D01*
X815028Y443008D01*
G37*
G36*
X818563Y439473D02*
X810079Y430989D01*
X807957Y433111D01*
X816441Y441595D01*
X818563Y439473D01*
G37*
G36*
X822099Y435937D02*
X813615Y427453D01*
X811493Y429575D01*
X819977Y438059D01*
X822099Y435937D01*
G37*
G36*
X825635Y432402D02*
X817151Y423918D01*
X815029Y426040D01*
X823513Y434524D01*
X825635Y432402D01*
G37*
G36*
X829170Y428866D02*
X820686Y420382D01*
X818564Y422504D01*
X827048Y430988D01*
X829170Y428866D01*
G37*
G36*
X832706Y425331D02*
X824222Y416847D01*
X822100Y418969D01*
X830584Y427453D01*
X832706Y425331D01*
G37*
G36*
X836241Y421795D02*
X827757Y413311D01*
X825635Y415433D01*
X834119Y423917D01*
X836241Y421795D01*
G37*
G36*
X839777Y418260D02*
X831293Y409776D01*
X829171Y411898D01*
X837655Y420382D01*
X839777Y418260D01*
G37*
G36*
X843312Y414724D02*
X834828Y406240D01*
X832706Y408362D01*
X841190Y416846D01*
X843312Y414724D01*
G37*
G36*
X846848Y411189D02*
X838364Y402705D01*
X836242Y404827D01*
X844726Y413311D01*
X846848Y411189D01*
G37*
G36*
X850383Y407653D02*
X841899Y399169D01*
X839777Y401291D01*
X848261Y409775D01*
X850383Y407653D01*
G37*
G36*
X853919Y404118D02*
X845435Y395634D01*
X843313Y397756D01*
X851797Y406240D01*
X853919Y404118D01*
G37*
G36*
X857454Y400582D02*
X848970Y392098D01*
X846848Y394220D01*
X855332Y402704D01*
X857454Y400582D01*
G37*
G36*
X860990Y397047D02*
X852506Y388563D01*
X850384Y390685D01*
X858868Y399169D01*
X860990Y397047D01*
G37*
G36*
X864525Y393511D02*
X856041Y385027D01*
X853919Y387149D01*
X862403Y395633D01*
X864525Y393511D01*
G37*
G36*
X868061Y389975D02*
X859577Y381491D01*
X857455Y383613D01*
X865939Y392097D01*
X868061Y389975D01*
G37*
G36*
X871596Y386440D02*
X863112Y377956D01*
X860990Y380078D01*
X869474Y388562D01*
X871596Y386440D01*
G37*
G36*
X875132Y382904D02*
X866648Y374420D01*
X864526Y376542D01*
X873010Y385026D01*
X875132Y382904D01*
G37*
G36*
X878668Y379369D02*
X870184Y370885D01*
X868062Y373007D01*
X876546Y381491D01*
X878668Y379369D01*
G37*
G36*
X882203Y375833D02*
X873719Y367349D01*
X871597Y369471D01*
X880081Y377955D01*
X882203Y375833D01*
G37*
G36*
X885739Y372298D02*
X877255Y363814D01*
X875133Y365936D01*
X883617Y374420D01*
X885739Y372298D01*
G37*
G36*
X902003Y374420D02*
X910487Y365936D01*
X908365Y363814D01*
X899881Y372298D01*
X902003Y374420D01*
G37*
G36*
X905539Y377955D02*
X914023Y369471D01*
X911901Y367349D01*
X903417Y375833D01*
X905539Y377955D01*
G37*
G36*
X909074Y381491D02*
X917558Y373007D01*
X915436Y370885D01*
X906952Y379369D01*
X909074Y381491D01*
G37*
G36*
X912610Y385026D02*
X921094Y376542D01*
X918972Y374420D01*
X910488Y382904D01*
X912610Y385026D01*
G37*
G36*
X916146Y388562D02*
X924630Y380078D01*
X922508Y377956D01*
X914024Y386440D01*
X916146Y388562D01*
G37*
G36*
X919681Y392097D02*
X928165Y383613D01*
X926043Y381491D01*
X917559Y389975D01*
X919681Y392097D01*
G37*
G36*
X923217Y395633D02*
X931701Y387149D01*
X929579Y385027D01*
X921095Y393511D01*
X923217Y395633D01*
G37*
G36*
X926752Y399169D02*
X935236Y390685D01*
X933114Y388563D01*
X924630Y397047D01*
X926752Y399169D01*
G37*
G36*
X930288Y402704D02*
X938772Y394220D01*
X936650Y392098D01*
X928166Y400582D01*
X930288Y402704D01*
G37*
G36*
X933823Y406240D02*
X942307Y397756D01*
X940185Y395634D01*
X931701Y404118D01*
X933823Y406240D01*
G37*
G36*
X937359Y409775D02*
X945843Y401291D01*
X943721Y399169D01*
X935237Y407653D01*
X937359Y409775D01*
G37*
G36*
X940894Y413311D02*
X949378Y404827D01*
X947256Y402705D01*
X938772Y411189D01*
X940894Y413311D01*
G37*
G36*
X944430Y416846D02*
X952914Y408362D01*
X950792Y406240D01*
X942308Y414724D01*
X944430Y416846D01*
G37*
G36*
X947965Y420382D02*
X956449Y411898D01*
X954327Y409776D01*
X945843Y418260D01*
X947965Y420382D01*
G37*
G36*
X951501Y423917D02*
X959985Y415433D01*
X957863Y413311D01*
X949379Y421795D01*
X951501Y423917D01*
G37*
G36*
X955036Y427453D02*
X963520Y418969D01*
X961398Y416847D01*
X952914Y425331D01*
X955036Y427453D01*
G37*
G36*
X958572Y430988D02*
X967056Y422504D01*
X964934Y420382D01*
X956450Y428866D01*
X958572Y430988D01*
G37*
G36*
X962107Y434524D02*
X970591Y426040D01*
X968469Y423918D01*
X959985Y432402D01*
X962107Y434524D01*
G37*
G36*
X965643Y438059D02*
X974127Y429575D01*
X972005Y427453D01*
X963521Y435937D01*
X965643Y438059D01*
G37*
G36*
X969179Y441595D02*
X977663Y433111D01*
X975541Y430989D01*
X967057Y439473D01*
X969179Y441595D01*
G37*
G36*
X972714Y445130D02*
X981198Y436646D01*
X979076Y434524D01*
X970592Y443008D01*
X972714Y445130D01*
G37*
G36*
X976250Y448666D02*
X984734Y440182D01*
X982612Y438060D01*
X974128Y446544D01*
X976250Y448666D01*
G37*
G36*
X979785Y452202D02*
X988269Y443718D01*
X986147Y441596D01*
X977663Y450080D01*
X979785Y452202D01*
G37*
G36*
X983321Y455737D02*
X991805Y447253D01*
X989683Y445131D01*
X981199Y453615D01*
X983321Y455737D01*
G37*
G36*
X986856Y459273D02*
X995340Y450789D01*
X993218Y448667D01*
X984734Y457151D01*
X986856Y459273D01*
G37*
G36*
X984734Y475537D02*
X993218Y484021D01*
X995340Y481899D01*
X986856Y473415D01*
X984734Y475537D01*
G37*
G36*
X981199Y479073D02*
X989683Y487557D01*
X991805Y485435D01*
X983321Y476951D01*
X981199Y479073D01*
G37*
G36*
X977663Y482608D02*
X986147Y491092D01*
X988269Y488970D01*
X979785Y480486D01*
X977663Y482608D01*
G37*
G36*
X974128Y486144D02*
X982612Y494628D01*
X984734Y492506D01*
X976250Y484022D01*
X974128Y486144D01*
G37*
G36*
X970592Y489680D02*
X979076Y498164D01*
X981198Y496042D01*
X972714Y487558D01*
X970592Y489680D01*
G37*
G36*
X967057Y493215D02*
X975541Y501699D01*
X977663Y499577D01*
X969179Y491093D01*
X967057Y493215D01*
G37*
G36*
X963521Y496751D02*
X972005Y505235D01*
X974127Y503113D01*
X965643Y494629D01*
X963521Y496751D01*
G37*
G36*
X959985Y500286D02*
X968469Y508770D01*
X970591Y506648D01*
X962107Y498164D01*
X959985Y500286D01*
G37*
G36*
X956450Y503822D02*
X964934Y512306D01*
X967056Y510184D01*
X958572Y501700D01*
X956450Y503822D01*
G37*
G36*
X952914Y507357D02*
X961398Y515841D01*
X963520Y513719D01*
X955036Y505235D01*
X952914Y507357D01*
G37*
G36*
X949379Y510893D02*
X957863Y519377D01*
X959985Y517255D01*
X951501Y508771D01*
X949379Y510893D01*
G37*
G36*
X945843Y514428D02*
X954327Y522912D01*
X956449Y520790D01*
X947965Y512306D01*
X945843Y514428D01*
G37*
G36*
X942308Y517964D02*
X950792Y526448D01*
X952914Y524326D01*
X944430Y515842D01*
X942308Y517964D01*
G37*
G36*
X938772Y521499D02*
X947256Y529983D01*
X949378Y527861D01*
X940894Y519377D01*
X938772Y521499D01*
G37*
G36*
X935237Y525035D02*
X943721Y533519D01*
X945843Y531397D01*
X937359Y522913D01*
X935237Y525035D01*
G37*
G36*
X931701Y528570D02*
X940185Y537054D01*
X942307Y534932D01*
X933823Y526448D01*
X931701Y528570D01*
G37*
G36*
X928166Y532106D02*
X936650Y540590D01*
X938772Y538468D01*
X930288Y529984D01*
X928166Y532106D01*
G37*
G36*
X924630Y535641D02*
X933114Y544125D01*
X935236Y542003D01*
X926752Y533519D01*
X924630Y535641D01*
G37*
G36*
X921095Y539177D02*
X929579Y547661D01*
X931701Y545539D01*
X923217Y537055D01*
X921095Y539177D01*
G37*
G36*
X917559Y542713D02*
X926043Y551197D01*
X928165Y549075D01*
X919681Y540591D01*
X917559Y542713D01*
G37*
G36*
X914024Y546248D02*
X922508Y554732D01*
X924630Y552610D01*
X916146Y544126D01*
X914024Y546248D01*
G37*
G36*
X910488Y549784D02*
X918972Y558268D01*
X921094Y556146D01*
X912610Y547662D01*
X910488Y549784D01*
G37*
G36*
X906952Y553319D02*
X915436Y561803D01*
X917558Y559681D01*
X909074Y551197D01*
X906952Y553319D01*
G37*
G36*
X903417Y556855D02*
X911901Y565339D01*
X914023Y563217D01*
X905539Y554733D01*
X903417Y556855D01*
G37*
G36*
X899881Y560390D02*
X908365Y568874D01*
X910487Y566752D01*
X902003Y558268D01*
X899881Y560390D01*
G37*
D26*
G36*
X787849Y549934D02*
X799870Y537913D01*
X776537Y514580D01*
X764516Y526601D01*
X787849Y549934D01*
G37*
G36*
X761687Y576096D02*
X773708Y564075D01*
X750375Y540742D01*
X738354Y552763D01*
X761687Y576096D01*
G37*
D11*
G36*
X769651Y573742D02*
X764702Y578691D01*
X771065Y585054D01*
X776014Y580105D01*
X769651Y573742D01*
G37*
G36*
X778843Y564550D02*
X773894Y569499D01*
X780257Y575862D01*
X785206Y570913D01*
X778843Y564550D01*
G37*
G36*
X803625Y552748D02*
X808574Y547799D01*
X802211Y541436D01*
X797262Y546385D01*
X803625Y552748D01*
G37*
G36*
X794433Y561940D02*
X799382Y556991D01*
X793019Y550628D01*
X788070Y555577D01*
X794433Y561940D01*
G37*
D16*
G36*
X741159Y522588D02*
X734088Y529659D01*
X741865Y537436D01*
X748936Y530365D01*
X741159Y522588D01*
G37*
G36*
X753179Y510568D02*
X746108Y517639D01*
X753885Y525416D01*
X760956Y518345D01*
X753179Y510568D01*
G37*
D27*
G36*
X834180Y585487D02*
X827109Y578416D01*
X814382Y591143D01*
X821453Y598214D01*
X834180Y585487D01*
G37*
G36*
X851858Y603165D02*
X844787Y596094D01*
X832060Y608821D01*
X839131Y615892D01*
X851858Y603165D01*
G37*
D11*
G36*
X843236Y588995D02*
X848185Y593944D01*
X854548Y587581D01*
X849599Y582632D01*
X843236Y588995D01*
G37*
G36*
X834044Y579803D02*
X838993Y584752D01*
X845356Y578389D01*
X840407Y573440D01*
X834044Y579803D01*
G37*
G36*
X821480Y603027D02*
X816531Y598078D01*
X810168Y604441D01*
X815117Y609390D01*
X821480Y603027D01*
G37*
G36*
X830672Y612219D02*
X825723Y607270D01*
X819360Y613633D01*
X824309Y618582D01*
X830672Y612219D01*
G37*
D28*
X649732Y583514D03*
X649732Y504114D03*
D19*
X285496Y318944D03*
X285496Y308944D03*
D29*
X302006Y294909D03*
X289306Y294909D03*
X289306Y230109D03*
X302006Y230109D03*
D30*
X290678Y105758D03*
X271678Y105758D03*
X281178Y85758D03*
D17*
X289438Y207747D03*
X289438Y188747D03*
D31*
X274828Y125219D03*
X274828Y161219D03*
D17*
X27940Y307315D03*
X27940Y288315D03*
X27432Y238976D03*
X27432Y257976D03*
X50546Y146075D03*
X50546Y165075D03*
D18*
X1210349Y202692D03*
X1191349Y202692D03*
X1210349Y224536D03*
X1191349Y224536D03*
X1143089Y203200D03*
X1162089Y203200D03*
X1143089Y246888D03*
X1162089Y246888D03*
D17*
X50885Y212764D03*
X50885Y193764D03*
X50885Y238976D03*
X50885Y257976D03*
D18*
X1210349Y246380D03*
X1191349Y246380D03*
D17*
X26924Y146075D03*
X26924Y165075D03*
D18*
X1210349Y180848D03*
X1191349Y180848D03*
X1143089Y181356D03*
X1162089Y181356D03*
X1143089Y225044D03*
X1162089Y225044D03*
D17*
X27432Y212764D03*
X27432Y193764D03*
X51224Y307315D03*
X51224Y288315D03*
D19*
X320461Y318944D03*
X320461Y308944D03*
D29*
X337028Y294909D03*
X324328Y294909D03*
X324328Y230109D03*
X337028Y230109D03*
D30*
X325575Y105758D03*
X306575Y105758D03*
X316075Y85758D03*
D17*
X324650Y207747D03*
X324650Y188747D03*
D31*
X309836Y125219D03*
X309836Y161219D03*
D19*
X354503Y318690D03*
X354503Y308690D03*
D29*
X372049Y294909D03*
X359349Y294909D03*
X359349Y230109D03*
X372049Y230109D03*
D30*
X360473Y105758D03*
X341473Y105758D03*
X350973Y85758D03*
D17*
X359861Y207747D03*
X359861Y188747D03*
D31*
X344844Y125219D03*
X344844Y161219D03*
D19*
X390392Y318944D03*
X390392Y308944D03*
D29*
X407071Y294909D03*
X394371Y294909D03*
X394371Y230109D03*
X407071Y230109D03*
D30*
X395370Y105758D03*
X376370Y105758D03*
X385870Y85758D03*
D17*
X395073Y207747D03*
X395073Y188747D03*
D31*
X379851Y125219D03*
X379851Y161219D03*
D19*
X425358Y318944D03*
X425358Y308944D03*
D29*
X442092Y294909D03*
X429392Y294909D03*
X429392Y230109D03*
X442092Y230109D03*
D30*
X430268Y105758D03*
X411268Y105758D03*
X420768Y85758D03*
D17*
X430285Y207747D03*
X430285Y188747D03*
D31*
X414859Y125219D03*
X414859Y161219D03*
D19*
X460323Y318944D03*
X460323Y308944D03*
D29*
X477114Y294909D03*
X464414Y294909D03*
X464414Y230109D03*
X477114Y230109D03*
D30*
X465165Y105758D03*
X446165Y105758D03*
X455665Y85758D03*
D17*
X465497Y207747D03*
X465497Y188747D03*
D31*
X449867Y125219D03*
X449867Y161219D03*
D19*
X495289Y318944D03*
X495289Y308944D03*
D29*
X512136Y294909D03*
X499436Y294909D03*
X499436Y230109D03*
X512136Y230109D03*
D30*
X500062Y105758D03*
X481062Y105758D03*
X490562Y85758D03*
D17*
X500709Y207747D03*
X500709Y188747D03*
D31*
X484875Y125219D03*
X484875Y161219D03*
D19*
X530254Y318944D03*
X530254Y308944D03*
D29*
X547157Y294909D03*
X534457Y294909D03*
X534457Y230109D03*
X547157Y230109D03*
D30*
X534960Y105758D03*
X515960Y105758D03*
X525460Y85758D03*
D17*
X535921Y207747D03*
X535921Y188747D03*
D31*
X519883Y125219D03*
X519883Y161219D03*
D19*
X565220Y318944D03*
X565220Y308944D03*
D29*
X582179Y294909D03*
X569479Y294909D03*
X569479Y230109D03*
X582179Y230109D03*
D30*
X569857Y105758D03*
X550857Y105758D03*
X560357Y85758D03*
D17*
X571133Y207747D03*
X571133Y188747D03*
D31*
X554891Y125219D03*
X554891Y161219D03*
D19*
X600185Y318944D03*
X600185Y308944D03*
D29*
X617200Y294909D03*
X604500Y294909D03*
X604500Y230109D03*
X617200Y230109D03*
D30*
X604755Y105758D03*
X585755Y105758D03*
X595255Y85758D03*
D17*
X606345Y207747D03*
X606345Y188747D03*
D31*
X589898Y125219D03*
X589898Y161219D03*
D19*
X635150Y318944D03*
X635150Y308944D03*
D29*
X652222Y294909D03*
X639522Y294909D03*
X639522Y230109D03*
X652222Y230109D03*
D30*
X639652Y105758D03*
X620652Y105758D03*
X630152Y85758D03*
D17*
X641557Y207747D03*
X641557Y188747D03*
D31*
X624906Y125219D03*
X624906Y161219D03*
D19*
X670116Y318944D03*
X670116Y308944D03*
D29*
X687244Y294909D03*
X674544Y294909D03*
X674544Y230109D03*
X687244Y230109D03*
D30*
X674549Y105758D03*
X655549Y105758D03*
X665049Y85758D03*
D17*
X676769Y207747D03*
X676769Y188747D03*
D31*
X659914Y125219D03*
X659914Y161219D03*
D19*
X705081Y318944D03*
X705081Y308944D03*
D29*
X722265Y294909D03*
X709565Y294909D03*
X709565Y230109D03*
X722265Y230109D03*
D30*
X709447Y105758D03*
X690447Y105758D03*
X699947Y85758D03*
D17*
X711981Y207747D03*
X711981Y188747D03*
D31*
X694922Y125219D03*
X694922Y161219D03*
D19*
X740047Y318944D03*
X740047Y308944D03*
D29*
X757287Y294909D03*
X744587Y294909D03*
X744587Y230109D03*
X757287Y230109D03*
D30*
X744344Y105758D03*
X725344Y105758D03*
X734844Y85758D03*
D17*
X747192Y207747D03*
X747192Y188747D03*
D31*
X729930Y125219D03*
X729930Y161219D03*
D19*
X775012Y318944D03*
X775012Y308944D03*
D29*
X792308Y294909D03*
X779608Y294909D03*
X779608Y230109D03*
X792308Y230109D03*
D30*
X779242Y105758D03*
X760242Y105758D03*
X769742Y85758D03*
D17*
X782404Y207747D03*
X782404Y188747D03*
D31*
X764937Y125219D03*
X764937Y161219D03*
D19*
X809978Y318944D03*
X809978Y308944D03*
D29*
X827330Y294909D03*
X814630Y294909D03*
X814630Y230109D03*
X827330Y230109D03*
D30*
X814139Y105758D03*
X795139Y105758D03*
X804639Y85758D03*
D17*
X817616Y207747D03*
X817616Y188747D03*
D31*
X799945Y125219D03*
X799945Y161219D03*
D19*
X844943Y318944D03*
X844943Y308944D03*
D29*
X862352Y294909D03*
X849652Y294909D03*
X849652Y230109D03*
X862352Y230109D03*
D30*
X849037Y105758D03*
X830037Y105758D03*
X839537Y85758D03*
D17*
X852828Y207747D03*
X852828Y188747D03*
D31*
X834953Y125219D03*
X834953Y161219D03*
D19*
X879908Y318944D03*
X879908Y308944D03*
D29*
X897373Y294909D03*
X884673Y294909D03*
X884673Y230109D03*
X897373Y230109D03*
D30*
X883934Y105758D03*
X864934Y105758D03*
X874434Y85758D03*
D17*
X888040Y207747D03*
X888040Y188747D03*
D31*
X869961Y125219D03*
X869961Y161219D03*
D19*
X914874Y318944D03*
X914874Y308944D03*
D29*
X932395Y294909D03*
X919695Y294909D03*
X919695Y230109D03*
X932395Y230109D03*
D30*
X918831Y105758D03*
X899831Y105758D03*
X909331Y85758D03*
D17*
X923252Y207747D03*
X923252Y188747D03*
D31*
X904969Y125219D03*
X904969Y161219D03*
D19*
X949839Y318944D03*
X949839Y308944D03*
D29*
X967416Y294909D03*
X954716Y294909D03*
X954716Y230109D03*
X967416Y230109D03*
D30*
X953729Y105758D03*
X934729Y105758D03*
X944229Y85758D03*
D17*
X958464Y207747D03*
X958464Y188747D03*
D31*
X939976Y125219D03*
X939976Y161219D03*
D19*
X984805Y318944D03*
X984805Y308944D03*
D29*
X1002438Y294909D03*
X989738Y294909D03*
X989738Y230109D03*
X1002438Y230109D03*
D30*
X988626Y105758D03*
X969626Y105758D03*
X979126Y85758D03*
D17*
X993676Y207747D03*
X993676Y188747D03*
D31*
X974984Y125219D03*
X974984Y161219D03*
D19*
X1019770Y318944D03*
X1019770Y308944D03*
D29*
X1037459Y294909D03*
X1024759Y294909D03*
X1024759Y230109D03*
X1037459Y230109D03*
D30*
X1023524Y105758D03*
X1004524Y105758D03*
X1014024Y85758D03*
D17*
X1028888Y207747D03*
X1028888Y188747D03*
D31*
X1009992Y125219D03*
X1009992Y161219D03*
D19*
X1054736Y318944D03*
X1054736Y308944D03*
D29*
X1072481Y294909D03*
X1059781Y294909D03*
X1059781Y230109D03*
X1072481Y230109D03*
D30*
X1058421Y105758D03*
X1039421Y105758D03*
X1048921Y85758D03*
D17*
X1064100Y207747D03*
X1064100Y188747D03*
D31*
X1045000Y125219D03*
X1045000Y161219D03*
D19*
X1089701Y318944D03*
X1089701Y308944D03*
D29*
X1107503Y294909D03*
X1094803Y294909D03*
X1094803Y230109D03*
X1107503Y230109D03*
D30*
X1093318Y105758D03*
X1074318Y105758D03*
X1083818Y85758D03*
D17*
X1099311Y207747D03*
X1099311Y188747D03*
D31*
X1080008Y125219D03*
X1080008Y161219D03*
D32*
X99788Y378206D03*
X63788Y378206D03*
D19*
X302979Y308944D03*
X302979Y318944D03*
X337944Y308944D03*
X337944Y318944D03*
X372910Y308944D03*
X372910Y318944D03*
X407875Y308944D03*
X407875Y318944D03*
X442840Y308944D03*
X442840Y318944D03*
X477806Y308944D03*
X477806Y318944D03*
X512771Y308944D03*
X512771Y318944D03*
X547737Y308944D03*
X547737Y318944D03*
X582702Y308944D03*
X582702Y318944D03*
X617668Y308944D03*
X617668Y318944D03*
X652633Y308944D03*
X652633Y318944D03*
X687599Y308944D03*
X687599Y318944D03*
X722564Y308944D03*
X722564Y318944D03*
X757529Y308944D03*
X757529Y318944D03*
X792495Y308944D03*
X792495Y318944D03*
X827460Y308944D03*
X827460Y318944D03*
X862426Y308944D03*
X862426Y318944D03*
X897391Y308944D03*
X897391Y318944D03*
X932357Y308944D03*
X932357Y318944D03*
X967322Y308944D03*
X967322Y318944D03*
X1002287Y308944D03*
X1002287Y318944D03*
X1037253Y308944D03*
X1037253Y318944D03*
X1072218Y308944D03*
X1072218Y318944D03*
X1107184Y308944D03*
X1107184Y318944D03*
D33*
X545312Y754634D03*
X599212Y729234D03*
X545312Y767334D03*
X545312Y741934D03*
X545312Y729234D03*
X599212Y741934D03*
X599212Y716534D03*
X599212Y703834D03*
X545312Y703834D03*
X599212Y678434D03*
X545312Y716534D03*
X545312Y691134D03*
X599212Y691134D03*
X545312Y678434D03*
X599212Y754634D03*
X599212Y767334D03*
D34*
X587318Y854150D03*
X564318Y854150D03*
D35*
X588818Y828400D03*
X582318Y828400D03*
X575818Y828400D03*
X569318Y828400D03*
X562818Y828400D03*
D36*
X667162Y693318D03*
X667162Y712318D03*
X647162Y702818D03*
D37*
X646162Y739648D03*
X668162Y749148D03*
X668162Y730148D03*
D38*
X625856Y797820D03*
X625856Y766820D03*
D12*
X647700Y766422D03*
X647700Y779422D03*
X523748Y755546D03*
X523748Y742546D03*
D15*
X571680Y662415D03*
X594680Y644415D03*
X594680Y662415D03*
X571680Y644415D03*
D12*
X609854Y659915D03*
X609854Y646915D03*
X556006Y646915D03*
X556006Y659915D03*
D19*
X631444Y707978D03*
X631444Y717978D03*
X684784Y719502D03*
X684784Y709502D03*
X696468Y709502D03*
X696468Y719502D03*
X631698Y696388D03*
X631698Y686388D03*
D31*
X687324Y527338D03*
X687324Y563338D03*
D19*
X696468Y698420D03*
X696468Y688420D03*
D20*
G36*
X792436Y374983D02*
X796679Y379226D01*
X801628Y374277D01*
X797385Y370034D01*
X792436Y374983D01*
G37*
G36*
X785364Y367911D02*
X789607Y372154D01*
X794556Y367205D01*
X790313Y362962D01*
X785364Y367911D01*
G37*
D19*
X150368Y319198D03*
X150368Y309198D03*
D29*
X164338Y295036D03*
X151638Y295036D03*
X151638Y230236D03*
X164338Y230236D03*
D30*
X149200Y106012D03*
X130200Y106012D03*
X139700Y86012D03*
D17*
X148590Y207747D03*
X148590Y188747D03*
D31*
X132842Y125510D03*
X132842Y161510D03*
D19*
X167640Y309198D03*
X167640Y319198D03*
X184912Y319452D03*
X184912Y309452D03*
D29*
X198628Y295036D03*
X185928Y295036D03*
X185928Y230236D03*
X198628Y230236D03*
D30*
X184506Y106012D03*
X165506Y106012D03*
X175006Y86012D03*
D17*
X183802Y207747D03*
X183802Y188747D03*
D31*
X168148Y125256D03*
X168148Y161256D03*
D19*
X202184Y309452D03*
X202184Y319452D03*
X219964Y319452D03*
X219964Y309452D03*
D29*
X233680Y295036D03*
X220980Y295036D03*
X220980Y230236D03*
X233680Y230236D03*
D30*
X219812Y106012D03*
X200812Y106012D03*
X210312Y86012D03*
D17*
X219014Y207747D03*
X219014Y188747D03*
D31*
X203454Y125256D03*
X203454Y161256D03*
D19*
X236220Y308944D03*
X236220Y318944D03*
X252984Y319198D03*
X252984Y309198D03*
D29*
X266700Y295036D03*
X254000Y295036D03*
X254000Y230236D03*
X266700Y230236D03*
D30*
X255372Y105758D03*
X236372Y105758D03*
X245872Y85758D03*
D17*
X254226Y207747D03*
X254226Y188747D03*
D31*
X239014Y125256D03*
X239014Y161256D03*
D19*
X269748Y308944D03*
X269748Y318944D03*
D18*
X1143089Y159512D03*
X1162089Y159512D03*
X1143089Y115824D03*
X1162089Y115824D03*
X1210349Y158750D03*
X1191349Y158750D03*
X1210349Y115824D03*
X1191349Y115824D03*
X1143089Y136906D03*
X1162089Y136906D03*
D17*
X74507Y307315D03*
X74507Y288315D03*
D18*
X1210349Y136144D03*
X1191349Y136144D03*
D17*
X74337Y238976D03*
X74337Y257976D03*
X74337Y212764D03*
X74337Y193764D03*
X97790Y307315D03*
X97790Y288315D03*
X97790Y212764D03*
X97790Y193764D03*
X97790Y238976D03*
X97790Y257976D03*
X74168Y146075D03*
X74168Y165075D03*
X97790Y146075D03*
X97790Y165075D03*
D14*
X292100Y128644D03*
X292100Y143644D03*
D19*
X292354Y154592D03*
X292354Y164592D03*
D14*
X327406Y128898D03*
X327406Y143898D03*
D19*
X327406Y154766D03*
X327406Y164766D03*
D14*
X362204Y128898D03*
X362204Y143898D03*
D19*
X362458Y154766D03*
X362458Y164766D03*
D14*
X397256Y128898D03*
X397256Y143898D03*
D19*
X397256Y155020D03*
X397256Y165020D03*
D14*
X432308Y128644D03*
X432308Y143644D03*
D19*
X432308Y155020D03*
X432308Y165020D03*
D14*
X467360Y128644D03*
X467360Y143644D03*
D19*
X467360Y154766D03*
X467360Y164766D03*
D14*
X502412Y128644D03*
X502412Y143644D03*
D19*
X502412Y154512D03*
X502412Y164512D03*
D14*
X537210Y128898D03*
X537210Y143898D03*
D19*
X537210Y154766D03*
X537210Y164766D03*
D14*
X572516Y128898D03*
X572516Y143898D03*
D19*
X572516Y155274D03*
X572516Y165274D03*
D14*
X607568Y128644D03*
X607568Y143644D03*
D19*
X607568Y154766D03*
X607568Y164766D03*
D14*
X642366Y128644D03*
X642366Y143644D03*
D19*
X642366Y155020D03*
X642366Y165020D03*
D14*
X677418Y128644D03*
X677418Y143644D03*
D19*
X677164Y154766D03*
X677164Y164766D03*
D14*
X712216Y128644D03*
X712216Y143644D03*
D19*
X712470Y154766D03*
X712470Y164766D03*
D14*
X747522Y128898D03*
X747522Y143898D03*
D19*
X747522Y155274D03*
X747522Y165274D03*
D14*
X782574Y128644D03*
X782574Y143644D03*
D19*
X782574Y154766D03*
X782574Y164766D03*
D14*
X817372Y128898D03*
X817372Y143898D03*
D19*
X817372Y154766D03*
X817372Y164766D03*
D14*
X852424Y128644D03*
X852424Y143644D03*
D19*
X852678Y154766D03*
X852678Y164766D03*
D14*
X887476Y128898D03*
X887476Y143898D03*
D19*
X887476Y155020D03*
X887476Y165020D03*
D14*
X922528Y128898D03*
X922528Y143898D03*
D19*
X922528Y155020D03*
X922528Y165020D03*
D14*
X957580Y128898D03*
X957580Y143898D03*
D19*
X957580Y155020D03*
X957580Y165020D03*
D14*
X992378Y128898D03*
X992378Y143898D03*
D19*
X992378Y155274D03*
X992378Y165274D03*
D14*
X1027430Y128644D03*
X1027430Y143644D03*
D19*
X1027430Y154766D03*
X1027430Y164766D03*
D14*
X1062482Y128644D03*
X1062482Y143644D03*
D19*
X1062736Y155020D03*
X1062736Y165020D03*
D14*
X1097534Y128898D03*
X1097534Y143898D03*
D19*
X1097534Y154766D03*
X1097534Y164766D03*
D14*
X150622Y128898D03*
X150622Y143898D03*
D19*
X150622Y155020D03*
X150622Y165020D03*
D14*
X185928Y128898D03*
X185928Y143898D03*
D19*
X185928Y154766D03*
X185928Y164766D03*
D14*
X221488Y128644D03*
X221488Y143644D03*
D19*
X221488Y155020D03*
X221488Y165020D03*
D14*
X257048Y128644D03*
X257048Y143644D03*
D19*
X257302Y155020D03*
X257302Y165020D03*
D39*
X0Y0D02*
X1230000Y0D01*
X1230000Y870000D01*
X0Y870000D01*
X0Y0D01*
X608568Y852150D02*
X608581Y851845D01*
X608621Y851542D01*
X608687Y851244D01*
X608779Y850953D01*
X608896Y850671D01*
X609037Y850400D01*
X609201Y850142D01*
X609387Y849900D01*
X609593Y849675D01*
X609818Y849469D01*
X610060Y849283D01*
X610318Y849119D01*
X610589Y848978D01*
X610871Y848861D01*
X611162Y848769D01*
X611460Y848703D01*
X611763Y848663D01*
X612068Y848650D01*
X612373Y848663D01*
X612676Y848703D01*
X612974Y848769D01*
X613265Y848861D01*
X613547Y848978D01*
X613818Y849119D01*
X614076Y849283D01*
X614318Y849469D01*
X614543Y849675D01*
X614749Y849900D01*
X614935Y850142D01*
X615099Y850400D01*
X615240Y850671D01*
X615357Y850953D01*
X615449Y851244D01*
X615515Y851542D01*
X615555Y851845D01*
X615568Y852150D01*
X615568Y856150D01*
X615555Y856455D01*
X615515Y856758D01*
X615449Y857056D01*
X615357Y857347D01*
X615240Y857629D01*
X615099Y857900D01*
X614935Y858158D01*
X614749Y858400D01*
X614543Y858625D01*
X614318Y858831D01*
X614076Y859017D01*
X613818Y859181D01*
X613547Y859322D01*
X613265Y859439D01*
X612974Y859531D01*
X612676Y859597D01*
X612373Y859637D01*
X612068Y859650D01*
X611763Y859637D01*
X611460Y859597D01*
X611162Y859531D01*
X610871Y859439D01*
X610589Y859322D01*
X610318Y859181D01*
X610060Y859017D01*
X609818Y858831D01*
X609593Y858625D01*
X609387Y858400D01*
X609201Y858158D01*
X609037Y857900D01*
X608896Y857629D01*
X608779Y857347D01*
X608687Y857056D01*
X608621Y856758D01*
X608581Y856455D01*
X608568Y856150D01*
X608568Y852150D01*
X536068Y852150D02*
X536081Y851845D01*
X536121Y851542D01*
X536187Y851244D01*
X536279Y850953D01*
X536396Y850671D01*
X536537Y850400D01*
X536701Y850142D01*
X536887Y849900D01*
X537093Y849675D01*
X537318Y849469D01*
X537560Y849283D01*
X537818Y849119D01*
X538089Y848978D01*
X538371Y848861D01*
X538662Y848769D01*
X538960Y848703D01*
X539263Y848663D01*
X539568Y848650D01*
X539873Y848663D01*
X540176Y848703D01*
X540474Y848769D01*
X540765Y848861D01*
X541047Y848978D01*
X541318Y849119D01*
X541576Y849283D01*
X541818Y849469D01*
X542043Y849675D01*
X542249Y849900D01*
X542435Y850142D01*
X542599Y850400D01*
X542740Y850671D01*
X542857Y850953D01*
X542949Y851244D01*
X543015Y851542D01*
X543055Y851845D01*
X543068Y852150D01*
X543068Y856150D01*
X543055Y856455D01*
X543015Y856758D01*
X542949Y857056D01*
X542857Y857347D01*
X542740Y857629D01*
X542599Y857900D01*
X542435Y858158D01*
X542249Y858400D01*
X542043Y858625D01*
X541818Y858831D01*
X541576Y859017D01*
X541318Y859181D01*
X541047Y859322D01*
X540765Y859439D01*
X540474Y859531D01*
X540176Y859597D01*
X539873Y859637D01*
X539568Y859650D01*
X539263Y859637D01*
X538960Y859597D01*
X538662Y859531D01*
X538371Y859439D01*
X538089Y859322D01*
X537818Y859181D01*
X537560Y859017D01*
X537318Y858831D01*
X537093Y858625D01*
X536887Y858400D01*
X536701Y858158D01*
X536537Y857900D01*
X536396Y857629D01*
X536279Y857347D01*
X536187Y857056D01*
X536121Y856758D01*
X536081Y856455D01*
X536068Y856150D01*
X536068Y852150D01*
X1219868Y841945D02*
X1219793Y840802D01*
X1219644Y839666D01*
X1219420Y838542D01*
X1219123Y837435D01*
X1218755Y836350D01*
X1218317Y835292D01*
X1217810Y834264D01*
X1217237Y833272D01*
X1216600Y832319D01*
X1215903Y831410D01*
X1215147Y830549D01*
X1214337Y829739D01*
X1213476Y828983D01*
X1212567Y828286D01*
X1211614Y827649D01*
X1210622Y827076D01*
X1209594Y826569D01*
X1208536Y826131D01*
X1207451Y825763D01*
X1206344Y825466D01*
X1205220Y825243D01*
X1204084Y825093D01*
X1202941Y825018D01*
X1201795Y825018D01*
X1200652Y825093D01*
X1199516Y825243D01*
X1198392Y825466D01*
X1197285Y825763D01*
X1196200Y826131D01*
X1195142Y826569D01*
X1194114Y827076D01*
X1193122Y827649D01*
X1192169Y828286D01*
X1191260Y828983D01*
X1190399Y829739D01*
X1189589Y830549D01*
X1188833Y831410D01*
X1188136Y832319D01*
X1187499Y833272D01*
X1186926Y834264D01*
X1186419Y835292D01*
X1185981Y836350D01*
X1185613Y837435D01*
X1185316Y838542D01*
X1185093Y839666D01*
X1184943Y840802D01*
X1184868Y841945D01*
X1184868Y843091D01*
X1184943Y844234D01*
X1185093Y845370D01*
X1185316Y846494D01*
X1185613Y847601D01*
X1185981Y848686D01*
X1186419Y849744D01*
X1186926Y850772D01*
X1187499Y851764D01*
X1188136Y852717D01*
X1188833Y853626D01*
X1189589Y854487D01*
X1190399Y855297D01*
X1191260Y856053D01*
X1192169Y856750D01*
X1193122Y857387D01*
X1194114Y857960D01*
X1195142Y858467D01*
X1196200Y858905D01*
X1197285Y859273D01*
X1198392Y859570D01*
X1199516Y859794D01*
X1200652Y859943D01*
X1201795Y860018D01*
X1202941Y860018D01*
X1204084Y859943D01*
X1205220Y859794D01*
X1206344Y859570D01*
X1207451Y859273D01*
X1208536Y858905D01*
X1209594Y858467D01*
X1210622Y857960D01*
X1211614Y857387D01*
X1212567Y856750D01*
X1213476Y856053D01*
X1214337Y855297D01*
X1215147Y854487D01*
X1215903Y853626D01*
X1216600Y852717D01*
X1217237Y851764D01*
X1217810Y850772D01*
X1218317Y849744D01*
X1218755Y848686D01*
X1219123Y847601D01*
X1219420Y846494D01*
X1219644Y845370D01*
X1219793Y844234D01*
X1219868Y843091D01*
X1219868Y841945D01*
X45000Y841945D02*
X44925Y840802D01*
X44776Y839666D01*
X44552Y838542D01*
X44255Y837435D01*
X43887Y836350D01*
X43449Y835292D01*
X42942Y834264D01*
X42369Y833272D01*
X41732Y832319D01*
X41035Y831410D01*
X40279Y830549D01*
X39469Y829739D01*
X38608Y828983D01*
X37699Y828286D01*
X36746Y827649D01*
X35754Y827076D01*
X34726Y826569D01*
X33668Y826131D01*
X32583Y825763D01*
X31476Y825466D01*
X30352Y825243D01*
X29216Y825093D01*
X28073Y825018D01*
X26927Y825018D01*
X25784Y825093D01*
X24648Y825243D01*
X23524Y825466D01*
X22417Y825763D01*
X21332Y826131D01*
X20274Y826569D01*
X19246Y827076D01*
X18254Y827649D01*
X17301Y828286D01*
X16392Y828983D01*
X15531Y829739D01*
X14721Y830549D01*
X13965Y831410D01*
X13268Y832319D01*
X12631Y833272D01*
X12058Y834264D01*
X11551Y835292D01*
X11113Y836350D01*
X10745Y837435D01*
X10448Y838542D01*
X10225Y839666D01*
X10075Y840802D01*
X10000Y841945D01*
X10000Y843091D01*
X10075Y844234D01*
X10225Y845370D01*
X10448Y846494D01*
X10745Y847601D01*
X11113Y848686D01*
X11551Y849744D01*
X12058Y850772D01*
X12631Y851764D01*
X13268Y852717D01*
X13965Y853626D01*
X14721Y854487D01*
X15531Y855297D01*
X16392Y856053D01*
X17301Y856750D01*
X18254Y857387D01*
X19246Y857960D01*
X20274Y858467D01*
X21332Y858905D01*
X22417Y859273D01*
X23524Y859570D01*
X24648Y859794D01*
X25784Y859943D01*
X26927Y860018D01*
X28073Y860018D01*
X29216Y859943D01*
X30352Y859794D01*
X31476Y859570D01*
X32583Y859273D01*
X33668Y858905D01*
X34726Y858467D01*
X35754Y857960D01*
X36746Y857387D01*
X37699Y856750D01*
X38608Y856053D01*
X39469Y855297D01*
X40279Y854487D01*
X41035Y853626D01*
X41732Y852717D01*
X42369Y851764D01*
X42942Y850772D01*
X43449Y849744D01*
X43887Y848686D01*
X44255Y847601D01*
X44552Y846494D01*
X44776Y845370D01*
X44925Y844234D01*
X45000Y843091D01*
X45000Y841945D01*
X44932Y26859D02*
X44857Y25716D01*
X44708Y24580D01*
X44484Y23456D01*
X44187Y22349D01*
X43819Y21264D01*
X43381Y20206D01*
X42874Y19178D01*
X42301Y18186D01*
X41664Y17233D01*
X40967Y16324D01*
X40211Y15463D01*
X39401Y14653D01*
X38540Y13897D01*
X37631Y13200D01*
X36678Y12563D01*
X35686Y11990D01*
X34658Y11483D01*
X33600Y11045D01*
X32515Y10677D01*
X31408Y10380D01*
X30284Y10157D01*
X29148Y10007D01*
X28005Y9932D01*
X26859Y9932D01*
X25716Y10007D01*
X24580Y10157D01*
X23456Y10380D01*
X22349Y10677D01*
X21264Y11045D01*
X20206Y11483D01*
X19178Y11990D01*
X18186Y12563D01*
X17233Y13200D01*
X16324Y13897D01*
X15463Y14653D01*
X14653Y15463D01*
X13897Y16324D01*
X13200Y17233D01*
X12563Y18186D01*
X11990Y19178D01*
X11483Y20206D01*
X11045Y21264D01*
X10677Y22349D01*
X10380Y23456D01*
X10157Y24580D01*
X10007Y25716D01*
X9932Y26859D01*
X9932Y28005D01*
X10007Y29148D01*
X10157Y30284D01*
X10380Y31408D01*
X10677Y32515D01*
X11045Y33600D01*
X11483Y34658D01*
X11990Y35686D01*
X12563Y36678D01*
X13200Y37631D01*
X13897Y38540D01*
X14653Y39401D01*
X15463Y40211D01*
X16324Y40967D01*
X17233Y41664D01*
X18186Y42301D01*
X19178Y42874D01*
X20206Y43381D01*
X21264Y43819D01*
X22349Y44187D01*
X23456Y44484D01*
X24580Y44708D01*
X25716Y44857D01*
X26859Y44932D01*
X28005Y44932D01*
X29148Y44857D01*
X30284Y44708D01*
X31408Y44484D01*
X32515Y44187D01*
X33600Y43819D01*
X34658Y43381D01*
X35686Y42874D01*
X36678Y42301D01*
X37631Y41664D01*
X38540Y40967D01*
X39401Y40211D01*
X40211Y39401D01*
X40967Y38540D01*
X41664Y37631D01*
X42301Y36678D01*
X42874Y35686D01*
X43381Y34658D01*
X43819Y33600D01*
X44187Y32515D01*
X44484Y31408D01*
X44708Y30284D01*
X44857Y29148D01*
X44932Y28005D01*
X44932Y26859D01*
X1219868Y26859D02*
X1219793Y25716D01*
X1219644Y24580D01*
X1219420Y23456D01*
X1219123Y22349D01*
X1218755Y21264D01*
X1218317Y20206D01*
X1217810Y19178D01*
X1217237Y18186D01*
X1216600Y17233D01*
X1215903Y16324D01*
X1215147Y15463D01*
X1214337Y14653D01*
X1213476Y13897D01*
X1212567Y13200D01*
X1211614Y12563D01*
X1210622Y11990D01*
X1209594Y11483D01*
X1208536Y11045D01*
X1207451Y10677D01*
X1206344Y10380D01*
X1205220Y10157D01*
X1204084Y10007D01*
X1202941Y9932D01*
X1201795Y9932D01*
X1200652Y10007D01*
X1199516Y10157D01*
X1198392Y10380D01*
X1197285Y10677D01*
X1196200Y11045D01*
X1195142Y11483D01*
X1194114Y11990D01*
X1193122Y12563D01*
X1192169Y13200D01*
X1191260Y13897D01*
X1190399Y14653D01*
X1189589Y15463D01*
X1188833Y16324D01*
X1188136Y17233D01*
X1187499Y18186D01*
X1186926Y19178D01*
X1186419Y20206D01*
X1185981Y21264D01*
X1185613Y22349D01*
X1185316Y23456D01*
X1185093Y24580D01*
X1184943Y25716D01*
X1184868Y26859D01*
X1184868Y28005D01*
X1184943Y29148D01*
X1185093Y30284D01*
X1185316Y31408D01*
X1185613Y32515D01*
X1185981Y33600D01*
X1186419Y34658D01*
X1186926Y35686D01*
X1187499Y36678D01*
X1188136Y37631D01*
X1188833Y38540D01*
X1189589Y39401D01*
X1190399Y40211D01*
X1191260Y40967D01*
X1192169Y41664D01*
X1193122Y42301D01*
X1194114Y42874D01*
X1195142Y43381D01*
X1196200Y43819D01*
X1197285Y44187D01*
X1198392Y44484D01*
X1199516Y44708D01*
X1200652Y44857D01*
X1201795Y44932D01*
X1202941Y44932D01*
X1204084Y44857D01*
X1205220Y44708D01*
X1206344Y44484D01*
X1207451Y44187D01*
X1208536Y43819D01*
X1209594Y43381D01*
X1210622Y42874D01*
X1211614Y42301D01*
X1212567Y41664D01*
X1213476Y40967D01*
X1214337Y40211D01*
X1215147Y39401D01*
X1215903Y38540D01*
X1216600Y37631D01*
X1217237Y36678D01*
X1217810Y35686D01*
X1218317Y34658D01*
X1218755Y33600D01*
X1219123Y32515D01*
X1219420Y31408D01*
X1219644Y30284D01*
X1219793Y29148D01*
X1219868Y28005D01*
X1219868Y26859D01*
X472768Y812546D02*
X473930Y812470D01*
X475084Y812318D01*
X476226Y812091D01*
X477350Y811790D01*
X478452Y811415D01*
X479528Y810970D01*
X480572Y810455D01*
X481580Y809873D01*
X482548Y809226D01*
X483472Y808518D01*
X484347Y807750D01*
X485170Y806927D01*
X485938Y806052D01*
X486646Y805128D01*
X487293Y804160D01*
X487875Y803152D01*
X488390Y802108D01*
X488835Y801032D01*
X489210Y799930D01*
X489511Y798806D01*
X489738Y797664D01*
X489890Y796510D01*
X489966Y795348D01*
X489966Y794184D01*
X489890Y793022D01*
X489738Y791868D01*
X489511Y790726D01*
X489210Y789602D01*
X488835Y788500D01*
X488390Y787424D01*
X487875Y786380D01*
X487293Y785372D01*
X486646Y784404D01*
X485938Y783480D01*
X485170Y782605D01*
X484347Y781782D01*
X483472Y781015D01*
X482548Y780306D01*
X481580Y779659D01*
X480572Y779077D01*
X479528Y778562D01*
X478452Y778117D01*
X477350Y777743D01*
X476226Y777441D01*
X475084Y777214D01*
X473930Y777062D01*
X472768Y776986D01*
X471604Y776986D01*
X470442Y777062D01*
X469288Y777214D01*
X468146Y777441D01*
X467022Y777743D01*
X465920Y778117D01*
X464844Y778562D01*
X463800Y779077D01*
X462792Y779659D01*
X461824Y780306D01*
X460900Y781015D01*
X460025Y781782D01*
X459202Y782605D01*
X458435Y783480D01*
X457726Y784404D01*
X457079Y785372D01*
X456497Y786380D01*
X455982Y787424D01*
X455537Y788500D01*
X455163Y789602D01*
X454861Y790726D01*
X454634Y791868D01*
X454482Y793022D01*
X454406Y794184D01*
X454406Y795348D01*
X454482Y796510D01*
X454634Y797664D01*
X454861Y798806D01*
X455163Y799930D01*
X455537Y801032D01*
X455982Y802108D01*
X456497Y803152D01*
X457079Y804160D01*
X457726Y805128D01*
X458435Y806052D01*
X459202Y806927D01*
X460025Y807750D01*
X460900Y808518D01*
X461824Y809226D01*
X462792Y809873D01*
X463800Y810455D01*
X464844Y810970D01*
X465920Y811415D01*
X467022Y811790D01*
X468146Y812091D01*
X469288Y812318D01*
X470442Y812470D01*
X471604Y812546D01*
X472768Y812546D01*
X358468Y812546D02*
X359630Y812470D01*
X360784Y812318D01*
X361926Y812091D01*
X363050Y811790D01*
X364152Y811415D01*
X365228Y810970D01*
X366272Y810455D01*
X367280Y809873D01*
X368248Y809226D01*
X369172Y808518D01*
X370047Y807750D01*
X370870Y806927D01*
X371638Y806052D01*
X372346Y805128D01*
X372993Y804160D01*
X373575Y803152D01*
X374090Y802108D01*
X374535Y801032D01*
X374910Y799930D01*
X375211Y798806D01*
X375438Y797664D01*
X375590Y796510D01*
X375666Y795348D01*
X375666Y794184D01*
X375590Y793022D01*
X375438Y791868D01*
X375211Y790726D01*
X374910Y789602D01*
X374535Y788500D01*
X374090Y787424D01*
X373575Y786380D01*
X372993Y785372D01*
X372346Y784404D01*
X371638Y783480D01*
X370870Y782605D01*
X370047Y781782D01*
X369172Y781015D01*
X368248Y780306D01*
X367280Y779659D01*
X366272Y779077D01*
X365228Y778562D01*
X364152Y778117D01*
X363050Y777743D01*
X361926Y777441D01*
X360784Y777214D01*
X359630Y777062D01*
X358468Y776986D01*
X357304Y776986D01*
X356142Y777062D01*
X354988Y777214D01*
X353846Y777441D01*
X352722Y777743D01*
X351620Y778117D01*
X350544Y778562D01*
X349500Y779077D01*
X348492Y779659D01*
X347524Y780306D01*
X346600Y781015D01*
X345725Y781782D01*
X344902Y782605D01*
X344135Y783480D01*
X343426Y784404D01*
X342779Y785372D01*
X342197Y786380D01*
X341682Y787424D01*
X341237Y788500D01*
X340863Y789602D01*
X340561Y790726D01*
X340334Y791868D01*
X340182Y793022D01*
X340106Y794184D01*
X340106Y795348D01*
X340182Y796510D01*
X340334Y797664D01*
X340561Y798806D01*
X340863Y799930D01*
X341237Y801032D01*
X341682Y802108D01*
X342197Y803152D01*
X342779Y804160D01*
X343426Y805128D01*
X344135Y806052D01*
X344902Y806927D01*
X345725Y807750D01*
X346600Y808518D01*
X347524Y809226D01*
X348492Y809873D01*
X349500Y810455D01*
X350544Y810970D01*
X351620Y811415D01*
X352722Y811790D01*
X353846Y812091D01*
X354988Y812318D01*
X356142Y812470D01*
X357304Y812546D01*
X358468Y812546D01*
M02*
