G04 EAGLE Gerber RS-274X export*
G75*
%MOMM*%
%FSLAX34Y34*%
%LPD*%
%INSolderpaste Bottom*%
%IPPOS*%
%AMOC8*
5,1,8,0,0,1.08239X$1,22.5*%
G01*
%ADD10C,0.254000*%


D10*
X0Y0D02*
X1230000Y0D01*
X1230000Y870000D01*
X0Y870000D01*
X0Y0D01*
X608568Y852150D02*
X608581Y851845D01*
X608621Y851542D01*
X608687Y851244D01*
X608779Y850953D01*
X608896Y850671D01*
X609037Y850400D01*
X609201Y850142D01*
X609387Y849900D01*
X609593Y849675D01*
X609818Y849469D01*
X610060Y849283D01*
X610318Y849119D01*
X610589Y848978D01*
X610871Y848861D01*
X611162Y848769D01*
X611460Y848703D01*
X611763Y848663D01*
X612068Y848650D01*
X612373Y848663D01*
X612676Y848703D01*
X612974Y848769D01*
X613265Y848861D01*
X613547Y848978D01*
X613818Y849119D01*
X614076Y849283D01*
X614318Y849469D01*
X614543Y849675D01*
X614749Y849900D01*
X614935Y850142D01*
X615099Y850400D01*
X615240Y850671D01*
X615357Y850953D01*
X615449Y851244D01*
X615515Y851542D01*
X615555Y851845D01*
X615568Y852150D01*
X615568Y856150D01*
X615555Y856455D01*
X615515Y856758D01*
X615449Y857056D01*
X615357Y857347D01*
X615240Y857629D01*
X615099Y857900D01*
X614935Y858158D01*
X614749Y858400D01*
X614543Y858625D01*
X614318Y858831D01*
X614076Y859017D01*
X613818Y859181D01*
X613547Y859322D01*
X613265Y859439D01*
X612974Y859531D01*
X612676Y859597D01*
X612373Y859637D01*
X612068Y859650D01*
X611763Y859637D01*
X611460Y859597D01*
X611162Y859531D01*
X610871Y859439D01*
X610589Y859322D01*
X610318Y859181D01*
X610060Y859017D01*
X609818Y858831D01*
X609593Y858625D01*
X609387Y858400D01*
X609201Y858158D01*
X609037Y857900D01*
X608896Y857629D01*
X608779Y857347D01*
X608687Y857056D01*
X608621Y856758D01*
X608581Y856455D01*
X608568Y856150D01*
X608568Y852150D01*
X536068Y852150D02*
X536081Y851845D01*
X536121Y851542D01*
X536187Y851244D01*
X536279Y850953D01*
X536396Y850671D01*
X536537Y850400D01*
X536701Y850142D01*
X536887Y849900D01*
X537093Y849675D01*
X537318Y849469D01*
X537560Y849283D01*
X537818Y849119D01*
X538089Y848978D01*
X538371Y848861D01*
X538662Y848769D01*
X538960Y848703D01*
X539263Y848663D01*
X539568Y848650D01*
X539873Y848663D01*
X540176Y848703D01*
X540474Y848769D01*
X540765Y848861D01*
X541047Y848978D01*
X541318Y849119D01*
X541576Y849283D01*
X541818Y849469D01*
X542043Y849675D01*
X542249Y849900D01*
X542435Y850142D01*
X542599Y850400D01*
X542740Y850671D01*
X542857Y850953D01*
X542949Y851244D01*
X543015Y851542D01*
X543055Y851845D01*
X543068Y852150D01*
X543068Y856150D01*
X543055Y856455D01*
X543015Y856758D01*
X542949Y857056D01*
X542857Y857347D01*
X542740Y857629D01*
X542599Y857900D01*
X542435Y858158D01*
X542249Y858400D01*
X542043Y858625D01*
X541818Y858831D01*
X541576Y859017D01*
X541318Y859181D01*
X541047Y859322D01*
X540765Y859439D01*
X540474Y859531D01*
X540176Y859597D01*
X539873Y859637D01*
X539568Y859650D01*
X539263Y859637D01*
X538960Y859597D01*
X538662Y859531D01*
X538371Y859439D01*
X538089Y859322D01*
X537818Y859181D01*
X537560Y859017D01*
X537318Y858831D01*
X537093Y858625D01*
X536887Y858400D01*
X536701Y858158D01*
X536537Y857900D01*
X536396Y857629D01*
X536279Y857347D01*
X536187Y857056D01*
X536121Y856758D01*
X536081Y856455D01*
X536068Y856150D01*
X536068Y852150D01*
X1219868Y841945D02*
X1219793Y840802D01*
X1219644Y839666D01*
X1219420Y838542D01*
X1219123Y837435D01*
X1218755Y836350D01*
X1218317Y835292D01*
X1217810Y834264D01*
X1217237Y833272D01*
X1216600Y832319D01*
X1215903Y831410D01*
X1215147Y830549D01*
X1214337Y829739D01*
X1213476Y828983D01*
X1212567Y828286D01*
X1211614Y827649D01*
X1210622Y827076D01*
X1209594Y826569D01*
X1208536Y826131D01*
X1207451Y825763D01*
X1206344Y825466D01*
X1205220Y825243D01*
X1204084Y825093D01*
X1202941Y825018D01*
X1201795Y825018D01*
X1200652Y825093D01*
X1199516Y825243D01*
X1198392Y825466D01*
X1197285Y825763D01*
X1196200Y826131D01*
X1195142Y826569D01*
X1194114Y827076D01*
X1193122Y827649D01*
X1192169Y828286D01*
X1191260Y828983D01*
X1190399Y829739D01*
X1189589Y830549D01*
X1188833Y831410D01*
X1188136Y832319D01*
X1187499Y833272D01*
X1186926Y834264D01*
X1186419Y835292D01*
X1185981Y836350D01*
X1185613Y837435D01*
X1185316Y838542D01*
X1185093Y839666D01*
X1184943Y840802D01*
X1184868Y841945D01*
X1184868Y843091D01*
X1184943Y844234D01*
X1185093Y845370D01*
X1185316Y846494D01*
X1185613Y847601D01*
X1185981Y848686D01*
X1186419Y849744D01*
X1186926Y850772D01*
X1187499Y851764D01*
X1188136Y852717D01*
X1188833Y853626D01*
X1189589Y854487D01*
X1190399Y855297D01*
X1191260Y856053D01*
X1192169Y856750D01*
X1193122Y857387D01*
X1194114Y857960D01*
X1195142Y858467D01*
X1196200Y858905D01*
X1197285Y859273D01*
X1198392Y859570D01*
X1199516Y859794D01*
X1200652Y859943D01*
X1201795Y860018D01*
X1202941Y860018D01*
X1204084Y859943D01*
X1205220Y859794D01*
X1206344Y859570D01*
X1207451Y859273D01*
X1208536Y858905D01*
X1209594Y858467D01*
X1210622Y857960D01*
X1211614Y857387D01*
X1212567Y856750D01*
X1213476Y856053D01*
X1214337Y855297D01*
X1215147Y854487D01*
X1215903Y853626D01*
X1216600Y852717D01*
X1217237Y851764D01*
X1217810Y850772D01*
X1218317Y849744D01*
X1218755Y848686D01*
X1219123Y847601D01*
X1219420Y846494D01*
X1219644Y845370D01*
X1219793Y844234D01*
X1219868Y843091D01*
X1219868Y841945D01*
X45000Y841945D02*
X44925Y840802D01*
X44776Y839666D01*
X44552Y838542D01*
X44255Y837435D01*
X43887Y836350D01*
X43449Y835292D01*
X42942Y834264D01*
X42369Y833272D01*
X41732Y832319D01*
X41035Y831410D01*
X40279Y830549D01*
X39469Y829739D01*
X38608Y828983D01*
X37699Y828286D01*
X36746Y827649D01*
X35754Y827076D01*
X34726Y826569D01*
X33668Y826131D01*
X32583Y825763D01*
X31476Y825466D01*
X30352Y825243D01*
X29216Y825093D01*
X28073Y825018D01*
X26927Y825018D01*
X25784Y825093D01*
X24648Y825243D01*
X23524Y825466D01*
X22417Y825763D01*
X21332Y826131D01*
X20274Y826569D01*
X19246Y827076D01*
X18254Y827649D01*
X17301Y828286D01*
X16392Y828983D01*
X15531Y829739D01*
X14721Y830549D01*
X13965Y831410D01*
X13268Y832319D01*
X12631Y833272D01*
X12058Y834264D01*
X11551Y835292D01*
X11113Y836350D01*
X10745Y837435D01*
X10448Y838542D01*
X10225Y839666D01*
X10075Y840802D01*
X10000Y841945D01*
X10000Y843091D01*
X10075Y844234D01*
X10225Y845370D01*
X10448Y846494D01*
X10745Y847601D01*
X11113Y848686D01*
X11551Y849744D01*
X12058Y850772D01*
X12631Y851764D01*
X13268Y852717D01*
X13965Y853626D01*
X14721Y854487D01*
X15531Y855297D01*
X16392Y856053D01*
X17301Y856750D01*
X18254Y857387D01*
X19246Y857960D01*
X20274Y858467D01*
X21332Y858905D01*
X22417Y859273D01*
X23524Y859570D01*
X24648Y859794D01*
X25784Y859943D01*
X26927Y860018D01*
X28073Y860018D01*
X29216Y859943D01*
X30352Y859794D01*
X31476Y859570D01*
X32583Y859273D01*
X33668Y858905D01*
X34726Y858467D01*
X35754Y857960D01*
X36746Y857387D01*
X37699Y856750D01*
X38608Y856053D01*
X39469Y855297D01*
X40279Y854487D01*
X41035Y853626D01*
X41732Y852717D01*
X42369Y851764D01*
X42942Y850772D01*
X43449Y849744D01*
X43887Y848686D01*
X44255Y847601D01*
X44552Y846494D01*
X44776Y845370D01*
X44925Y844234D01*
X45000Y843091D01*
X45000Y841945D01*
X44932Y26859D02*
X44857Y25716D01*
X44708Y24580D01*
X44484Y23456D01*
X44187Y22349D01*
X43819Y21264D01*
X43381Y20206D01*
X42874Y19178D01*
X42301Y18186D01*
X41664Y17233D01*
X40967Y16324D01*
X40211Y15463D01*
X39401Y14653D01*
X38540Y13897D01*
X37631Y13200D01*
X36678Y12563D01*
X35686Y11990D01*
X34658Y11483D01*
X33600Y11045D01*
X32515Y10677D01*
X31408Y10380D01*
X30284Y10157D01*
X29148Y10007D01*
X28005Y9932D01*
X26859Y9932D01*
X25716Y10007D01*
X24580Y10157D01*
X23456Y10380D01*
X22349Y10677D01*
X21264Y11045D01*
X20206Y11483D01*
X19178Y11990D01*
X18186Y12563D01*
X17233Y13200D01*
X16324Y13897D01*
X15463Y14653D01*
X14653Y15463D01*
X13897Y16324D01*
X13200Y17233D01*
X12563Y18186D01*
X11990Y19178D01*
X11483Y20206D01*
X11045Y21264D01*
X10677Y22349D01*
X10380Y23456D01*
X10157Y24580D01*
X10007Y25716D01*
X9932Y26859D01*
X9932Y28005D01*
X10007Y29148D01*
X10157Y30284D01*
X10380Y31408D01*
X10677Y32515D01*
X11045Y33600D01*
X11483Y34658D01*
X11990Y35686D01*
X12563Y36678D01*
X13200Y37631D01*
X13897Y38540D01*
X14653Y39401D01*
X15463Y40211D01*
X16324Y40967D01*
X17233Y41664D01*
X18186Y42301D01*
X19178Y42874D01*
X20206Y43381D01*
X21264Y43819D01*
X22349Y44187D01*
X23456Y44484D01*
X24580Y44708D01*
X25716Y44857D01*
X26859Y44932D01*
X28005Y44932D01*
X29148Y44857D01*
X30284Y44708D01*
X31408Y44484D01*
X32515Y44187D01*
X33600Y43819D01*
X34658Y43381D01*
X35686Y42874D01*
X36678Y42301D01*
X37631Y41664D01*
X38540Y40967D01*
X39401Y40211D01*
X40211Y39401D01*
X40967Y38540D01*
X41664Y37631D01*
X42301Y36678D01*
X42874Y35686D01*
X43381Y34658D01*
X43819Y33600D01*
X44187Y32515D01*
X44484Y31408D01*
X44708Y30284D01*
X44857Y29148D01*
X44932Y28005D01*
X44932Y26859D01*
X1219868Y26859D02*
X1219793Y25716D01*
X1219644Y24580D01*
X1219420Y23456D01*
X1219123Y22349D01*
X1218755Y21264D01*
X1218317Y20206D01*
X1217810Y19178D01*
X1217237Y18186D01*
X1216600Y17233D01*
X1215903Y16324D01*
X1215147Y15463D01*
X1214337Y14653D01*
X1213476Y13897D01*
X1212567Y13200D01*
X1211614Y12563D01*
X1210622Y11990D01*
X1209594Y11483D01*
X1208536Y11045D01*
X1207451Y10677D01*
X1206344Y10380D01*
X1205220Y10157D01*
X1204084Y10007D01*
X1202941Y9932D01*
X1201795Y9932D01*
X1200652Y10007D01*
X1199516Y10157D01*
X1198392Y10380D01*
X1197285Y10677D01*
X1196200Y11045D01*
X1195142Y11483D01*
X1194114Y11990D01*
X1193122Y12563D01*
X1192169Y13200D01*
X1191260Y13897D01*
X1190399Y14653D01*
X1189589Y15463D01*
X1188833Y16324D01*
X1188136Y17233D01*
X1187499Y18186D01*
X1186926Y19178D01*
X1186419Y20206D01*
X1185981Y21264D01*
X1185613Y22349D01*
X1185316Y23456D01*
X1185093Y24580D01*
X1184943Y25716D01*
X1184868Y26859D01*
X1184868Y28005D01*
X1184943Y29148D01*
X1185093Y30284D01*
X1185316Y31408D01*
X1185613Y32515D01*
X1185981Y33600D01*
X1186419Y34658D01*
X1186926Y35686D01*
X1187499Y36678D01*
X1188136Y37631D01*
X1188833Y38540D01*
X1189589Y39401D01*
X1190399Y40211D01*
X1191260Y40967D01*
X1192169Y41664D01*
X1193122Y42301D01*
X1194114Y42874D01*
X1195142Y43381D01*
X1196200Y43819D01*
X1197285Y44187D01*
X1198392Y44484D01*
X1199516Y44708D01*
X1200652Y44857D01*
X1201795Y44932D01*
X1202941Y44932D01*
X1204084Y44857D01*
X1205220Y44708D01*
X1206344Y44484D01*
X1207451Y44187D01*
X1208536Y43819D01*
X1209594Y43381D01*
X1210622Y42874D01*
X1211614Y42301D01*
X1212567Y41664D01*
X1213476Y40967D01*
X1214337Y40211D01*
X1215147Y39401D01*
X1215903Y38540D01*
X1216600Y37631D01*
X1217237Y36678D01*
X1217810Y35686D01*
X1218317Y34658D01*
X1218755Y33600D01*
X1219123Y32515D01*
X1219420Y31408D01*
X1219644Y30284D01*
X1219793Y29148D01*
X1219868Y28005D01*
X1219868Y26859D01*
X472768Y812546D02*
X473930Y812470D01*
X475084Y812318D01*
X476226Y812091D01*
X477350Y811790D01*
X478452Y811415D01*
X479528Y810970D01*
X480572Y810455D01*
X481580Y809873D01*
X482548Y809226D01*
X483472Y808518D01*
X484347Y807750D01*
X485170Y806927D01*
X485938Y806052D01*
X486646Y805128D01*
X487293Y804160D01*
X487875Y803152D01*
X488390Y802108D01*
X488835Y801032D01*
X489210Y799930D01*
X489511Y798806D01*
X489738Y797664D01*
X489890Y796510D01*
X489966Y795348D01*
X489966Y794184D01*
X489890Y793022D01*
X489738Y791868D01*
X489511Y790726D01*
X489210Y789602D01*
X488835Y788500D01*
X488390Y787424D01*
X487875Y786380D01*
X487293Y785372D01*
X486646Y784404D01*
X485938Y783480D01*
X485170Y782605D01*
X484347Y781782D01*
X483472Y781015D01*
X482548Y780306D01*
X481580Y779659D01*
X480572Y779077D01*
X479528Y778562D01*
X478452Y778117D01*
X477350Y777743D01*
X476226Y777441D01*
X475084Y777214D01*
X473930Y777062D01*
X472768Y776986D01*
X471604Y776986D01*
X470442Y777062D01*
X469288Y777214D01*
X468146Y777441D01*
X467022Y777743D01*
X465920Y778117D01*
X464844Y778562D01*
X463800Y779077D01*
X462792Y779659D01*
X461824Y780306D01*
X460900Y781015D01*
X460025Y781782D01*
X459202Y782605D01*
X458435Y783480D01*
X457726Y784404D01*
X457079Y785372D01*
X456497Y786380D01*
X455982Y787424D01*
X455537Y788500D01*
X455163Y789602D01*
X454861Y790726D01*
X454634Y791868D01*
X454482Y793022D01*
X454406Y794184D01*
X454406Y795348D01*
X454482Y796510D01*
X454634Y797664D01*
X454861Y798806D01*
X455163Y799930D01*
X455537Y801032D01*
X455982Y802108D01*
X456497Y803152D01*
X457079Y804160D01*
X457726Y805128D01*
X458435Y806052D01*
X459202Y806927D01*
X460025Y807750D01*
X460900Y808518D01*
X461824Y809226D01*
X462792Y809873D01*
X463800Y810455D01*
X464844Y810970D01*
X465920Y811415D01*
X467022Y811790D01*
X468146Y812091D01*
X469288Y812318D01*
X470442Y812470D01*
X471604Y812546D01*
X472768Y812546D01*
X358468Y812546D02*
X359630Y812470D01*
X360784Y812318D01*
X361926Y812091D01*
X363050Y811790D01*
X364152Y811415D01*
X365228Y810970D01*
X366272Y810455D01*
X367280Y809873D01*
X368248Y809226D01*
X369172Y808518D01*
X370047Y807750D01*
X370870Y806927D01*
X371638Y806052D01*
X372346Y805128D01*
X372993Y804160D01*
X373575Y803152D01*
X374090Y802108D01*
X374535Y801032D01*
X374910Y799930D01*
X375211Y798806D01*
X375438Y797664D01*
X375590Y796510D01*
X375666Y795348D01*
X375666Y794184D01*
X375590Y793022D01*
X375438Y791868D01*
X375211Y790726D01*
X374910Y789602D01*
X374535Y788500D01*
X374090Y787424D01*
X373575Y786380D01*
X372993Y785372D01*
X372346Y784404D01*
X371638Y783480D01*
X370870Y782605D01*
X370047Y781782D01*
X369172Y781015D01*
X368248Y780306D01*
X367280Y779659D01*
X366272Y779077D01*
X365228Y778562D01*
X364152Y778117D01*
X363050Y777743D01*
X361926Y777441D01*
X360784Y777214D01*
X359630Y777062D01*
X358468Y776986D01*
X357304Y776986D01*
X356142Y777062D01*
X354988Y777214D01*
X353846Y777441D01*
X352722Y777743D01*
X351620Y778117D01*
X350544Y778562D01*
X349500Y779077D01*
X348492Y779659D01*
X347524Y780306D01*
X346600Y781015D01*
X345725Y781782D01*
X344902Y782605D01*
X344135Y783480D01*
X343426Y784404D01*
X342779Y785372D01*
X342197Y786380D01*
X341682Y787424D01*
X341237Y788500D01*
X340863Y789602D01*
X340561Y790726D01*
X340334Y791868D01*
X340182Y793022D01*
X340106Y794184D01*
X340106Y795348D01*
X340182Y796510D01*
X340334Y797664D01*
X340561Y798806D01*
X340863Y799930D01*
X341237Y801032D01*
X341682Y802108D01*
X342197Y803152D01*
X342779Y804160D01*
X343426Y805128D01*
X344135Y806052D01*
X344902Y806927D01*
X345725Y807750D01*
X346600Y808518D01*
X347524Y809226D01*
X348492Y809873D01*
X349500Y810455D01*
X350544Y810970D01*
X351620Y811415D01*
X352722Y811790D01*
X353846Y812091D01*
X354988Y812318D01*
X356142Y812470D01*
X357304Y812546D01*
X358468Y812546D01*
M02*
