M48
;GenerationSoftware,Autodesk,EAGLE,9.5.1*%
;CreationDate,2020-09-29T15:31:42Z*%
FMAT,2
ICI,OFF
METRIC,TZ,000.000
T14C0.200
T13C0.350
T12C0.700
T11C0.813
T10C1.016
T9C1.100
T8C1.200
T7C1.321
T6C1.400
T5C1.651
T4C2.997
T3C3.200
T2C3.500
T1C3.556
%
G90
M71
T1
X47219Y79477
X35789Y79477
T2
X120237Y84252
X2750Y84252
X2743Y2743
X120237Y2743
T3
X28016Y73066
T4
X24255Y76244
X27991Y80387
T5
X49505Y76556
X33503Y76556
T6
X20407Y83584
X15407Y83584
T7
X19126Y58649
X8458Y58649
X3378Y58649
X24206Y58649
T8
X2692Y40361
X2692Y51029
X2692Y37821
X21234Y51029
X2692Y48489
X21234Y48489
X21234Y37821
X21234Y40361
T9
X13978Y3634
X66327Y83387
X69827Y83387
X73327Y83387
X94694Y3634
X76827Y83387
X101694Y3634
X80384Y83387
X83884Y83387
X98194Y3634
X42060Y3634
X87384Y83387
X90884Y83387
X94384Y83387
X101384Y83387
X104884Y83387
X97884Y83387
X105194Y3634
X108694Y3634
X28060Y3634
X31560Y3634
X35060Y3634
X38560Y3634
X108384Y83387
X45560Y3634
X49060Y3634
X52560Y3634
X56127Y3634
X59627Y3634
X63127Y3634
X66627Y3634
X70127Y3634
X73627Y3634
X77127Y3634
X80627Y3634
X84194Y3634
X87694Y3634
X91194Y3634
X17478Y3634
X20978Y3634
X24478Y3634
T10
X95758Y73711
X75438Y71171
X116078Y73711
X116078Y71171
X113538Y73711
X113538Y71171
X110998Y73711
X110998Y71171
X108458Y73711
X108458Y71171
X105918Y73711
X105918Y71171
X103378Y73711
X103378Y71171
X100838Y73711
X100838Y71171
X98298Y73711
X98298Y71171
X95758Y71171
X93218Y73711
X93218Y71171
X90678Y73711
X90678Y71171
X88138Y73711
X88138Y71171
X85598Y73711
X85598Y71171
X83058Y73711
X83058Y71171
X80518Y73711
X80518Y71171
X77978Y73711
X77978Y71171
X75438Y73711
T11
X42139Y70587
X43409Y73127
X44679Y70587
X45949Y73127
X34900Y84430
X45568Y84430
X48108Y84430
X37440Y84430
X37059Y70587
X38329Y73127
X39599Y70587
X40869Y73127
T12
X55157Y82765
X60007Y82765
T13
X50571Y38075
X65761Y40411
X51435Y38532
X77368Y46888
X79019Y43942
X77318Y40945
X78969Y40030
X85319Y42291
X63068Y40665
X63932Y40538
X51943Y39040
X66650Y40335
X49555Y37795
X64897Y40411
T14
X2595Y17932
X4281Y17932
X4842Y17932
X5404Y17932
X5966Y17932
X117729Y21666
X117729Y22581
X117729Y23343
X117704Y16662
X117729Y24079
X117729Y24638
X117729Y25197
X117729Y17450
X117704Y15926
X117729Y18821
X117754Y18136
X117678Y19812
X117729Y20701
X32995Y41580
X32995Y42139
X56739Y49831
X56769Y50927
X87786Y65434
X88650Y64571
X89374Y63847
X90009Y63212
X90847Y62374
X87333Y65888
X88218Y65002
X53137Y76708
X65862Y76632
X54635Y66142
X58284Y65269
X26949Y32664
X25298Y32817
X23622Y32741
X22022Y32741
X20193Y32791
X18517Y33020
X16815Y32944
X15088Y32944
X23597Y9373
X19990Y9449
X16459Y9271
X12827Y9373
X69342Y67970
X61976Y64668
X89941Y55093
X117704Y15189
X117678Y14351
X117678Y13437
X117653Y12649
X117627Y11836
X117627Y10897
X10381Y17882
X9492Y17907
X8705Y17907
X7968Y17907
X7257Y17907
X6571Y17932
X10457Y27305
X9746Y27305
X8984Y27305
X8248Y27305
X7460Y27305
X6800Y27280
X78308Y36068
X87744Y34150
X100533Y35281
X103276Y37998
X53543Y44298
X54077Y42520
X54153Y45415
X47308Y44132
X69063Y43713
X81872Y46017
X88341Y48717
X90373Y50467
X94590Y56617
X96063Y59030
X97130Y64973
X58229Y40475
X68377Y43028
X98069Y65230
X96718Y58629
X95355Y56604
X90500Y49759
X88773Y48082
X82499Y45644
X59131Y40996
X67462Y42316
X99339Y65862
X97841Y57709
X95606Y54966
X93370Y48590
X91211Y46482
X83388Y45364
X60198Y41554
X67310Y41529
X83363Y44656
X91059Y47269
X93193Y49530
X95834Y56058
X97282Y58191
X98196Y65938
X53188Y46025
X50013Y45237
X44729Y59131
X46685Y59131
X49886Y59055
X48768Y57785
X32233Y66954
X58877Y48844
X58979Y53137
X55118Y57023
X52959Y59284
X59741Y48819
X59741Y53619
X55804Y57607
X53696Y59766
X32207Y58242
X36805Y52197
X47854Y53670
X47371Y62789
X95422Y43886
X70739Y64567
X65507Y64618
X56413Y74041
X108052Y66904
X106451Y49708
X56693Y75082
X65430Y65481
X69494Y65481
X95885Y44450
X109957Y67564
X46330Y32868
X87173Y53594
X82118Y47371
X82833Y43820
X91313Y52908
X72390Y68275
X112852Y67843
X105943Y55093
X68961Y38989
X73609Y38913
X74092Y37668
X83029Y35665
X110922Y67920
X104775Y57734
X104724Y65583
X100940Y57683
X102692Y65659
X97612Y54102
X100889Y65888
X96977Y54839
X101778Y65837
X95758Y53645
X98325Y57175
X100076Y65888
X29235Y11786
X29032Y17831
X32601Y11519
X32588Y17780
X36068Y11405
X36106Y17767
X39522Y17856
X39548Y11455
X43117Y11443
X43167Y17717
X46660Y17678
X46660Y11532
X50140Y11659
X50190Y17678
X53721Y11659
X53696Y17704
X57112Y11595
X57125Y17653
X60706Y17780
X60655Y11582
X64160Y11430
X64262Y17628
X67742Y11582
X67742Y17729
X71272Y17856
X71298Y11684
X74803Y17780
X74778Y12014
X78257Y17831
X78257Y11836
X81788Y17805
X81763Y12040
X85268Y17856
X85319Y11811
X88849Y17780
X88849Y11684
X92329Y17882
X92291Y11544
X95758Y17932
X95669Y11519
X99365Y17958
X99238Y11709
X102870Y17882
X102794Y11735
X106401Y17729
X106299Y11735
X109931Y17780
X109880Y11862
X108560Y67564
X103378Y55194
X105664Y66345
X102159Y56540
X99974Y53162
X96493Y47574
X92888Y44628
X92532Y41961
X106731Y66167
X102159Y57480
X99263Y53111
X95809Y48209
X92065Y44105
X91592Y40437
X104394Y66827
X94780Y47815
X91313Y43917
X90033Y39482
X89738Y37744
X90475Y43764
X93886Y47846
X97409Y53289
X100889Y58877
X102870Y66523
X83541Y43942
X81382Y41656
X94361Y65380
X94564Y58126
X96794Y64307
X95339Y58763
X92659Y52451
X94691Y64643
X87071Y43075
X83765Y35691
X84506Y35836
X87605Y42291
X89129Y40691
X85217Y35992
X111963Y67996
X105550Y52260
X104419Y48260
X102768Y43485
X113741Y67691
X106642Y58153
X108052Y54508
X102641Y42266
X107188Y67081
X106883Y48641
X72339Y40665
X72339Y44298
X71501Y40665
X71653Y48082
X70815Y48336
X70663Y40640
X69825Y48184
X69825Y40665
X114656Y68148
X106985Y57175
X83566Y37339
X77292Y38405
X76505Y39370
X27153Y9474
X68072Y39167
X74930Y38913
X75108Y37797
X83333Y36631
X65151Y68275
X68936Y59334
X84277Y43917
X69088Y38252
X14935Y11506
X14910Y17805
X18517Y11379
X18440Y17805
X22034Y11392
X22047Y17805
X25502Y17831
X25502Y11481
X30632Y9398
X34163Y9449
X37643Y9474
X41072Y9474
X44628Y9220
X47981Y9449
X51587Y9322
X55093Y9347
X58560Y9182
X62027Y9449
X65557Y9271
X68986Y9220
X72428Y9081
X75971Y9347
X79553Y9347
X82931Y9220
X86385Y9068
X89814Y9042
X93358Y9309
X96850Y9144
X100305Y9296
X103683Y9169
X107023Y9131
X28575Y32791
X30201Y32766
X32055Y32715
X33579Y32791
X84658Y57221
X81661Y62179
X78702Y56274
X65049Y60554
X70841Y56083
X71361Y59525
X83947Y50292
X82601Y48895
X88595Y38583
X99771Y43917
X80642Y46358
X36779Y56998
X32690Y55169
X32525Y54026
X32525Y52984
X32525Y51892
X32525Y50800
X32525Y49682
X32525Y48514
X32745Y47528
X32309Y63297
X106045Y50851
X34519Y63627
X45301Y57366
X48666Y54102
X49479Y53340
X46177Y47879
X40386Y51486
X40655Y53177
X40386Y52197
X43993Y43332
X47498Y39141
X35458Y32588
X37262Y32588
X39091Y32639
X40767Y32791
X42621Y32918
X44247Y32766
X47803Y32944
X49530Y32817
X51333Y32944
X53010Y32842
X54788Y32868
X56871Y32893
X58344Y32918
X60452Y32944
X61620Y32944
X63551Y32766
X65253Y32766
X66954Y32893
X68809Y32817
X70510Y32791
X72263Y32918
X73965Y32741
X75895Y32944
X77749Y32741
X79223Y32842
X81559Y32817
X82677Y32893
X84506Y32715
X86970Y32868
X88062Y32918
X90145Y32741
X91491Y32817
X93548Y32918
X94971Y32868
X97053Y32817
X98450Y32944
X100330Y32918
X101879Y32791
X103759Y32995
X105562Y32918
X107188Y32918
X108941Y32944
X110744Y32944
X5581Y27280
X3719Y17932
X3353Y27280
X2772Y27280
X2210Y27280
X3895Y27280
X4457Y27280
X5019Y27280
X6142Y27280
X3148Y17932
X2033Y17932
X67539Y39751
M30